<svg width="18" height="23" viewBox="0 0 18 23" fill="none" xmlns="http://www.w3.org/2000/svg">
<path d="M10.1036 0.413247L17.276 7.58562C17.5647 7.87433 17.7345 8.29323 17.7345 8.70648C17.7345 9.11973 17.5704 9.49335 17.276 9.82734C16.6533 10.45 15.657 10.45 15.0796 9.82734L10.5621 5.30993V21.353C10.5621 22.2247 9.85453 22.9267 8.98841 22.9267C8.12229 22.9267 7.41468 22.2191 7.41468 21.353V5.30993L2.9369 9.82734C2.3142 10.45 1.31788 10.45 0.740463 9.82734C0.117762 9.20464 0.117762 8.20832 0.740463 7.63091L7.91284 0.458534C8.20154 0.169828 8.62045 0 9.0337 0C9.44694 0 9.82057 0.12454 10.1093 0.413247H10.1036Z" fill="#A2A2A2"/>
</svg>
