<svg width="76" height="76" viewBox="0 0 76 76" fill="none" xmlns="http://www.w3.org/2000/svg">
<path d="M72.48 22C71.12 23.52 69.84 25.04 68.64 26.56C68.08 27.2 67.6 27.84 67.04 28.56C68 31.52 68.56 34.72 68.56 38C68.48 54.8 54.8 68.48 38 68.48C21.2 68.48 7.52 54.8 7.52 38C7.52 21.2 21.2 7.52 38 7.52C43.36 7.52 48.48 8.96 52.88 11.36C54.4 9.84 55.92 8.4 57.52 6.96L58.56 6.08C52.64 2.24 45.6 0 38 0C17.04 0 0 17.04 0 38C0 58.96 17.04 76 38 76C58.96 76 76 58.96 76 38C76 32.32 74.72 26.88 72.48 22Z" fill="black"/>
<path d="M48.7199 26.72C45.8399 30.24 43.1199 33.84 40.5599 37.52C39.2799 39.36 37.9999 41.28 36.7999 43.2L26.5599 30.56C25.3599 29.12 23.2799 28.8 21.6799 29.84C19.9999 30.96 19.5999 33.2 20.7199 34.88L33.5999 54C33.9199 54.48 34.3999 54.96 34.9599 55.28C35.6799 55.76 36.4799 56 37.2799 56C38.7999 56 40.4799 55.2 41.1999 53.84C41.9199 52.56 45.5199 45.92 47.9199 42.32C50.2399 38.72 52.6399 35.2 55.2799 31.76C57.8399 28.32 60.5599 24.96 63.4399 21.76C66.2399 18.56 69.2799 15.28 72.3199 12.48L72.3999 12.4C73.8399 11.04 73.9199 8.80004 72.6399 7.36004C71.2799 5.84004 69.0399 5.68004 67.5199 7.04004C63.9999 10.16 60.8799 13.28 57.7599 16.56C54.5599 19.84 51.5199 23.2 48.7199 26.72Z" fill="#EA0033"/>
</svg>
