<svg width="504" height="136" viewBox="0 0 504 136" fill="none" xmlns="http://www.w3.org/2000/svg">
<mask id="path-1-outside-1_3001_119" maskUnits="userSpaceOnUse" x="0" y="0" width="504" height="136" fill="black">
<rect fill="white" width="504" height="136"/>
<path d="M80.6055 89.5488H106.885C106.357 98.1621 103.984 105.809 99.7656 112.488C95.6055 119.168 89.7754 124.383 82.2754 128.133C74.834 131.883 65.8691 133.758 55.3809 133.758C47.1777 133.758 39.8242 132.352 33.3203 129.539C26.8164 126.668 21.25 122.566 16.6211 117.234C12.0508 111.902 8.56445 105.457 6.16211 97.8984C3.75977 90.3398 2.55859 81.873 2.55859 72.498V63.6211C2.55859 54.2461 3.78906 45.7793 6.25 38.2207C8.76953 30.6035 12.3438 24.1289 16.9727 18.7969C21.6602 13.4648 27.2559 9.36328 33.7598 6.49219C40.2637 3.62109 47.5293 2.18555 55.5566 2.18555C66.2207 2.18555 75.2148 4.11914 82.5391 7.98633C89.9219 11.8535 95.6348 17.1855 99.6777 23.9824C103.779 30.7793 106.24 38.5137 107.061 47.1855H80.6934C80.4004 42.0293 79.375 37.6641 77.6172 34.0898C75.8594 30.457 73.1934 27.7324 69.6191 25.916C66.1035 24.041 61.416 23.1035 55.5566 23.1035C51.1621 23.1035 47.3242 23.9238 44.043 25.5645C40.7617 27.2051 38.0078 29.6953 35.7812 33.0352C33.5547 36.375 31.8848 40.5938 30.7715 45.6914C29.7168 50.7305 29.1895 56.6484 29.1895 63.4453V72.498C29.1895 79.1191 29.6875 84.9492 30.6836 89.9883C31.6797 94.9688 33.2031 99.1875 35.2539 102.645C37.3633 106.043 40.0586 108.621 43.3398 110.379C46.6797 112.078 50.6934 112.928 55.3809 112.928C60.8887 112.928 65.4297 112.049 69.0039 110.291C72.5781 108.533 75.3027 105.926 77.1777 102.469C79.1113 99.0117 80.2539 94.7051 80.6055 89.5488ZM145.908 4.03125L169.99 48.6797L194.072 4.03125H224.219L187.041 67.4883L225.186 132H194.775L169.99 86.4727L145.205 132H114.619L152.852 67.4883L115.586 4.03125H145.908ZM288.555 75.8379H255.684L255.508 57.7324H283.105C287.969 57.7324 291.953 57.1172 295.059 55.8867C298.164 54.5977 300.479 52.752 302.002 50.3496C303.584 47.8887 304.375 44.9004 304.375 41.3848C304.375 37.4004 303.613 34.1777 302.09 31.7168C300.625 29.2559 298.311 27.4688 295.146 26.3555C292.041 25.2422 288.027 24.6855 283.105 24.6855H264.824V132H238.457V4.03125H283.105C290.547 4.03125 297.197 4.73438 303.057 6.14062C308.975 7.54688 313.984 9.68555 318.086 12.5566C322.188 15.4277 325.322 19.0605 327.49 23.4551C329.658 27.791 330.742 32.9473 330.742 38.9238C330.742 44.1973 329.541 49.0605 327.139 53.5137C324.795 57.9668 321.074 61.5996 315.977 64.4121C310.938 67.2246 304.346 68.7773 296.201 69.0703L288.555 75.8379ZM287.412 132H248.477L258.76 111.434H287.412C292.041 111.434 295.82 110.701 298.75 109.236C301.68 107.713 303.848 105.662 305.254 103.084C306.66 100.506 307.363 97.5469 307.363 94.207C307.363 90.457 306.719 87.2051 305.43 84.4512C304.199 81.6973 302.207 79.5879 299.453 78.123C296.699 76.5996 293.066 75.8379 288.555 75.8379H263.154L263.33 57.7324H294.971L301.035 64.8516C308.828 64.7344 315.098 66.1113 319.844 68.9824C324.648 71.7949 328.135 75.457 330.303 79.9688C332.529 84.4805 333.643 89.3145 333.643 94.4707C333.643 102.674 331.855 109.588 328.281 115.213C324.707 120.779 319.463 124.969 312.549 127.781C305.693 130.594 297.314 132 287.412 132ZM347.793 85.418V83.5723C347.793 76.5996 348.789 70.1836 350.781 64.3242C352.773 58.4062 355.674 53.2793 359.482 48.9434C363.291 44.6074 367.979 41.2383 373.545 38.8359C379.111 36.375 385.498 35.1445 392.705 35.1445C399.912 35.1445 406.328 36.375 411.953 38.8359C417.578 41.2383 422.295 44.6074 426.104 48.9434C429.971 53.2793 432.9 58.4062 434.893 64.3242C436.885 70.1836 437.881 76.5996 437.881 83.5723V85.418C437.881 92.332 436.885 98.748 434.893 104.666C432.9 110.525 429.971 115.652 426.104 120.047C422.295 124.383 417.607 127.752 412.041 130.154C406.475 132.557 400.088 133.758 392.881 133.758C385.674 133.758 379.258 132.557 373.633 130.154C368.066 127.752 363.35 124.383 359.482 120.047C355.674 115.652 352.773 110.525 350.781 104.666C348.789 98.748 347.793 92.332 347.793 85.418ZM373.105 83.5723V85.418C373.105 89.4023 373.457 93.123 374.16 96.5801C374.863 100.037 375.977 103.084 377.5 105.721C379.082 108.299 381.133 110.32 383.652 111.785C386.172 113.25 389.248 113.982 392.881 113.982C396.396 113.982 399.414 113.25 401.934 111.785C404.453 110.32 406.475 108.299 407.998 105.721C409.521 103.084 410.635 100.037 411.338 96.5801C412.1 93.123 412.48 89.4023 412.48 85.418V83.5723C412.48 79.7051 412.1 76.0723 411.338 72.6738C410.635 69.2168 409.492 66.1699 407.91 63.5332C406.387 60.8379 404.365 58.7285 401.846 57.2051C399.326 55.6816 396.279 54.9199 392.705 54.9199C389.131 54.9199 386.084 55.6816 383.564 57.2051C381.104 58.7285 379.082 60.8379 377.5 63.5332C375.977 66.1699 374.863 69.2168 374.16 72.6738C373.457 76.0723 373.105 79.7051 373.105 83.5723ZM500.02 36.9023V54.832H444.648V36.9023H500.02ZM458.359 13.4355H483.672V103.348C483.672 106.102 484.023 108.211 484.727 109.676C485.488 111.141 486.602 112.166 488.066 112.752C489.531 113.279 491.377 113.543 493.604 113.543C495.186 113.543 496.592 113.484 497.822 113.367C499.111 113.191 500.195 113.016 501.074 112.84L501.162 131.473C498.994 132.176 496.65 132.732 494.131 133.143C491.611 133.553 488.828 133.758 485.781 133.758C480.215 133.758 475.352 132.85 471.191 131.033C467.09 129.158 463.926 126.17 461.699 122.068C459.473 117.967 458.359 112.576 458.359 105.896V13.4355Z"/>
</mask>
<path d="M80.6055 89.5488V87.5488H78.7372L78.6101 89.4128L80.6055 89.5488ZM106.885 89.5488L108.881 89.671L109.011 87.5488H106.885V89.5488ZM99.7656 112.488L98.0746 111.42L98.068 111.431L99.7656 112.488ZM82.2754 128.133L81.381 126.344L81.3753 126.347L82.2754 128.133ZM33.3203 129.539L32.5126 131.369L32.5195 131.372L32.5265 131.375L33.3203 129.539ZM16.6211 117.234L15.1026 118.536L15.1108 118.545L16.6211 117.234ZM6.25 38.2207L4.35116 37.5926L4.34826 37.6015L6.25 38.2207ZM16.9727 18.7969L15.4705 17.4763L15.4624 17.4858L16.9727 18.7969ZM82.5391 7.98633L81.6052 9.75494L81.611 9.75799L82.5391 7.98633ZM99.6777 23.9824L97.9588 25.0049L97.9654 25.0158L99.6777 23.9824ZM107.061 47.1855V49.1855H109.259L109.052 46.9972L107.061 47.1855ZM80.6934 47.1855L78.6966 47.299L78.8038 49.1855H80.6934V47.1855ZM77.6172 34.0898L75.8168 34.961L75.8225 34.9725L77.6172 34.0898ZM69.6191 25.916L68.678 27.6807L68.6954 27.69L68.713 27.699L69.6191 25.916ZM30.7715 45.6914L28.8175 45.2647L28.8157 45.2732L28.8139 45.2817L30.7715 45.6914ZM30.6836 89.9883L28.7216 90.3761L28.7224 90.3805L30.6836 89.9883ZM35.2539 102.645L33.5338 103.665L33.544 103.682L33.5546 103.699L35.2539 102.645ZM43.3398 110.379L42.3954 112.142L42.4141 112.152L42.4329 112.161L43.3398 110.379ZM77.1777 102.469L75.4322 101.492L75.4259 101.504L75.4197 101.515L77.1777 102.469ZM80.6055 91.5488H106.885V87.5488H80.6055V91.5488ZM104.889 89.4266C104.38 97.7357 102.097 105.051 98.0746 111.42L101.457 113.556C105.871 106.566 108.335 98.5885 108.881 89.671L104.889 89.4266ZM98.068 111.431C94.1158 117.777 88.5734 122.748 81.381 126.344L83.1698 129.922C90.9774 126.018 97.0951 120.559 101.463 113.546L98.068 111.431ZM81.3753 126.347C74.2759 129.924 65.6354 131.758 55.3809 131.758V135.758C66.1029 135.758 75.3921 133.841 83.1754 129.919L81.3753 126.347ZM55.3809 131.758C47.4081 131.758 40.331 130.392 34.1141 127.703L32.5265 131.375C39.3174 134.311 46.9474 135.758 55.3809 135.758V131.758ZM34.128 127.709C27.8917 124.956 22.5658 121.031 18.1314 115.923L15.1108 118.545C19.9342 124.102 25.7411 128.379 32.5126 131.369L34.128 127.709ZM18.1396 115.933C13.765 110.829 10.3998 104.629 8.06815 97.2926L4.25606 98.5042C6.72915 106.285 10.3366 112.976 15.1026 118.536L18.1396 115.933ZM8.06815 97.2926C5.73821 89.9618 4.55859 81.7039 4.55859 72.498H0.558594C0.558594 82.0422 1.78132 90.7179 4.25606 98.5042L8.06815 97.2926ZM4.55859 72.498V63.6211H0.558594V72.498H4.55859ZM4.55859 63.6211C4.55859 54.4197 5.76637 46.1664 8.15174 38.8399L4.34826 37.6015C1.81175 45.3922 0.558594 54.0725 0.558594 63.6211H4.55859ZM8.14882 38.8488C10.5965 31.4487 14.0495 25.2149 18.4829 20.108L15.4624 17.4858C10.638 23.0429 6.94252 29.7584 4.35118 37.5926L8.14882 38.8488ZM18.4747 20.1174C22.9702 15.0038 28.3288 11.0758 34.5675 8.32184L32.9521 4.66253C26.1829 7.65074 20.3501 11.9259 15.4706 17.4764L18.4747 20.1174ZM34.5675 8.32184C40.786 5.57673 47.7715 4.18555 55.5566 4.18555V0.185547C47.2871 0.185547 39.7414 1.66546 32.9521 4.66253L34.5675 8.32184ZM55.5566 4.18555C65.9861 4.18555 74.6397 6.07714 81.6052 9.75494L83.4729 6.21772C75.79 2.16114 66.4553 0.185547 55.5566 0.185547V4.18555ZM81.611 9.75799C88.6844 13.4631 94.1155 18.5436 97.9588 25.0049L101.397 22.96C97.1541 15.8275 91.1593 10.2439 83.4671 6.21467L81.611 9.75799ZM97.9654 25.0158C101.897 31.5313 104.275 38.9716 105.069 47.3739L109.052 46.9972C108.206 38.0558 105.661 30.0273 101.39 22.9491L97.9654 25.0158ZM107.061 45.1855H80.6934V49.1855H107.061V45.1855ZM82.6901 47.0721C82.3863 41.7243 81.3173 37.0815 79.4119 33.2072L75.8225 34.9725C77.4327 38.2466 78.4145 42.3343 78.6966 47.299L82.6901 47.0721ZM79.4175 33.2187C77.4706 29.1952 74.492 26.1489 70.5252 24.133L68.713 27.699C71.8948 29.3159 74.2481 31.7189 75.8169 34.961L79.4175 33.2187ZM70.5603 24.1513C66.6507 22.0662 61.6011 21.1035 55.5566 21.1035V25.1035C61.2309 25.1035 65.5564 26.0159 68.678 27.6807L70.5603 24.1513ZM55.5566 21.1035C50.9125 21.1035 46.7572 21.9713 43.1485 23.7756L44.9374 27.3533C47.8912 25.8764 51.4118 25.1035 55.5566 25.1035V21.1035ZM43.1485 23.7756C39.5272 25.5863 36.5181 28.3243 34.1171 31.9258L37.4454 34.1446C39.4975 31.0663 41.9963 28.8239 44.9374 27.3533L43.1485 23.7756ZM34.1171 31.9258C31.7176 35.525 29.9689 39.9929 28.8175 45.2647L32.7254 46.1181C33.8007 41.1946 35.3917 37.225 37.4454 34.1446L34.1171 31.9258ZM28.8139 45.2817C27.7237 50.4904 27.1895 56.5517 27.1895 63.4453H31.1895C31.1895 56.7452 31.7099 50.9705 32.7291 46.1011L28.8139 45.2817ZM27.1895 63.4453V72.498H31.1895V63.4453H27.1895ZM27.1895 72.498C27.1895 79.2141 27.6942 85.1789 28.7216 90.3761L32.6456 89.6004C31.6808 84.7195 31.1895 79.0241 31.1895 72.498H27.1895ZM28.7224 90.3805C29.7517 95.5267 31.3419 99.9701 33.5338 103.665L36.974 101.624C35.0643 98.4049 33.6077 94.4108 32.6448 89.596L28.7224 90.3805ZM33.5546 103.699C35.8348 107.373 38.7818 110.206 42.3954 112.142L44.2843 108.616C41.3354 107.036 38.8917 104.713 36.9532 101.59L33.5546 103.699ZM42.4329 112.161C46.1154 114.035 50.4555 114.928 55.3809 114.928V110.928C50.9312 110.928 47.244 110.121 44.2468 108.596L42.4329 112.161ZM55.3809 114.928C61.0843 114.928 65.9533 114.02 69.8865 112.086L68.1213 108.496C64.9061 110.078 60.6931 110.928 55.3809 110.928V114.928ZM69.8865 112.086C73.8276 110.148 76.8605 107.249 78.9358 103.422L75.4197 101.515C73.745 104.603 71.3287 106.919 68.1213 108.496L69.8865 112.086ZM78.9233 103.445C81.0382 99.6637 82.235 95.0499 82.6008 89.6849L78.6101 89.4128C78.2728 94.3602 77.1844 98.3597 75.4322 101.492L78.9233 103.445ZM145.908 4.03125L147.668 3.08181L147.102 2.03125H145.908V4.03125ZM169.99 48.6797L168.23 49.6291L169.99 52.8927L171.751 49.6291L169.99 48.6797ZM194.072 4.03125V2.03125H192.879L192.312 3.08181L194.072 4.03125ZM224.219 4.03125L225.944 5.04226L227.708 2.03125H224.219V4.03125ZM187.041 67.4883L185.315 66.4773L184.72 67.4929L185.319 68.5062L187.041 67.4883ZM225.186 132V134H228.692L226.907 130.982L225.186 132ZM194.775 132L193.019 132.956L193.587 134H194.775V132ZM169.99 86.4727L171.747 85.5164L169.99 82.2898L168.234 85.5164L169.99 86.4727ZM145.205 132V134H146.393L146.962 132.956L145.205 132ZM114.619 132L112.899 130.98L111.109 134H114.619V132ZM152.852 67.4883L154.572 68.508L155.174 67.4929L154.576 66.4755L152.852 67.4883ZM115.586 4.03125V2.03125H112.092L113.861 5.04404L115.586 4.03125ZM144.148 4.98069L168.23 49.6291L171.751 47.7302L147.668 3.08181L144.148 4.98069ZM171.751 49.6291L195.833 4.98069L192.312 3.08181L168.23 47.7302L171.751 49.6291ZM194.072 6.03125H224.219V2.03125H194.072V6.03125ZM222.493 3.02024L185.315 66.4773L188.767 68.4993L225.944 5.04226L222.493 3.02024ZM185.319 68.5062L223.464 133.018L226.907 130.982L188.763 66.4703L185.319 68.5062ZM225.186 130H194.775V134H225.186V130ZM196.532 131.044L171.747 85.5164L168.234 87.4289L193.019 132.956L196.532 131.044ZM168.234 85.5164L143.449 131.044L146.962 132.956L171.747 87.4289L168.234 85.5164ZM145.205 130H114.619V134H145.205V130ZM116.34 133.02L154.572 68.508L151.131 66.4686L112.899 130.98L116.34 133.02ZM154.576 66.4755L117.311 3.01846L113.861 5.04404L151.127 68.5011L154.576 66.4755ZM115.586 6.03125H145.908V2.03125H115.586V6.03125ZM288.555 75.8379V77.8379H289.313L289.88 77.3356L288.555 75.8379ZM255.684 75.8379L253.684 75.8573L253.703 77.8379H255.684V75.8379ZM255.508 57.7324V55.7324H253.488L253.508 57.7518L255.508 57.7324ZM295.059 55.8867L295.795 57.7461L295.81 57.7401L295.825 57.7339L295.059 55.8867ZM302.002 50.3496L300.32 49.2681L300.313 49.2785L302.002 50.3496ZM302.09 31.7168L300.371 32.7398L300.38 32.7547L300.389 32.7695L302.09 31.7168ZM295.146 26.3555L294.472 28.2382L294.483 28.2421L295.146 26.3555ZM264.824 24.6855V22.6855H262.824V24.6855H264.824ZM264.824 132V134H266.824V132H264.824ZM238.457 132H236.457V134H238.457V132ZM238.457 4.03125V2.03125H236.457V4.03125H238.457ZM303.057 6.14062L302.59 8.0854L302.594 8.08644L303.057 6.14062ZM327.49 23.4551L325.697 24.3399L325.701 24.3495L327.49 23.4551ZM327.139 53.5137L325.378 52.5641L325.374 52.5731L325.369 52.5822L327.139 53.5137ZM315.977 64.4121L315.01 62.6609L315.002 62.6657L315.977 64.4121ZM296.201 69.0703L296.129 67.0716L295.413 67.0974L294.876 67.5726L296.201 69.0703ZM248.477 132L246.688 131.106L245.24 134H248.477V132ZM258.76 111.434V109.434H257.524L256.971 110.539L258.76 111.434ZM298.75 109.236L299.644 111.025L299.659 111.018L299.673 111.011L298.75 109.236ZM305.43 84.4512L303.604 85.2671L303.611 85.2831L303.618 85.2991L305.43 84.4512ZM299.453 78.123L298.485 79.8731L298.499 79.8811L298.514 79.8888L299.453 78.123ZM263.154 75.8379L261.154 75.8185L261.135 77.8379H263.154V75.8379ZM263.33 57.7324V55.7324H261.349L261.33 57.713L263.33 57.7324ZM294.971 57.7324L296.493 56.4355L295.894 55.7324H294.971V57.7324ZM301.035 64.8516L299.513 66.1485L300.123 66.8655L301.065 66.8513L301.035 64.8516ZM319.844 68.9824L318.809 70.6937L318.821 70.7011L318.833 70.7085L319.844 68.9824ZM330.303 79.9688L328.5 80.835L328.505 80.8444L328.509 80.8538L330.303 79.9688ZM328.281 115.213L329.964 116.294L329.969 116.286L328.281 115.213ZM312.549 127.781L311.795 125.929L311.79 125.931L312.549 127.781ZM288.555 73.8379H255.684V77.8379H288.555V73.8379ZM257.683 75.8185L257.508 57.713L253.508 57.7518L253.684 75.8573L257.683 75.8185ZM255.508 59.7324H283.105V55.7324H255.508V59.7324ZM283.105 59.7324C288.116 59.7324 292.374 59.1016 295.795 57.7461L294.322 54.0274C291.532 55.1328 287.822 55.7324 283.105 55.7324V59.7324ZM295.825 57.7339C299.24 56.3166 301.909 54.2301 303.691 51.4207L300.313 49.2785C299.048 51.2738 297.088 52.8787 294.292 54.0395L295.825 57.7339ZM303.684 51.4311C305.512 48.5876 306.375 45.2057 306.375 41.3848H302.375C302.375 44.5951 301.656 47.1897 300.32 49.2681L303.684 51.4311ZM306.375 41.3848C306.375 37.1632 305.57 33.539 303.79 30.6641L300.389 32.7695C301.656 34.8165 302.375 37.6376 302.375 41.3848H306.375ZM303.808 30.6938C302.064 27.7635 299.337 25.7096 295.81 24.4688L294.483 28.2421C297.284 29.2279 299.186 30.7483 300.371 32.7398L303.808 30.6938ZM295.821 24.4728C292.421 23.2536 288.155 22.6855 283.105 22.6855V26.6855C287.899 26.6855 291.661 27.2307 294.472 28.2381L295.821 24.4728ZM283.105 22.6855H264.824V26.6855H283.105V22.6855ZM262.824 24.6855V132H266.824V24.6855H262.824ZM264.824 130H238.457V134H264.824V130ZM240.457 132V4.03125H236.457V132H240.457ZM238.457 6.03125H283.105V2.03125H238.457V6.03125ZM283.105 6.03125C290.425 6.03125 296.914 6.72322 302.59 8.0854L303.523 4.19585C297.48 2.74553 290.669 2.03125 283.105 2.03125V6.03125ZM302.594 8.08644C308.318 9.44654 313.083 11.4962 316.939 14.1951L319.233 10.9182C314.885 7.87491 309.631 5.64721 303.519 4.19481L302.594 8.08644ZM316.939 14.1951C320.771 16.8777 323.681 20.2537 325.697 24.3399L329.284 22.5702C326.964 17.8674 323.604 13.9777 319.233 10.9182L316.939 14.1951ZM325.701 24.3495C327.702 28.3506 328.742 33.1868 328.742 38.9238H332.742C332.742 32.7077 331.614 27.2315 329.279 22.5607L325.701 24.3495ZM328.742 38.9238C328.742 43.8803 327.617 48.4152 325.378 52.5641L328.899 54.4633C331.465 49.7059 332.742 44.5143 332.742 38.9238H328.742ZM325.369 52.5822C323.234 56.6377 319.821 60.0069 315.01 62.661L316.943 66.1633C322.328 63.1923 326.355 59.2959 328.909 54.4452L325.369 52.5822ZM315.002 62.6657C310.33 65.2734 304.08 66.7856 296.129 67.0716L296.273 71.069C304.612 70.7691 311.545 69.1758 316.951 66.1585L315.002 62.6657ZM294.876 67.5726L287.229 74.3402L289.88 77.3356L297.527 70.568L294.876 67.5726ZM287.412 130H248.477V134H287.412V130ZM250.265 132.894L260.549 112.328L256.971 110.539L246.688 131.106L250.265 132.894ZM258.76 113.434H287.412V109.434H258.76V113.434ZM287.412 113.434C292.231 113.434 296.347 112.674 299.644 111.025L297.856 107.447C295.294 108.728 291.851 109.434 287.412 109.434V113.434ZM299.673 111.011C302.91 109.328 305.39 107.011 307.01 104.042L303.498 102.126C302.305 104.313 300.45 106.098 297.827 107.462L299.673 111.011ZM307.01 104.042C308.597 101.131 309.363 97.835 309.363 94.207H305.363C305.363 97.2587 304.723 99.8802 303.498 102.126L307.01 104.042ZM309.363 94.207C309.363 90.2308 308.68 86.6771 307.241 83.6033L303.618 85.2991C304.758 87.7331 305.363 90.6833 305.363 94.207H309.363ZM307.256 83.6353C305.837 80.4602 303.525 78.0235 300.392 76.3573L298.514 79.8888C300.889 81.1522 302.561 82.9344 303.604 85.2671L307.256 83.6353ZM300.421 76.373C297.27 74.6298 293.267 73.8379 288.555 73.8379V77.8379C292.866 77.8379 296.128 78.5694 298.485 79.8731L300.421 76.373ZM288.555 73.8379H263.154V77.8379H288.555V73.8379ZM265.154 75.8573L265.33 57.7518L261.33 57.713L261.154 75.8185L265.154 75.8573ZM263.33 59.7324H294.971V55.7324H263.33V59.7324ZM293.448 59.0294L299.513 66.1485L302.558 63.5546L296.493 56.4355L293.448 59.0294ZM301.065 66.8513C308.628 66.7376 314.488 68.0803 318.809 70.6937L320.879 67.2712C315.707 64.1424 309.028 62.7311 301.005 62.8518L301.065 66.8513ZM318.833 70.7085C323.334 73.3432 326.524 76.7221 328.5 80.835L332.105 79.1025C329.746 74.192 325.963 70.2467 320.854 67.2564L318.833 70.7085ZM328.509 80.8538C330.597 85.0833 331.643 89.6135 331.643 94.4707H335.643C335.643 89.0154 334.462 83.8776 332.096 79.0837L328.509 80.8538ZM331.643 94.4707C331.643 102.382 329.921 108.903 326.593 114.14L329.969 116.286C333.79 110.273 335.643 102.966 335.643 94.4707H331.643ZM326.598 114.132C323.275 119.308 318.378 123.251 311.795 125.929L313.302 129.634C320.547 126.687 326.139 122.251 329.964 116.294L326.598 114.132ZM311.79 125.931C305.241 128.617 297.137 130 287.412 130V134C297.492 134 306.145 132.57 313.308 129.632L311.79 125.931ZM350.781 64.3242L352.675 64.968L352.677 64.9623L350.781 64.3242ZM373.545 38.8359L374.337 40.6722L374.346 40.6687L374.354 40.6651L373.545 38.8359ZM411.953 38.8359L411.151 40.6683L411.16 40.6718L411.168 40.6752L411.953 38.8359ZM426.104 48.9434L424.601 50.2632L424.606 50.2689L424.611 50.2746L426.104 48.9434ZM434.893 64.3242L432.997 64.9623L432.999 64.968L434.893 64.3242ZM434.893 104.666L436.786 105.31L436.788 105.304L434.893 104.666ZM426.104 120.047L424.602 118.726L424.601 118.727L426.104 120.047ZM373.633 130.154L372.84 131.991L372.847 131.994L373.633 130.154ZM359.482 120.047L357.971 121.357L357.98 121.367L357.99 121.378L359.482 120.047ZM350.781 104.666L348.886 105.304L348.888 105.31L350.781 104.666ZM377.5 105.721L375.768 106.721L375.782 106.744L375.795 106.767L377.5 105.721ZM407.998 105.721L409.72 106.738L409.725 106.73L409.73 106.721L407.998 105.721ZM411.338 96.5801L409.385 96.1497L409.381 96.1656L409.378 96.1815L411.338 96.5801ZM411.338 72.6738L409.378 73.0724L409.382 73.0919L409.386 73.1113L411.338 72.6738ZM407.91 63.5332L406.169 64.5173L406.182 64.5399L406.195 64.5622L407.91 63.5332ZM383.564 57.2051L382.53 55.4936L382.521 55.499L382.512 55.5045L383.564 57.2051ZM377.5 63.5332L375.775 62.5208L375.768 62.5326L377.5 63.5332ZM374.16 72.6738L376.119 73.079L376.12 73.0724L374.16 72.6738ZM349.793 85.418V83.5723H345.793V85.418H349.793ZM349.793 83.5723C349.793 76.7912 350.761 70.5956 352.675 64.968L348.888 63.6804C346.817 69.7716 345.793 76.408 345.793 83.5723H349.793ZM352.677 64.9623C354.591 59.2746 357.365 54.3843 360.985 50.2632L357.98 47.6235C353.982 52.1743 350.955 57.5379 348.886 63.6861L352.677 64.9623ZM360.985 50.2632C364.588 46.1612 369.029 42.9632 374.337 40.6722L372.752 36.9997C366.928 39.5133 361.994 43.0537 357.98 47.6235L360.985 50.2632ZM374.354 40.6651C379.623 38.3356 385.726 37.1445 392.705 37.1445V33.1445C385.27 33.1445 378.6 34.4144 372.736 37.0067L374.354 40.6651ZM392.705 37.1445C399.684 37.1445 405.819 38.3354 411.151 40.6683L412.755 37.0036C406.837 34.4146 400.141 33.1445 392.705 33.1445V37.1445ZM411.168 40.6752C416.535 42.9674 421.001 46.1652 424.601 50.2632L427.606 47.6235C423.589 43.0497 418.622 39.5092 412.739 36.9967L411.168 40.6752ZM424.611 50.2746C428.285 54.3943 431.085 59.2808 432.997 64.9623L436.788 63.6861C434.716 57.5317 431.656 52.1643 427.596 47.6121L424.611 50.2746ZM432.999 64.968C434.912 70.5956 435.881 76.7912 435.881 83.5723H439.881C439.881 76.408 438.857 69.7716 436.786 63.6804L432.999 64.968ZM435.881 83.5723V85.418H439.881V83.5723H435.881ZM435.881 85.418C435.881 92.1382 434.913 98.3364 432.997 104.028L436.788 105.304C438.856 99.1597 439.881 92.5259 439.881 85.418H435.881ZM432.999 104.022C431.087 109.647 428.285 114.54 424.602 118.726L427.605 121.368C431.656 116.765 434.714 111.404 436.786 105.31L432.999 104.022ZM424.601 118.727C420.998 122.829 416.557 126.027 411.249 128.318L412.834 131.991C418.658 129.477 423.592 125.937 427.606 121.367L424.601 118.727ZM411.249 128.318C405.975 130.594 399.866 131.758 392.881 131.758V135.758C400.31 135.758 406.974 134.519 412.834 131.991L411.249 128.318ZM392.881 131.758C385.896 131.758 379.755 130.594 374.418 128.315L372.847 131.994C378.761 134.519 385.451 135.758 392.881 135.758V131.758ZM374.425 128.318C369.114 126.026 364.64 122.825 360.975 118.716L357.99 121.378C362.059 125.941 367.018 129.478 372.84 131.991L374.425 128.318ZM360.994 118.737C357.365 114.55 354.589 109.653 352.675 104.022L348.888 105.31C350.958 111.398 353.983 116.755 357.971 121.357L360.994 118.737ZM352.677 104.028C350.761 98.3364 349.793 92.1382 349.793 85.418H345.793C345.793 92.5259 346.817 99.1597 348.886 105.304L352.677 104.028ZM371.105 83.5723V85.418H375.105V83.5723H371.105ZM371.105 85.418C371.105 89.5193 371.467 93.3749 372.2 96.9787L376.12 96.1815C375.447 92.8712 375.105 89.2854 375.105 85.418H371.105ZM372.2 96.9787C372.94 100.615 374.121 103.871 375.768 106.721L379.232 104.72C377.832 102.297 376.787 99.4597 376.12 96.1815L372.2 96.9787ZM375.795 106.767C377.544 109.616 379.83 111.877 382.647 113.514L384.658 110.056C382.435 108.764 380.62 106.982 379.205 104.675L375.795 106.767ZM382.647 113.514C385.539 115.195 388.981 115.982 392.881 115.982V111.982C389.515 111.982 386.805 111.305 384.658 110.056L382.647 113.514ZM392.881 115.982C396.677 115.982 400.057 115.19 402.939 113.514L400.928 110.056C398.771 111.31 396.116 111.982 392.881 111.982V115.982ZM402.939 113.514C405.763 111.872 408.027 109.602 409.72 106.738L406.276 104.703C404.922 106.995 403.144 108.768 400.928 110.056L402.939 113.514ZM409.73 106.721C411.377 103.871 412.558 100.615 413.298 96.9787L409.378 96.1815C408.711 99.4597 407.666 102.297 406.266 104.72L409.73 106.721ZM413.291 97.0104C414.088 93.3957 414.48 89.5293 414.48 85.418H410.48C410.48 89.2754 410.112 92.8504 409.385 96.1497L413.291 97.0104ZM414.48 85.418V83.5723H410.48V85.418H414.48ZM414.48 83.5723C414.48 79.5739 414.087 75.7932 413.289 72.2364L409.386 73.1113C410.113 76.3513 410.48 79.8363 410.48 83.5723H414.48ZM413.298 72.2752C412.556 68.6279 411.34 65.362 409.625 62.5042L406.195 64.5622C407.645 66.9779 408.714 69.8057 409.378 73.0724L413.298 72.2752ZM409.651 62.5491C407.968 59.5707 405.709 57.2041 402.881 55.4936L400.811 58.9165C403.021 60.2529 404.806 62.1051 406.169 64.5173L409.651 62.5491ZM402.881 55.4936C399.988 53.7447 396.566 52.9199 392.705 52.9199V56.9199C395.993 56.9199 398.664 57.6186 400.811 58.9165L402.881 55.4936ZM392.705 52.9199C388.844 52.9199 385.422 53.7447 382.53 55.4936L384.599 58.9165C386.746 57.6186 389.417 56.9199 392.705 56.9199V52.9199ZM382.512 55.5045C379.752 57.2127 377.508 59.5678 375.775 62.5208L379.225 64.5456C380.656 62.108 382.455 60.2443 384.617 58.9056L382.512 55.5045ZM375.768 62.5326C374.121 65.3834 372.94 68.6394 372.2 72.2752L376.12 73.0724C376.787 69.7942 377.832 66.9565 379.232 64.5338L375.768 62.5326ZM372.202 72.2686C371.468 75.8145 371.105 79.5842 371.105 83.5723H375.105C375.105 79.826 375.446 76.33 376.119 73.079L372.202 72.2686ZM500.02 36.9023H502.02V34.9023H500.02V36.9023ZM500.02 54.832V56.832H502.02V54.832H500.02ZM444.648 54.832H442.648V56.832H444.648V54.832ZM444.648 36.9023V34.9023H442.648V36.9023H444.648ZM458.359 13.4355V11.4355H456.359V13.4355H458.359ZM483.672 13.4355H485.672V11.4355H483.672V13.4355ZM484.727 109.676L482.924 110.541L482.937 110.57L482.952 110.598L484.727 109.676ZM488.066 112.752L487.324 114.609L487.356 114.622L487.389 114.634L488.066 112.752ZM497.822 113.367L498.012 115.358L498.052 115.354L498.092 115.349L497.822 113.367ZM501.074 112.84L503.074 112.83L503.063 110.403L500.682 110.879L501.074 112.84ZM501.162 131.473L501.779 133.375L503.169 132.924L503.162 131.463L501.162 131.473ZM471.191 131.033L470.36 132.852L470.375 132.859L470.391 132.866L471.191 131.033ZM498.02 36.9023V54.832H502.02V36.9023H498.02ZM500.02 52.832H444.648V56.832H500.02V52.832ZM446.648 54.832V36.9023H442.648V54.832H446.648ZM444.648 38.9023H500.02V34.9023H444.648V38.9023ZM458.359 15.4355H483.672V11.4355H458.359V15.4355ZM481.672 13.4355V103.348H485.672V13.4355H481.672ZM481.672 103.348C481.672 106.22 482.03 108.68 482.924 110.541L486.53 108.81C486.017 107.741 485.672 105.983 485.672 103.348H481.672ZM482.952 110.598C483.924 112.467 485.392 113.836 487.324 114.609L488.809 110.895C487.811 110.496 487.053 109.815 486.501 108.753L482.952 110.598ZM487.389 114.634C489.143 115.265 491.237 115.543 493.604 115.543V111.543C491.517 111.543 489.92 111.293 488.744 110.87L487.389 114.634ZM493.604 115.543C495.232 115.543 496.704 115.483 498.012 115.358L497.633 111.376C496.48 111.486 495.139 111.543 493.604 111.543V115.543ZM498.092 115.349C499.406 115.17 500.534 114.988 501.466 114.801L500.682 110.879C499.857 111.044 498.817 111.213 497.552 111.386L498.092 115.349ZM499.074 112.849L499.162 131.482L503.162 131.463L503.074 112.83L499.074 112.849ZM500.545 129.57C498.484 130.239 496.241 130.773 493.81 131.169L494.452 135.117C497.06 134.692 499.504 134.113 501.779 133.375L500.545 129.57ZM493.81 131.169C491.414 131.558 488.74 131.758 485.781 131.758V135.758C488.916 135.758 491.808 135.547 494.452 135.117L493.81 131.169ZM485.781 131.758C480.43 131.758 475.849 130.885 471.992 129.2L470.391 132.866C474.854 134.815 480 135.758 485.781 135.758V131.758ZM472.023 129.214C468.33 127.526 465.484 124.849 463.457 121.114L459.942 123.023C462.367 127.491 465.85 130.79 470.36 132.852L472.023 129.214ZM463.457 121.114C461.443 117.405 460.359 112.378 460.359 105.896H456.359C456.359 112.775 457.502 118.529 459.942 123.023L463.457 121.114ZM460.359 105.896V13.4355H456.359V105.896H460.359Z" fill="#D9D9D9" mask="url(#path-1-outside-1_3001_119)"/>
</svg>
