<svg width="752" height="177" viewBox="0 0 752 177" fill="none" xmlns="http://www.w3.org/2000/svg">
<mask id="path-1-outside-1_799_1145" maskUnits="userSpaceOnUse" x="0" y="0" width="752" height="177" fill="black">
<rect fill="white" width="752" height="177"/>
<path d="M28.4629 9.03125V137H2.18359V9.03125H28.4629ZM76.3633 62.2051V137H51.0508V41.9023H74.7812L76.3633 62.2051ZM72.6719 86.1113H65.8164C65.8164 79.0801 66.7246 72.752 68.541 67.127C70.3574 61.4434 72.9062 56.6094 76.1875 52.625C79.4688 48.582 83.3652 45.5059 87.877 43.3965C92.4473 41.2285 97.5449 40.1445 103.17 40.1445C107.623 40.1445 111.695 40.7891 115.387 42.0781C119.078 43.3672 122.242 45.418 124.879 48.2305C127.574 51.043 129.625 54.7637 131.031 59.3926C132.496 64.0215 133.229 69.6758 133.229 76.3555V137H107.74V76.2676C107.74 72.0488 107.154 68.7676 105.982 66.4238C104.811 64.0801 103.082 62.4395 100.797 61.502C98.5703 60.5059 95.8164 60.0078 92.5352 60.0078C89.1367 60.0078 86.1777 60.6816 83.6582 62.0293C81.1973 63.377 79.1465 65.252 77.5059 67.6543C75.9238 69.998 74.7227 72.752 73.9023 75.916C73.082 79.0801 72.6719 82.4785 72.6719 86.1113ZM203.893 110.721C203.893 108.904 203.365 107.264 202.311 105.799C201.256 104.334 199.293 102.986 196.422 101.756C193.609 100.467 189.537 99.2949 184.205 98.2402C179.4 97.1855 174.918 95.8672 170.758 94.2852C166.656 92.6445 163.082 90.6816 160.035 88.3965C157.047 86.1113 154.703 83.416 153.004 80.3105C151.305 77.1465 150.455 73.543 150.455 69.5C150.455 65.5156 151.305 61.7656 153.004 58.25C154.762 54.7344 157.252 51.6289 160.475 48.9336C163.756 46.1797 167.74 44.041 172.428 42.5176C177.174 40.9355 182.506 40.1445 188.424 40.1445C196.686 40.1445 203.775 41.4629 209.693 44.0996C215.67 46.7363 220.24 50.3691 223.404 54.998C226.627 59.5684 228.238 64.7832 228.238 70.6426H202.926C202.926 68.1816 202.398 65.9844 201.344 64.0508C200.348 62.0586 198.766 60.5059 196.598 59.3926C194.488 58.2207 191.734 57.6348 188.336 57.6348C185.523 57.6348 183.092 58.1328 181.041 59.1289C178.99 60.0664 177.408 61.3555 176.295 62.9961C175.24 64.5781 174.713 66.3359 174.713 68.2695C174.713 69.7344 175.006 71.0527 175.592 72.2246C176.236 73.3379 177.262 74.3633 178.668 75.3008C180.074 76.2383 181.891 77.1172 184.117 77.9375C186.402 78.6992 189.215 79.4023 192.555 80.0469C199.41 81.4531 205.533 83.2988 210.924 85.584C216.314 87.8105 220.592 90.8574 223.756 94.7246C226.92 98.5332 228.502 103.543 228.502 109.754C228.502 113.973 227.564 117.84 225.689 121.355C223.814 124.871 221.119 127.947 217.604 130.584C214.088 133.162 209.869 135.184 204.947 136.648C200.084 138.055 194.605 138.758 188.512 138.758C179.664 138.758 172.164 137.176 166.012 134.012C159.918 130.848 155.289 126.834 152.125 121.971C149.02 117.049 147.467 112.01 147.467 106.854H171.461C171.578 110.311 172.457 113.094 174.098 115.203C175.797 117.312 177.936 118.836 180.514 119.773C183.15 120.711 185.992 121.18 189.039 121.18C192.32 121.18 195.045 120.74 197.213 119.861C199.381 118.924 201.021 117.693 202.135 116.17C203.307 114.588 203.893 112.771 203.893 110.721ZM271.656 41.9023V137H246.256V41.9023H271.656ZM244.674 17.1172C244.674 13.4258 245.963 10.3789 248.541 7.97656C251.119 5.57422 254.576 4.37305 258.912 4.37305C263.189 4.37305 266.617 5.57422 269.195 7.97656C271.832 10.3789 273.15 13.4258 273.15 17.1172C273.15 20.8086 271.832 23.8555 269.195 26.2578C266.617 28.6602 263.189 29.8613 258.912 29.8613C254.576 29.8613 251.119 28.6602 248.541 26.2578C245.963 23.8555 244.674 20.8086 244.674 17.1172ZM352.779 41.9023H375.719V133.836C375.719 142.508 373.785 149.861 369.918 155.896C366.109 161.99 360.777 166.59 353.922 169.695C347.066 172.859 339.098 174.441 330.016 174.441C326.031 174.441 321.812 173.914 317.359 172.859C312.965 171.805 308.746 170.164 304.703 167.938C300.719 165.711 297.379 162.898 294.684 159.5L305.846 144.559C308.775 147.957 312.174 150.594 316.041 152.469C319.908 154.402 324.186 155.369 328.873 155.369C333.443 155.369 337.311 154.52 340.475 152.82C343.639 151.18 346.07 148.748 347.77 145.525C349.469 142.361 350.318 138.523 350.318 134.012V63.875L352.779 41.9023ZM288.795 90.5938V88.748C288.795 81.4824 289.674 74.8906 291.432 68.9727C293.248 62.9961 295.797 57.8691 299.078 53.5918C302.418 49.3145 306.461 46.0039 311.207 43.6602C315.953 41.3164 321.314 40.1445 327.291 40.1445C333.619 40.1445 338.922 41.3164 343.199 43.6602C347.477 46.0039 350.992 49.3438 353.746 53.6797C356.5 57.957 358.639 63.0254 360.162 68.8848C361.744 74.6855 362.975 81.043 363.854 87.957V92C362.975 98.6211 361.656 104.773 359.898 110.457C358.141 116.141 355.826 121.121 352.955 125.398C350.084 129.617 346.51 132.898 342.232 135.242C338.014 137.586 332.975 138.758 327.115 138.758C321.256 138.758 315.953 137.557 311.207 135.154C306.52 132.752 302.506 129.383 299.166 125.047C295.826 120.711 293.248 115.613 291.432 109.754C289.674 103.895 288.795 97.5078 288.795 90.5938ZM314.107 88.748V90.5938C314.107 94.5195 314.488 98.1816 315.25 101.58C316.012 104.979 317.184 107.996 318.766 110.633C320.406 113.211 322.428 115.232 324.83 116.697C327.291 118.104 330.191 118.807 333.531 118.807C338.16 118.807 341.939 117.84 344.869 115.906C347.799 113.914 349.996 111.189 351.461 107.732C352.926 104.275 353.775 100.291 354.01 95.7793V84.2656C353.893 80.5742 353.395 77.2637 352.516 74.334C351.637 71.3457 350.406 68.7969 348.824 66.6875C347.242 64.5781 345.191 62.9375 342.672 61.7656C340.152 60.5938 337.164 60.0078 333.707 60.0078C330.367 60.0078 327.467 60.7695 325.006 62.293C322.604 63.7578 320.582 65.7793 318.941 68.3574C317.359 70.9355 316.158 73.9824 315.338 77.498C314.518 80.9551 314.107 84.7051 314.107 88.748ZM420.104 2V137H394.791V2H420.104ZM416.5 86.1113H409.557C409.615 79.4902 410.494 73.3965 412.193 67.8301C413.893 62.2051 416.324 57.3418 419.488 53.2402C422.652 49.0801 426.432 45.8574 430.826 43.5723C435.279 41.2871 440.201 40.1445 445.592 40.1445C450.279 40.1445 454.527 40.8184 458.336 42.166C462.203 43.4551 465.514 45.5645 468.268 48.4941C471.08 51.3652 473.248 55.1445 474.771 59.832C476.295 64.5195 477.057 70.2031 477.057 76.8828V137H451.568V76.707C451.568 72.4883 450.953 69.1777 449.723 66.7754C448.551 64.3145 446.822 62.5859 444.537 61.5898C442.311 60.5352 439.557 60.0078 436.275 60.0078C432.643 60.0078 429.537 60.6816 426.959 62.0293C424.439 63.377 422.418 65.252 420.895 67.6543C419.371 69.998 418.258 72.752 417.555 75.916C416.852 79.0801 416.5 82.4785 416.5 86.1113ZM542.887 41.9023V59.832H487.516V41.9023H542.887ZM501.227 18.4355H526.539V108.348C526.539 111.102 526.891 113.211 527.594 114.676C528.355 116.141 529.469 117.166 530.934 117.752C532.398 118.279 534.244 118.543 536.471 118.543C538.053 118.543 539.459 118.484 540.689 118.367C541.979 118.191 543.062 118.016 543.941 117.84L544.029 136.473C541.861 137.176 539.518 137.732 536.998 138.143C534.479 138.553 531.695 138.758 528.648 138.758C523.082 138.758 518.219 137.85 514.059 136.033C509.957 134.158 506.793 131.17 504.566 127.068C502.34 122.967 501.227 117.576 501.227 110.896V18.4355ZM677.887 94.5488H704.166C703.639 103.162 701.266 110.809 697.047 117.488C692.887 124.168 687.057 129.383 679.557 133.133C672.115 136.883 663.15 138.758 652.662 138.758C644.459 138.758 637.105 137.352 630.602 134.539C624.098 131.668 618.531 127.566 613.902 122.234C609.332 116.902 605.846 110.457 603.443 102.898C601.041 95.3398 599.84 86.873 599.84 77.498V68.6211C599.84 59.2461 601.07 50.7793 603.531 43.2207C606.051 35.6035 609.625 29.1289 614.254 23.7969C618.941 18.4648 624.537 14.3633 631.041 11.4922C637.545 8.62109 644.811 7.18555 652.838 7.18555C663.502 7.18555 672.496 9.11914 679.82 12.9863C687.203 16.8535 692.916 22.1855 696.959 28.9824C701.061 35.7793 703.521 43.5137 704.342 52.1855H677.975C677.682 47.0293 676.656 42.6641 674.898 39.0898C673.141 35.457 670.475 32.7324 666.9 30.916C663.385 29.041 658.697 28.1035 652.838 28.1035C648.443 28.1035 644.605 28.9238 641.324 30.5645C638.043 32.2051 635.289 34.6953 633.062 38.0352C630.836 41.375 629.166 45.5938 628.053 50.6914C626.998 55.7305 626.471 61.6484 626.471 68.4453V77.498C626.471 84.1191 626.969 89.9492 627.965 94.9883C628.961 99.9688 630.484 104.188 632.535 107.645C634.645 111.043 637.34 113.621 640.621 115.379C643.961 117.078 647.975 117.928 652.662 117.928C658.17 117.928 662.711 117.049 666.285 115.291C669.859 113.533 672.584 110.926 674.459 107.469C676.393 104.012 677.535 99.7051 677.887 94.5488ZM749.518 9.03125V137H723.238V9.03125H749.518Z"/>
</mask>
<path d="M28.4629 9.03125H30.4629V7.03125H28.4629V9.03125ZM28.4629 137V139H30.4629V137H28.4629ZM2.18359 137H0.183594V139H2.18359V137ZM2.18359 9.03125V7.03125H0.183594V9.03125H2.18359ZM26.4629 9.03125V137H30.4629V9.03125H26.4629ZM28.4629 135H2.18359V139H28.4629V135ZM4.18359 137V9.03125H0.183594V137H4.18359ZM2.18359 11.0312H28.4629V7.03125H2.18359V11.0312ZM76.3633 62.2051H78.3633V62.1273L78.3572 62.0497L76.3633 62.2051ZM76.3633 137V139H78.3633V137H76.3633ZM51.0508 137H49.0508V139H51.0508V137ZM51.0508 41.9023V39.9023H49.0508V41.9023H51.0508ZM74.7812 41.9023L76.7752 41.747L76.6315 39.9023H74.7812V41.9023ZM72.6719 86.1113V88.1113H74.6719V86.1113H72.6719ZM65.8164 86.1113H63.8164V88.1113H65.8164V86.1113ZM68.541 67.127L70.4443 67.7415L70.4461 67.7358L68.541 67.127ZM76.1875 52.625L77.7314 53.8964L77.7359 53.8909L77.7404 53.8853L76.1875 52.625ZM87.877 43.3965L88.724 45.2083L88.7341 45.2035L87.877 43.3965ZM124.879 48.2305L123.42 49.5984L123.427 49.6064L123.435 49.6143L124.879 48.2305ZM131.031 59.3926L129.118 59.9739L129.121 59.985L129.124 59.996L131.031 59.3926ZM133.229 137V139H135.229V137H133.229ZM107.74 137H105.74V139H107.74V137ZM100.797 61.502L99.9801 63.3276L100.009 63.3404L100.038 63.3523L100.797 61.502ZM83.6582 62.0293L82.7149 60.2657L82.7062 60.2704L82.6976 60.2751L83.6582 62.0293ZM77.5059 67.6543L75.8542 66.5264L75.8482 66.5354L77.5059 67.6543ZM74.3633 62.2051V137H78.3633V62.2051H74.3633ZM76.3633 135H51.0508V139H76.3633V135ZM53.0508 137V41.9023H49.0508V137H53.0508ZM51.0508 43.9023H74.7812V39.9023H51.0508V43.9023ZM72.7873 42.0577L74.3693 62.3605L78.3572 62.0497L76.7752 41.747L72.7873 42.0577ZM72.6719 84.1113H65.8164V88.1113H72.6719V84.1113ZM67.8164 86.1113C67.8164 79.2504 68.7028 73.1345 70.4442 67.7415L66.6378 66.5124C64.7464 72.3694 63.8164 78.9098 63.8164 86.1113H67.8164ZM70.4461 67.7358C72.1971 62.2567 74.6346 57.6568 77.7314 53.8964L74.6436 51.3536C71.1779 55.562 68.5177 60.63 66.6359 66.5181L70.4461 67.7358ZM77.7404 53.8853C80.84 50.0662 84.4988 47.1837 88.724 45.2082L87.0299 41.5847C82.2317 43.828 78.0975 47.0979 74.6346 51.3647L77.7404 53.8853ZM88.7341 45.2035C93.0078 43.1762 97.8079 42.1445 103.17 42.1445V38.1445C97.2819 38.1445 91.8867 39.2808 87.0198 41.5895L88.7341 45.2035ZM103.17 42.1445C107.429 42.1445 111.275 42.7608 114.727 43.9663L116.046 40.1899C112.116 38.8174 107.817 38.1445 103.17 38.1445V42.1445ZM114.727 43.9663C118.119 45.1506 121.007 47.0247 123.42 49.5984L126.338 46.8626C123.477 43.8112 120.038 41.5838 116.046 40.1899L114.727 43.9663ZM123.435 49.6143C125.867 52.1516 127.781 55.5744 129.118 59.9739L132.945 58.8112C131.469 53.9529 129.282 49.9343 126.323 46.8467L123.435 49.6143ZM129.124 59.996C130.509 64.3719 131.229 69.8094 131.229 76.3555H135.229C135.229 69.5422 134.483 63.6711 132.938 58.7892L129.124 59.996ZM131.229 76.3555V137H135.229V76.3555H131.229ZM133.229 135H107.74V139H133.229V135ZM109.74 137V76.2676H105.74V137H109.74ZM109.74 76.2676C109.74 71.9069 109.142 68.2701 107.771 65.5294L104.194 67.3183C105.167 69.2651 105.74 72.1908 105.74 76.2676H109.74ZM107.771 65.5294C106.397 62.7816 104.317 60.7845 101.556 59.6516L100.038 63.3523C101.847 64.0944 103.224 65.3785 104.194 67.3183L107.771 65.5294ZM101.614 59.6763C99.0577 58.5329 96.0059 58.0078 92.5352 58.0078V62.0078C95.6269 62.0078 98.0829 62.4788 99.9801 63.3276L101.614 59.6763ZM92.5352 58.0078C88.8698 58.0078 85.5749 58.736 82.7149 60.2657L84.6015 63.7929C86.7806 62.6273 89.4037 62.0078 92.5352 62.0078V58.0078ZM82.6976 60.2751C79.9498 61.7798 77.6659 63.8736 75.8543 66.5264L79.1575 68.7822C80.6271 66.6303 82.4447 64.9741 84.6188 63.7835L82.6976 60.2751ZM75.8482 66.5354C74.1209 69.0943 72.835 72.0637 71.9663 75.4141L75.8383 76.4179C76.6104 73.4402 77.7268 70.9018 79.1636 68.7732L75.8482 66.5354ZM71.9663 75.4141C71.0991 78.7591 70.6719 82.3277 70.6719 86.1113H74.6719C74.6719 82.6293 75.0649 79.401 75.8383 76.4179L71.9663 75.4141ZM196.422 101.756L195.589 103.574L195.611 103.584L195.634 103.594L196.422 101.756ZM184.205 98.2402L183.776 100.194L183.797 100.198L183.817 100.202L184.205 98.2402ZM170.758 94.2852L170.015 96.1421L170.031 96.1485L170.047 96.1545L170.758 94.2852ZM160.035 88.3965L158.82 89.9852L158.828 89.9909L158.835 89.9965L160.035 88.3965ZM153.004 80.3105L151.242 81.2568L151.246 81.2637L151.249 81.2706L153.004 80.3105ZM153.004 58.25L151.215 57.3556L151.209 57.3676L151.203 57.3797L153.004 58.25ZM160.475 48.9336L161.758 50.4677L161.76 50.4655L160.475 48.9336ZM172.428 42.5176L173.046 44.4196L173.053 44.4173L173.06 44.4149L172.428 42.5176ZM209.693 44.0996L208.879 45.9265L208.886 45.9294L209.693 44.0996ZM223.404 54.998L221.753 56.1267L221.761 56.1387L221.77 56.1506L223.404 54.998ZM228.238 70.6426V72.6426H230.238V70.6426H228.238ZM202.926 70.6426H200.926V72.6426H202.926V70.6426ZM201.344 64.0508L199.555 64.9452L199.571 64.9771L199.588 65.0085L201.344 64.0508ZM196.598 59.3926L195.626 61.1409L195.655 61.1568L195.684 61.1717L196.598 59.3926ZM181.041 59.1289L181.873 60.9479L181.894 60.9381L181.915 60.9279L181.041 59.1289ZM176.295 62.9961L174.64 61.8731L174.635 61.8799L174.631 61.8867L176.295 62.9961ZM175.592 72.2246L173.803 73.119L173.83 73.1737L173.861 73.2267L175.592 72.2246ZM184.117 77.9375L183.426 79.8142L183.455 79.825L183.485 79.8349L184.117 77.9375ZM192.555 80.0469L192.957 78.0877L192.945 78.0853L192.934 78.0831L192.555 80.0469ZM210.924 85.584L210.143 87.4254L210.152 87.429L210.16 87.4325L210.924 85.584ZM223.756 94.7246L222.208 95.9911L222.213 95.9969L222.217 96.0026L223.756 94.7246ZM217.604 130.584L218.786 132.197L218.795 132.19L218.804 132.184L217.604 130.584ZM204.947 136.648L205.503 138.57L205.51 138.568L205.518 138.565L204.947 136.648ZM166.012 134.012L165.09 135.787L165.097 135.79L166.012 134.012ZM152.125 121.971L150.434 123.038L150.441 123.05L150.449 123.061L152.125 121.971ZM147.467 106.854V104.854H145.467V106.854H147.467ZM171.461 106.854L173.46 106.786L173.394 104.854H171.461V106.854ZM174.098 115.203L172.519 116.431L172.529 116.444L172.54 116.458L174.098 115.203ZM180.514 119.773L179.83 121.653L179.837 121.655L179.844 121.658L180.514 119.773ZM197.213 119.861L197.964 121.715L197.986 121.706L198.007 121.697L197.213 119.861ZM202.135 116.17L200.528 114.979L200.52 114.99L202.135 116.17ZM205.893 110.721C205.893 108.488 205.235 106.438 203.934 104.63L200.687 106.967C201.495 108.09 201.893 109.321 201.893 110.721H205.893ZM203.934 104.63C202.563 102.726 200.201 101.2 197.21 99.9176L195.634 103.594C198.385 104.773 199.949 105.942 200.687 106.967L203.934 104.63ZM197.255 99.9377C194.232 98.5523 189.982 97.3442 184.593 96.2782L183.817 100.202C189.092 101.246 192.986 102.381 195.589 103.574L197.255 99.9377ZM184.634 96.2867C179.915 95.251 175.528 93.9595 171.469 92.4158L170.047 96.1545C174.308 97.7749 178.885 99.1201 183.776 100.194L184.634 96.2867ZM171.501 92.4282C167.537 90.8426 164.121 88.9611 161.235 86.7965L158.835 89.9965C162.043 92.4022 165.776 94.4464 170.015 96.1421L171.501 92.4282ZM161.25 86.8078C158.469 84.6814 156.315 82.1959 154.758 79.3505L151.249 81.2706C153.091 84.6361 155.624 87.5413 158.82 89.9852L161.25 86.8078ZM154.766 79.3643C153.242 76.5261 152.455 73.2548 152.455 69.5H148.455C148.455 73.8311 149.368 77.7668 151.242 81.2568L154.766 79.3643ZM152.455 69.5C152.455 65.8107 153.239 62.3589 154.805 59.1203L151.203 57.3797C149.37 61.1723 148.455 65.2206 148.455 69.5H152.455ZM154.793 59.1444C156.419 55.8911 158.731 52.9991 161.758 50.4677L159.191 47.3994C155.773 50.2587 153.104 53.5776 151.215 57.3556L154.793 59.1444ZM161.76 50.4655C164.818 47.8997 168.566 45.8755 173.046 44.4196L171.81 40.6155C166.914 42.2065 162.694 44.4597 159.189 47.4016L161.76 50.4655ZM173.06 44.4149C177.569 42.912 182.683 42.1445 188.424 42.1445V38.1445C182.329 38.1445 176.779 38.9591 171.795 40.6202L173.06 44.4149ZM188.424 42.1445C196.479 42.1445 203.278 43.4307 208.879 45.9265L210.507 42.2727C204.273 39.4951 196.892 38.1445 188.424 38.1445V42.1445ZM208.886 45.9294C214.579 48.4409 218.832 51.8535 221.753 56.1267L225.055 53.8694C221.648 48.8848 216.761 45.0317 210.501 42.2698L208.886 45.9294ZM221.77 56.1506C224.743 60.3669 226.238 65.175 226.238 70.6426H230.238C230.238 64.3914 228.511 58.7698 225.039 53.8455L221.77 56.1506ZM228.238 68.6426H202.926V72.6426H228.238V68.6426ZM204.926 70.6426C204.926 67.887 204.333 65.3536 203.1 63.0931L199.588 65.0085C200.464 66.6151 200.926 68.4763 200.926 70.6426H204.926ZM203.133 63.1564C201.928 60.7476 200.02 58.9018 197.511 57.6134L195.684 61.1717C197.511 62.11 198.767 63.3696 199.555 64.9452L203.133 63.1564ZM197.569 57.6443C195.066 56.2536 191.943 55.6348 188.336 55.6348V59.6348C191.526 59.6348 193.911 60.1878 195.626 61.1409L197.569 57.6443ZM188.336 55.6348C185.29 55.6348 182.546 56.1743 180.167 57.3299L181.915 60.9279C183.637 60.0913 185.757 59.6348 188.336 59.6348V55.6348ZM180.209 57.31C177.872 58.3783 175.986 59.8896 174.64 61.8731L177.95 64.1191C178.831 62.8213 180.108 61.7545 181.873 60.9479L180.209 57.31ZM174.631 61.8867C173.353 63.8031 172.713 65.9482 172.713 68.2695H176.713C176.713 66.7237 177.127 65.3531 177.959 64.1055L174.631 61.8867ZM172.713 68.2695C172.713 70.0078 173.062 71.6381 173.803 73.119L177.381 71.3302C176.949 70.4674 176.713 69.4609 176.713 68.2695H172.713ZM173.861 73.2267C174.7 74.6752 175.974 75.9085 177.559 76.9649L179.777 73.6367C178.549 72.818 177.773 72.0006 177.323 71.2225L173.861 73.2267ZM177.559 76.9649C179.136 78.0164 181.106 78.9596 183.426 79.8142L184.809 76.0608C182.675 75.2748 181.013 74.4601 179.777 73.6367L177.559 76.9649ZM183.485 79.8349C185.879 80.6329 188.782 81.3557 192.176 82.0106L192.934 78.0831C189.648 77.449 186.926 76.7655 184.75 76.0401L183.485 79.8349ZM192.153 82.0061C198.903 83.3907 204.896 85.2008 210.143 87.4254L211.704 83.7426C206.171 81.3969 199.918 79.5156 192.957 78.0877L192.153 82.0061ZM210.16 87.4325C215.297 89.554 219.286 92.4195 222.208 95.9911L225.304 93.4581C221.898 89.2953 217.332 86.067 211.687 83.7355L210.16 87.4325ZM222.217 96.0026C225.014 99.3684 226.502 103.888 226.502 109.754H230.502C230.502 103.198 228.826 97.698 225.294 93.4466L222.217 96.0026ZM226.502 109.754C226.502 113.664 225.636 117.205 223.925 120.414L227.454 122.297C229.493 118.474 230.502 114.281 230.502 109.754H226.502ZM223.925 120.414C222.201 123.646 219.709 126.505 216.404 128.984L218.804 132.184C222.529 129.39 225.428 126.096 227.454 122.297L223.925 120.414ZM216.421 128.971C213.12 131.392 209.117 133.321 204.377 134.732L205.518 138.565C210.621 137.046 215.056 134.932 218.786 132.197L216.421 128.971ZM204.392 134.727C199.741 136.072 194.454 136.758 188.512 136.758V140.758C194.757 140.758 200.427 140.038 205.503 138.57L204.392 134.727ZM188.512 136.758C179.896 136.758 172.728 135.217 166.926 132.233L165.097 135.79C171.6 139.135 179.432 140.758 188.512 140.758V136.758ZM166.933 132.237C161.09 129.202 156.745 125.405 153.801 120.88L150.449 123.061C153.833 128.263 158.746 132.493 165.09 135.787L166.933 132.237ZM153.816 120.903C150.886 116.259 149.467 111.585 149.467 106.854H145.467C145.467 112.435 147.153 117.839 150.434 123.038L153.816 120.903ZM147.467 108.854H171.461V104.854H147.467V108.854ZM169.462 106.921C169.589 110.676 170.553 113.903 172.519 116.431L175.676 113.975C174.362 112.285 173.567 109.945 173.46 106.786L169.462 106.921ZM172.54 116.458C174.471 118.855 176.914 120.593 179.83 121.653L181.197 117.894C178.957 117.079 177.122 115.77 175.655 113.948L172.54 116.458ZM179.844 121.658C182.714 122.678 185.784 123.18 189.039 123.18V119.18C186.2 119.18 183.587 118.744 181.184 117.889L179.844 121.658ZM189.039 123.18C192.482 123.18 195.482 122.721 197.964 121.715L196.461 118.008C194.608 118.759 192.159 119.18 189.039 119.18V123.18ZM198.007 121.697C200.42 120.653 202.379 119.225 203.75 117.35L200.52 114.99C199.664 116.161 198.341 117.194 196.419 118.026L198.007 121.697ZM203.742 117.36C205.18 115.419 205.893 113.181 205.893 110.721H201.893C201.893 112.362 201.433 113.757 200.528 114.979L203.742 117.36ZM271.656 41.9023H273.656V39.9023H271.656V41.9023ZM271.656 137V139H273.656V137H271.656ZM246.256 137H244.256V139H246.256V137ZM246.256 41.9023V39.9023H244.256V41.9023H246.256ZM269.195 7.97656L267.832 9.43978L267.84 9.44741L267.848 9.45496L269.195 7.97656ZM269.195 26.2578L267.848 24.7794L267.84 24.787L267.832 24.7946L269.195 26.2578ZM269.656 41.9023V137H273.656V41.9023H269.656ZM271.656 135H246.256V139H271.656V135ZM248.256 137V41.9023H244.256V137H248.256ZM246.256 43.9023H271.656V39.9023H246.256V43.9023ZM246.674 17.1172C246.674 13.951 247.754 11.444 249.904 9.43978L247.178 6.51335C244.172 9.31379 242.674 12.9006 242.674 17.1172H246.674ZM249.904 9.43978C252.032 7.45771 254.96 6.37305 258.912 6.37305V2.37305C254.193 2.37305 250.207 3.69073 247.178 6.51335L249.904 9.43978ZM258.912 6.37305C262.798 6.37305 265.7 7.45305 267.832 9.43978L270.559 6.51335C267.535 3.69538 263.581 2.37305 258.912 2.37305V6.37305ZM267.848 9.45496C270.053 11.4636 271.15 13.9662 271.15 17.1172H275.15C275.15 12.8853 273.611 9.29424 270.542 6.49817L267.848 9.45496ZM271.15 17.1172C271.15 20.2681 270.053 22.7708 267.848 24.7794L270.542 27.7362C273.611 24.9401 275.15 21.3491 275.15 17.1172H271.15ZM267.832 24.7946C265.7 26.7813 262.798 27.8613 258.912 27.8613V31.8613C263.581 31.8613 267.535 30.539 270.559 27.721L267.832 24.7946ZM258.912 27.8613C254.96 27.8613 252.032 26.7767 249.904 24.7946L247.178 27.721C250.207 30.5436 254.193 31.8613 258.912 31.8613V27.8613ZM249.904 24.7946C247.754 22.7903 246.674 20.2834 246.674 17.1172H242.674C242.674 21.3338 244.172 24.9206 247.178 27.721L249.904 24.7946ZM352.779 41.9023V39.9023H350.991L350.792 41.6797L352.779 41.9023ZM375.719 41.9023H377.719V39.9023H375.719V41.9023ZM369.918 155.896L368.234 154.817L368.228 154.827L368.222 154.836L369.918 155.896ZM353.922 169.695L353.097 167.873L353.084 167.879L353.922 169.695ZM317.359 172.859L316.893 174.804L316.898 174.806L317.359 172.859ZM304.703 167.938L303.727 169.683L303.738 169.689L304.703 167.938ZM294.684 159.5L293.081 158.303L292.16 159.536L293.117 160.743L294.684 159.5ZM305.846 144.559L307.361 143.253L305.734 141.366L304.243 143.362L305.846 144.559ZM316.041 152.469L316.935 150.68L316.925 150.674L316.914 150.669L316.041 152.469ZM340.475 152.82L339.554 151.045L339.541 151.051L339.528 151.058L340.475 152.82ZM347.77 145.525L346.008 144.579L346.004 144.586L346 144.593L347.77 145.525ZM350.318 63.875L348.331 63.6524L348.318 63.7633V63.875H350.318ZM291.432 68.9727L289.518 68.3911L289.514 68.4032L291.432 68.9727ZM299.078 53.5918L297.502 52.3609L297.496 52.3677L297.491 52.3745L299.078 53.5918ZM353.746 53.6797L352.058 54.752L352.064 54.7624L353.746 53.6797ZM360.162 68.8848L358.226 69.388L358.229 69.3995L358.233 69.411L360.162 68.8848ZM363.854 87.957H365.854V87.8304L365.838 87.7048L363.854 87.957ZM363.854 92L365.836 92.2632L365.854 92.1322V92H363.854ZM352.955 125.398L354.609 126.524L354.616 126.513L352.955 125.398ZM342.232 135.242L341.271 133.488L341.261 133.494L342.232 135.242ZM311.207 135.154L310.295 136.934L310.304 136.939L311.207 135.154ZM291.432 109.754L289.516 110.329L289.519 110.337L289.521 110.346L291.432 109.754ZM318.766 110.633L317.051 111.662L317.064 111.684L317.078 111.707L318.766 110.633ZM324.83 116.697L323.789 118.405L323.813 118.42L323.838 118.434L324.83 116.697ZM344.869 115.906L345.971 117.575L345.982 117.568L345.994 117.56L344.869 115.906ZM354.01 95.7793L356.007 95.8831L356.01 95.8312V95.7793H354.01ZM354.01 84.2656H356.01V84.2339L356.009 84.2022L354.01 84.2656ZM352.516 74.334L350.597 74.8983L350.6 74.9087L352.516 74.334ZM325.006 62.293L326.047 64.0006L326.059 63.9935L325.006 62.293ZM318.941 68.3574L317.254 67.2837L317.245 67.2975L317.237 67.3114L318.941 68.3574ZM315.338 77.498L317.284 77.9598L317.286 77.9525L315.338 77.498ZM352.779 43.9023H375.719V39.9023H352.779V43.9023ZM373.719 41.9023V133.836H377.719V41.9023H373.719ZM373.719 133.836C373.719 142.206 371.855 149.166 368.234 154.817L371.602 156.976C375.715 150.556 377.719 142.809 377.719 133.836H373.719ZM368.222 154.836C364.632 160.58 359.611 164.923 353.097 167.874L354.747 171.517C361.944 168.257 367.586 163.401 371.614 156.956L368.222 154.836ZM353.084 167.879C346.539 170.9 338.866 172.441 330.016 172.441V176.441C339.329 176.441 347.594 174.819 354.76 171.511L353.084 167.879ZM330.016 172.441C326.207 172.441 322.144 171.937 317.82 170.913L316.898 174.806C321.481 175.891 325.855 176.441 330.016 176.441V172.441ZM317.826 170.915C313.609 169.903 309.558 168.328 305.668 166.186L303.738 169.689C307.935 172 312.321 173.707 316.893 174.804L317.826 170.915ZM305.679 166.192C301.91 164.086 298.775 161.44 296.251 158.257L293.117 160.743C295.983 164.357 299.527 167.336 303.727 169.683L305.679 166.192ZM296.286 160.697L307.448 145.756L304.243 143.362L293.081 158.303L296.286 160.697ZM304.331 145.864C307.431 149.46 311.045 152.269 315.168 154.268L316.914 150.669C313.303 148.918 310.12 146.454 307.361 143.253L304.331 145.864ZM315.147 154.258C319.314 156.341 323.902 157.369 328.873 157.369V153.369C324.469 153.369 320.502 152.463 316.935 150.68L315.147 154.258ZM328.873 157.369C333.686 157.369 337.897 156.475 341.421 154.582L339.528 151.058C336.724 152.564 333.201 153.369 328.873 153.369V157.369ZM341.395 154.596C344.93 152.763 347.654 150.033 349.539 146.458L346 144.593C344.487 147.463 342.347 149.596 339.554 151.045L341.395 154.596ZM349.532 146.472C351.422 142.951 352.318 138.771 352.318 134.012H348.318C348.318 138.276 347.515 141.771 346.008 144.579L349.532 146.472ZM352.318 134.012V63.875H348.318V134.012H352.318ZM352.306 64.0976L354.767 42.125L350.792 41.6797L348.331 63.6524L352.306 64.0976ZM290.795 90.5938V88.748H286.795V90.5938H290.795ZM290.795 88.748C290.795 81.6421 291.655 75.246 293.349 69.5421L289.514 68.4032C287.693 74.5353 286.795 81.3227 286.795 88.748H290.795ZM293.345 69.5542C295.103 63.7716 297.551 58.8682 300.665 54.8091L297.491 52.3745C294.043 56.8701 291.393 62.2206 289.518 68.3911L293.345 69.5542ZM300.655 54.8227C303.814 50.7762 307.623 47.6606 312.093 45.4534L310.321 41.8669C305.299 44.3472 301.022 47.8527 297.502 52.3609L300.655 54.8227ZM312.093 45.4534C316.53 43.2623 321.582 42.1445 327.291 42.1445V38.1445C321.047 38.1445 315.377 39.3705 310.321 41.8669L312.093 45.4534ZM327.291 42.1445C333.38 42.1445 338.33 43.2728 342.238 45.4141L344.16 41.9062C339.514 39.36 333.858 38.1445 327.291 38.1445V42.1445ZM342.238 45.4141C346.204 47.5869 349.475 50.6853 352.058 54.752L355.434 52.6074C352.509 48.0022 348.75 44.4209 344.16 41.9062L342.238 45.4141ZM352.064 54.7624C354.684 58.8311 356.747 63.6961 358.226 69.388L362.098 68.3815C360.531 62.3546 358.316 57.083 355.428 52.597L352.064 54.7624ZM358.233 69.411C359.787 75.109 361.001 81.3735 361.869 88.2092L365.838 87.7048C364.949 80.7125 363.702 74.2621 362.092 68.3585L358.233 69.411ZM361.854 87.957V92H365.854V87.957H361.854ZM361.871 91.7368C361.005 98.2601 359.709 104.302 357.988 109.866L361.809 111.048C363.604 105.245 364.944 98.9821 365.836 92.2632L361.871 91.7368ZM357.988 109.866C356.279 115.392 354.042 120.191 351.294 124.284L354.616 126.513C357.61 122.052 360.003 116.889 361.809 111.048L357.988 109.866ZM351.302 124.273C348.6 128.243 345.259 131.303 341.271 133.488L343.193 136.996C347.761 134.493 351.568 130.991 354.609 126.524L351.302 124.273ZM341.261 133.494C337.397 135.641 332.707 136.758 327.115 136.758V140.758C333.242 140.758 338.63 139.531 343.204 136.991L341.261 133.494ZM327.115 136.758C321.537 136.758 316.549 135.617 312.11 133.37L310.304 136.939C315.357 139.497 320.974 140.758 327.115 140.758V136.758ZM312.119 133.374C307.705 131.112 303.917 127.938 300.75 123.826L297.582 126.267C301.094 130.828 305.334 134.392 310.295 136.934L312.119 133.374ZM300.75 123.826C297.572 119.7 295.096 114.821 293.342 109.162L289.521 110.346C291.4 116.405 294.08 121.722 297.582 126.267L300.75 123.826ZM293.347 109.179C291.652 103.529 290.795 97.3381 290.795 90.5938H286.795C286.795 97.6775 287.696 104.26 289.516 110.329L293.347 109.179ZM312.107 88.748V90.5938H316.107V88.748H312.107ZM312.107 90.5938C312.107 94.6484 312.501 98.4587 313.298 102.018L317.202 101.143C316.476 97.9046 316.107 94.3907 316.107 90.5938H312.107ZM313.298 102.018C314.101 105.597 315.345 108.819 317.051 111.662L320.481 109.604C319.022 107.173 317.923 104.36 317.202 101.143L313.298 102.018ZM317.078 111.707C318.869 114.52 321.104 116.768 323.789 118.405L325.871 114.99C323.752 113.697 321.944 111.902 320.453 109.559L317.078 111.707ZM323.838 118.434C326.651 120.041 329.906 120.807 333.531 120.807V116.807C330.477 116.807 327.931 116.166 325.822 114.961L323.838 118.434ZM333.531 120.807C338.429 120.807 342.625 119.784 345.971 117.575L343.767 114.237C341.254 115.896 337.891 116.807 333.531 116.807V120.807ZM345.994 117.56C349.261 115.339 351.697 112.302 353.302 108.513L349.619 106.952C348.295 110.077 346.337 112.49 343.745 114.252L345.994 117.56ZM353.302 108.513C354.875 104.802 355.763 100.582 356.007 95.8831L352.012 95.6755C351.788 100 350.977 103.748 349.619 106.952L353.302 108.513ZM356.01 95.7793V84.2656H352.01V95.7793H356.01ZM356.009 84.2022C355.887 80.372 355.369 76.8852 354.431 73.7593L350.6 74.9087C351.42 77.6422 351.898 80.7764 352.011 84.3291L356.009 84.2022ZM354.434 73.7697C353.5 70.5928 352.173 67.8192 350.424 65.4875L347.224 67.8875C348.639 69.7745 349.773 72.0986 350.597 74.8983L354.434 73.7697ZM350.424 65.4875C348.634 63.1001 346.317 61.2553 343.515 59.9522L341.828 63.5791C344.066 64.6197 345.851 66.0561 347.224 67.8875L350.424 65.4875ZM343.515 59.9522C340.675 58.6312 337.386 58.0078 333.707 58.0078V62.0078C336.942 62.0078 339.629 62.5563 341.828 63.5791L343.515 59.9522ZM333.707 58.0078C330.054 58.0078 326.777 58.8446 323.953 60.5924L326.059 63.9935C328.157 62.6944 330.681 62.0078 333.707 62.0078V58.0078ZM323.965 60.5854C321.279 62.2227 319.044 64.4703 317.254 67.2837L320.629 69.4312C322.12 67.0883 323.928 65.2929 326.047 64.0006L323.965 60.5854ZM317.237 67.3114C315.523 70.1038 314.25 73.3583 313.39 77.0436L317.286 77.9525C318.066 74.6066 319.196 71.7673 320.646 69.4035L317.237 67.3114ZM313.392 77.0363C312.531 80.6637 312.107 84.5705 312.107 88.748H316.107C316.107 84.8397 316.504 81.2465 317.284 77.9598L313.392 77.0363ZM420.104 2H422.104V0H420.104V2ZM420.104 137V139H422.104V137H420.104ZM394.791 137H392.791V139H394.791V137ZM394.791 2V0H392.791V2H394.791ZM416.5 86.1113V88.1113H418.5V86.1113H416.5ZM409.557 86.1113L407.557 86.0936L407.539 88.1113H409.557V86.1113ZM412.193 67.8301L414.106 68.414L414.108 68.4084L412.193 67.8301ZM419.488 53.2402L421.072 54.4619L421.08 54.451L419.488 53.2402ZM430.826 43.5723L429.913 41.7928L429.903 41.7978L430.826 43.5723ZM458.336 42.166L457.669 44.0515L457.686 44.0576L457.703 44.0634L458.336 42.166ZM468.268 48.4941L466.81 49.864L466.824 49.879L466.839 49.8937L468.268 48.4941ZM477.057 137V139H479.057V137H477.057ZM451.568 137H449.568V139H451.568V137ZM449.723 66.7754L447.917 67.6353L447.929 67.6614L447.943 67.6871L449.723 66.7754ZM444.537 61.5898L443.681 63.3973L443.709 63.4107L443.738 63.4232L444.537 61.5898ZM426.959 62.0293L426.032 60.2568L426.024 60.2612L426.016 60.2657L426.959 62.0293ZM420.895 67.6543L422.571 68.7443L422.578 68.7349L422.584 68.7254L420.895 67.6543ZM418.104 2V137H422.104V2H418.104ZM420.104 135H394.791V139H420.104V135ZM396.791 137V2H392.791V137H396.791ZM394.791 4H420.104V0H394.791V4ZM416.5 84.1113H409.557V88.1113H416.5V84.1113ZM411.557 86.129C411.614 79.674 412.47 73.7736 414.106 68.414L410.28 67.2462C408.518 73.0194 407.617 79.3065 407.557 86.0936L411.557 86.129ZM414.108 68.4084C415.746 62.9852 418.075 58.3468 421.072 54.4618L417.905 52.0186C414.574 56.3368 412.039 61.425 410.279 67.2517L414.108 68.4084ZM421.08 54.451C424.076 50.5125 427.631 47.4882 431.749 45.3467L429.903 41.7978C425.233 44.2267 421.229 47.6476 417.896 52.0295L421.08 54.451ZM431.739 45.3517C435.888 43.2225 440.494 42.1445 445.592 42.1445V38.1445C439.909 38.1445 434.67 39.3517 429.913 41.7929L431.739 45.3517ZM445.592 42.1445C450.088 42.1445 454.106 42.7907 457.669 44.0515L459.003 40.2806C454.949 38.846 450.471 38.1445 445.592 38.1445V42.1445ZM457.703 44.0634C461.261 45.2492 464.287 47.1792 466.81 49.864L469.725 47.1243C466.741 43.9497 463.145 41.661 458.968 40.2686L457.703 44.0634ZM466.839 49.8937C469.392 52.5001 471.42 55.9909 472.869 60.4502L476.674 59.2139C475.076 54.2981 472.768 50.2304 469.696 47.0946L466.839 49.8937ZM472.869 60.4502C474.31 64.8814 475.057 70.3437 475.057 76.8828H479.057C479.057 70.0626 478.28 64.1577 476.674 59.2139L472.869 60.4502ZM475.057 76.8828V137H479.057V76.8828H475.057ZM477.057 135H451.568V139H477.057V135ZM453.568 137V76.707H449.568V137H453.568ZM453.568 76.707C453.568 72.3323 452.937 68.6632 451.503 65.8636L447.943 67.6871C448.97 69.6923 449.568 72.6443 449.568 76.707H453.568ZM451.528 65.9155C450.17 63.0632 448.106 60.9637 445.336 59.7565L443.738 63.4232C445.539 64.2082 446.931 65.5657 447.917 67.6353L451.528 65.9155ZM445.393 59.7824C442.826 58.5662 439.759 58.0078 436.275 58.0078V62.0078C439.354 62.0078 441.795 62.5042 443.681 63.3973L445.393 59.7824ZM436.275 58.0078C432.399 58.0078 428.959 58.7271 426.032 60.2568L427.885 63.8017C430.115 62.6362 432.887 62.0078 436.275 62.0078V58.0078ZM426.016 60.2657C423.193 61.7753 420.915 63.8882 419.206 66.5832L422.584 68.7254C423.921 66.6157 425.685 64.9786 427.902 63.7929L426.016 60.2657ZM419.218 66.5643C417.545 69.1378 416.349 72.1213 415.602 75.4822L419.507 76.3499C420.166 73.3826 421.197 70.8583 422.571 68.7443L419.218 66.5643ZM415.602 75.4822C414.864 78.8046 414.5 82.3498 414.5 86.1113H418.5C418.5 82.6072 418.839 79.3556 419.507 76.3499L415.602 75.4822ZM542.887 41.9023H544.887V39.9023H542.887V41.9023ZM542.887 59.832V61.832H544.887V59.832H542.887ZM487.516 59.832H485.516V61.832H487.516V59.832ZM487.516 41.9023V39.9023H485.516V41.9023H487.516ZM501.227 18.4355V16.4355H499.227V18.4355H501.227ZM526.539 18.4355H528.539V16.4355H526.539V18.4355ZM527.594 114.676L525.791 115.541L525.805 115.57L525.819 115.598L527.594 114.676ZM530.934 117.752L530.191 119.609L530.223 119.622L530.256 119.634L530.934 117.752ZM540.689 118.367L540.879 120.358L540.919 120.354L540.96 120.349L540.689 118.367ZM543.941 117.84L545.941 117.83L545.93 115.403L543.549 115.879L543.941 117.84ZM544.029 136.473L544.646 138.375L546.036 137.924L546.029 136.463L544.029 136.473ZM514.059 136.033L513.227 137.852L513.243 137.859L513.258 137.866L514.059 136.033ZM540.887 41.9023V59.832H544.887V41.9023H540.887ZM542.887 57.832H487.516V61.832H542.887V57.832ZM489.516 59.832V41.9023H485.516V59.832H489.516ZM487.516 43.9023H542.887V39.9023H487.516V43.9023ZM501.227 20.4355H526.539V16.4355H501.227V20.4355ZM524.539 18.4355V108.348H528.539V18.4355H524.539ZM524.539 108.348C524.539 111.22 524.898 113.68 525.791 115.541L529.397 113.81C528.884 112.741 528.539 110.983 528.539 108.348H524.539ZM525.819 115.598C526.791 117.467 528.259 118.836 530.191 119.609L531.676 115.895C530.678 115.496 529.92 114.815 529.368 113.753L525.819 115.598ZM530.256 119.634C532.01 120.265 534.104 120.543 536.471 120.543V116.543C534.384 116.543 532.787 116.293 531.611 115.87L530.256 119.634ZM536.471 120.543C538.1 120.543 539.571 120.483 540.879 120.358L540.5 116.376C539.347 116.486 538.006 116.543 536.471 116.543V120.543ZM540.96 120.349C542.273 120.17 543.401 119.988 544.334 119.801L543.549 115.879C542.724 116.044 541.684 116.213 540.419 116.386L540.96 120.349ZM541.941 117.849L542.029 136.482L546.029 136.463L545.941 117.83L541.941 117.849ZM543.412 134.57C541.352 135.239 539.108 135.773 536.677 136.169L537.319 140.117C539.927 139.692 542.371 139.113 544.646 138.375L543.412 134.57ZM536.677 136.169C534.281 136.558 531.608 136.758 528.648 136.758V140.758C531.783 140.758 534.676 140.547 537.319 140.117L536.677 136.169ZM528.648 136.758C523.297 136.758 518.716 135.885 514.859 134.2L513.258 137.866C517.721 139.815 522.867 140.758 528.648 140.758V136.758ZM514.89 134.214C511.197 132.526 508.352 129.849 506.324 126.114L502.809 128.023C505.234 132.491 508.717 135.79 513.227 137.852L514.89 134.214ZM506.324 126.114C504.31 122.405 503.227 117.378 503.227 110.896H499.227C499.227 117.775 500.369 123.529 502.809 128.023L506.324 126.114ZM503.227 110.896V18.4355H499.227V110.896H503.227ZM677.887 94.5488V92.5488H676.018L675.891 94.4128L677.887 94.5488ZM704.166 94.5488L706.162 94.671L706.292 92.5488H704.166V94.5488ZM697.047 117.488L695.356 116.42L695.349 116.431L697.047 117.488ZM679.557 133.133L678.662 131.344L678.657 131.347L679.557 133.133ZM630.602 134.539L629.794 136.369L629.801 136.372L629.808 136.375L630.602 134.539ZM613.902 122.234L612.384 123.536L612.392 123.545L613.902 122.234ZM603.531 43.2207L601.632 42.5926L601.63 42.6015L603.531 43.2207ZM614.254 23.7969L612.752 22.4763L612.744 22.4858L614.254 23.7969ZM679.82 12.9863L678.886 14.7549L678.892 14.758L679.82 12.9863ZM696.959 28.9824L695.24 30.0049L695.247 30.0158L696.959 28.9824ZM704.342 52.1855V54.1855H706.54L706.333 51.9972L704.342 52.1855ZM677.975 52.1855L675.978 52.299L676.085 54.1855H677.975V52.1855ZM674.898 39.0898L673.098 39.961L673.104 39.9725L674.898 39.0898ZM666.9 30.916L665.959 32.6807L665.977 32.69L665.994 32.699L666.9 30.916ZM628.053 50.6914L626.099 50.2647L626.097 50.2732L626.095 50.2817L628.053 50.6914ZM627.965 94.9883L626.003 95.3761L626.004 95.3805L627.965 94.9883ZM632.535 107.645L630.815 108.665L630.825 108.682L630.836 108.699L632.535 107.645ZM640.621 115.379L639.677 117.142L639.695 117.152L639.714 117.161L640.621 115.379ZM674.459 107.469L672.713 106.492L672.707 106.504L672.701 106.515L674.459 107.469ZM677.887 96.5488H704.166V92.5488H677.887V96.5488ZM702.17 94.4266C701.661 102.736 699.379 110.051 695.356 116.42L698.738 118.556C703.153 111.566 705.616 103.588 706.162 94.671L702.17 94.4266ZM695.349 116.431C691.397 122.777 685.855 127.748 678.662 131.344L680.451 134.922C688.259 131.018 694.376 125.559 698.745 118.546L695.349 116.431ZM678.657 131.347C671.557 134.924 662.917 136.758 652.662 136.758V140.758C663.384 140.758 672.673 138.841 680.457 134.919L678.657 131.347ZM652.662 136.758C644.689 136.758 637.612 135.392 631.395 132.703L629.808 136.375C636.599 139.311 644.229 140.758 652.662 140.758V136.758ZM631.409 132.709C625.173 129.956 619.847 126.031 615.413 120.923L612.392 123.545C617.215 129.102 623.022 133.379 629.794 136.369L631.409 132.709ZM615.421 120.933C611.046 115.829 607.681 109.629 605.349 102.293L601.537 103.504C604.01 111.285 607.618 117.976 612.384 123.536L615.421 120.933ZM605.349 102.293C603.019 94.9618 601.84 86.7039 601.84 77.498H597.84C597.84 87.0422 599.063 95.7179 601.537 103.504L605.349 102.293ZM601.84 77.498V68.6211H597.84V77.498H601.84ZM601.84 68.6211C601.84 59.4197 603.048 51.1664 605.433 43.8399L601.63 42.6015C599.093 50.3922 597.84 59.0725 597.84 68.6211H601.84ZM605.43 43.8488C607.878 36.4487 611.331 30.2149 615.764 25.108L612.744 22.4858C607.919 28.0429 604.224 34.7584 601.632 42.5926L605.43 43.8488ZM615.756 25.1174C620.251 20.0038 625.61 16.0758 631.849 13.3218L630.233 9.66253C623.464 12.6507 617.631 16.9259 612.752 22.4764L615.756 25.1174ZM631.849 13.3218C638.067 10.5767 645.053 9.18555 652.838 9.18555V5.18555C644.568 5.18555 637.023 6.66546 630.233 9.66253L631.849 13.3218ZM652.838 9.18555C663.267 9.18555 671.921 11.0771 678.886 14.7549L680.754 11.2177C673.071 7.16114 663.737 5.18555 652.838 5.18555V9.18555ZM678.892 14.758C685.966 18.4631 691.397 23.5436 695.24 30.0049L698.678 27.96C694.435 20.8275 688.441 15.2439 680.748 11.2147L678.892 14.758ZM695.247 30.0158C699.178 36.5313 701.556 43.9716 702.351 52.3739L706.333 51.9972C705.487 43.0558 702.943 35.0273 698.671 27.9491L695.247 30.0158ZM704.342 50.1855H677.975V54.1855H704.342V50.1855ZM679.971 52.0721C679.668 46.7243 678.599 42.0815 676.693 38.2072L673.104 39.9725C674.714 43.2466 675.696 47.3343 675.978 52.299L679.971 52.0721ZM676.699 38.2187C674.752 34.1952 671.773 31.1489 667.806 29.133L665.994 32.699C669.176 34.3159 671.529 36.7189 673.098 39.961L676.699 38.2187ZM667.842 29.1513C663.932 27.0662 658.882 26.1035 652.838 26.1035V30.1035C658.512 30.1035 662.838 31.0159 665.959 32.6807L667.842 29.1513ZM652.838 26.1035C648.194 26.1035 644.038 26.9713 640.43 28.7756L642.219 32.3533C645.172 30.8764 648.693 30.1035 652.838 30.1035V26.1035ZM640.43 28.7756C636.808 30.5863 633.799 33.3243 631.398 36.9258L634.727 39.1446C636.779 36.0663 639.278 33.8239 642.219 32.3533L640.43 28.7756ZM631.398 36.9258C628.999 40.525 627.25 44.9929 626.099 50.2647L630.007 51.1181C631.082 46.1946 632.673 42.225 634.727 39.1446L631.398 36.9258ZM626.095 50.2817C625.005 55.4904 624.471 61.5517 624.471 68.4453H628.471C628.471 61.7452 628.991 55.9705 630.01 51.1011L626.095 50.2817ZM624.471 68.4453V77.498H628.471V68.4453H624.471ZM624.471 77.498C624.471 84.2141 624.975 90.1789 626.003 95.3761L629.927 94.6004C628.962 89.7195 628.471 84.0241 628.471 77.498H624.471ZM626.004 95.3805C627.033 100.527 628.623 104.97 630.815 108.665L634.255 106.624C632.346 103.405 630.889 99.4108 629.926 94.596L626.004 95.3805ZM630.836 108.699C633.116 112.373 636.063 115.206 639.677 117.142L641.566 113.616C638.617 112.036 636.173 109.713 634.234 106.59L630.836 108.699ZM639.714 117.161C643.397 119.035 647.737 119.928 652.662 119.928V115.928C648.212 115.928 644.525 115.121 641.528 113.596L639.714 117.161ZM652.662 119.928C658.366 119.928 663.235 119.02 667.168 117.086L665.403 113.496C662.187 115.078 657.974 115.928 652.662 115.928V119.928ZM667.168 117.086C671.109 115.148 674.142 112.249 676.217 108.422L672.701 106.515C671.026 109.603 668.61 111.919 665.403 113.496L667.168 117.086ZM676.205 108.445C678.319 104.664 679.516 100.05 679.882 94.6849L675.891 94.4128C675.554 99.3602 674.466 103.36 672.713 106.492L676.205 108.445ZM749.518 9.03125H751.518V7.03125H749.518V9.03125ZM749.518 137V139H751.518V137H749.518ZM723.238 137H721.238V139H723.238V137ZM723.238 9.03125V7.03125H721.238V9.03125H723.238ZM747.518 9.03125V137H751.518V9.03125H747.518ZM749.518 135H723.238V139H749.518V135ZM725.238 137V9.03125H721.238V137H725.238ZM723.238 11.0312H749.518V7.03125H723.238V11.0312Z" fill="#D9D9D9" mask="url(#path-1-outside-1_799_1145)"/>
</svg>
