<svg width="924" height="141" viewBox="0 0 924 141" fill="none" xmlns="http://www.w3.org/2000/svg">
<mask id="path-1-outside-1_3001_121" maskUnits="userSpaceOnUse" x="0" y="0" width="924" height="141" fill="black">
<rect fill="white" width="924" height="141"/>
<path d="M28.793 9.03125V137H2.42578V9.03125H28.793ZM105.434 9.03125L54.7207 72.2246L25.4531 103.689L20.707 78.7285L40.4824 51.6582L73.0898 9.03125H105.434ZM75.4629 137L37.7578 77.8496L57.2695 61.502L106.664 137H75.4629ZM139.359 62.2051V137H114.047V41.9023H137.777L139.359 62.2051ZM135.668 86.1113H128.812C128.812 79.0801 129.721 72.752 131.537 67.127C133.354 61.4434 135.902 56.6094 139.184 52.625C142.465 48.582 146.361 45.5059 150.873 43.3965C155.443 41.2285 160.541 40.1445 166.166 40.1445C170.619 40.1445 174.691 40.7891 178.383 42.0781C182.074 43.3672 185.238 45.418 187.875 48.2305C190.57 51.043 192.621 54.7637 194.027 59.3926C195.492 64.0215 196.225 69.6758 196.225 76.3555V137H170.736V76.2676C170.736 72.0488 170.15 68.7676 168.979 66.4238C167.807 64.0801 166.078 62.4395 163.793 61.502C161.566 60.5059 158.812 60.0078 155.531 60.0078C152.133 60.0078 149.174 60.6816 146.654 62.0293C144.193 63.377 142.143 65.252 140.502 67.6543C138.92 69.998 137.719 72.752 136.898 75.916C136.078 79.0801 135.668 82.4785 135.668 86.1113ZM211.43 90.418V88.5723C211.43 81.5996 212.426 75.1836 214.418 69.3242C216.41 63.4062 219.311 58.2793 223.119 53.9434C226.928 49.6074 231.615 46.2383 237.182 43.8359C242.748 41.375 249.135 40.1445 256.342 40.1445C263.549 40.1445 269.965 41.375 275.59 43.8359C281.215 46.2383 285.932 49.6074 289.74 53.9434C293.607 58.2793 296.537 63.4062 298.529 69.3242C300.521 75.1836 301.518 81.5996 301.518 88.5723V90.418C301.518 97.332 300.521 103.748 298.529 109.666C296.537 115.525 293.607 120.652 289.74 125.047C285.932 129.383 281.244 132.752 275.678 135.154C270.111 137.557 263.725 138.758 256.518 138.758C249.311 138.758 242.895 137.557 237.27 135.154C231.703 132.752 226.986 129.383 223.119 125.047C219.311 120.652 216.41 115.525 214.418 109.666C212.426 103.748 211.43 97.332 211.43 90.418ZM236.742 88.5723V90.418C236.742 94.4023 237.094 98.123 237.797 101.58C238.5 105.037 239.613 108.084 241.137 110.721C242.719 113.299 244.77 115.32 247.289 116.785C249.809 118.25 252.885 118.982 256.518 118.982C260.033 118.982 263.051 118.25 265.57 116.785C268.09 115.32 270.111 113.299 271.635 110.721C273.158 108.084 274.271 105.037 274.975 101.58C275.736 98.123 276.117 94.4023 276.117 90.418V88.5723C276.117 84.7051 275.736 81.0723 274.975 77.6738C274.271 74.2168 273.129 71.1699 271.547 68.5332C270.023 65.8379 268.002 63.7285 265.482 62.2051C262.963 60.6816 259.916 59.9199 256.342 59.9199C252.768 59.9199 249.721 60.6816 247.201 62.2051C244.74 63.7285 242.719 65.8379 241.137 68.5332C239.613 71.1699 238.5 74.2168 237.797 77.6738C237.094 81.0723 236.742 84.7051 236.742 88.5723ZM344.232 112.391L364.008 41.9023H380.092L374.906 69.5879L355.131 137H341.684L344.232 112.391ZM334.213 41.9023L348.363 112.303L349.682 137H333.861L309.779 41.9023H334.213ZM398.197 111.16L411.996 41.9023H436.518L412.436 137H396.703L398.197 111.16ZM382.289 41.9023L401.977 111.863L404.701 137H391.166L371.391 69.6758L366.381 41.9023H382.289ZM472.553 9.03125L496.635 53.6797L520.717 9.03125H550.863L513.686 72.4883L551.83 137H521.42L496.635 91.4727L471.85 137H441.264L479.496 72.4883L442.23 9.03125H472.553ZM695.268 61.1504V81.7168H628.471V61.1504H695.268ZM636.293 9.03125V137H609.926V9.03125H636.293ZM714.076 9.03125V137H687.797V9.03125H714.076ZM791.684 114.236V41.9023H816.996V137H793.178L791.684 114.236ZM794.496 94.7246L801.967 94.5488C801.967 100.877 801.234 106.766 799.77 112.215C798.305 117.605 796.107 122.293 793.178 126.277C790.248 130.203 786.557 133.279 782.104 135.506C777.65 137.674 772.406 138.758 766.371 138.758C761.742 138.758 757.465 138.113 753.539 136.824C749.672 135.477 746.332 133.396 743.52 130.584C740.766 127.713 738.598 124.051 737.016 119.598C735.492 115.086 734.73 109.666 734.73 103.338V41.9023H760.043V103.514C760.043 106.326 760.365 108.699 761.01 110.633C761.713 112.566 762.68 114.148 763.91 115.379C765.141 116.609 766.576 117.488 768.217 118.016C769.916 118.543 771.791 118.807 773.842 118.807C779.057 118.807 783.158 117.752 786.146 115.643C789.193 113.533 791.332 110.662 792.562 107.029C793.852 103.338 794.496 99.2363 794.496 94.7246ZM836.332 2H861.645V115.203L859.096 137H836.332V2ZM921.85 88.4844V90.3301C921.85 97.4199 921.088 103.924 919.564 109.842C918.1 115.76 915.814 120.887 912.709 125.223C909.604 129.5 905.736 132.84 901.107 135.242C896.537 137.586 891.146 138.758 884.936 138.758C879.135 138.758 874.096 137.586 869.818 135.242C865.6 132.898 862.055 129.588 859.184 125.311C856.312 121.033 853.998 116.023 852.24 110.281C850.482 104.539 849.164 98.2695 848.285 91.4727V87.4297C849.164 80.6328 850.482 74.3633 852.24 68.6211C853.998 62.8789 856.312 57.8691 859.184 53.5918C862.055 49.3145 865.6 46.0039 869.818 43.6602C874.037 41.3164 879.018 40.1445 884.76 40.1445C891.029 40.1445 896.479 41.3457 901.107 43.748C905.795 46.0918 909.662 49.4316 912.709 53.7676C915.814 58.0449 918.1 63.1426 919.564 69.0605C921.088 74.9199 921.85 81.3945 921.85 88.4844ZM896.537 90.3301V88.4844C896.537 84.6172 896.244 80.9844 895.658 77.5859C895.131 74.1289 894.193 71.1113 892.846 68.5332C891.498 65.8965 889.652 63.8164 887.309 62.293C885.023 60.7695 882.064 60.0078 878.432 60.0078C874.975 60.0078 872.045 60.5938 869.643 61.7656C867.24 62.9375 865.248 64.5781 863.666 66.6875C862.143 68.7969 861 71.3164 860.238 74.2461C859.477 77.1172 859.008 80.2812 858.832 83.7383V95.252C859.008 99.8809 859.77 103.982 861.117 107.557C862.523 111.072 864.633 113.855 867.445 115.906C870.316 117.898 874.037 118.895 878.607 118.895C882.182 118.895 885.141 118.191 887.484 116.785C889.828 115.379 891.645 113.387 892.934 110.809C894.281 108.23 895.219 105.213 895.746 101.756C896.273 98.2402 896.537 94.4316 896.537 90.3301Z"/>
</mask>
<path d="M28.793 9.03125H30.793V7.03125H28.793V9.03125ZM28.793 137V139H30.793V137H28.793ZM2.42578 137H0.425781V139H2.42578V137ZM2.42578 9.03125V7.03125H0.425781V9.03125H2.42578ZM105.434 9.03125L106.993 10.283L109.603 7.03125H105.434V9.03125ZM54.7207 72.2246L56.1851 73.5868L56.2348 73.5333L56.2805 73.4764L54.7207 72.2246ZM25.4531 103.689L23.4883 104.063L24.2264 107.945L26.9175 105.052L25.4531 103.689ZM20.707 78.7285L19.0921 77.5487L18.5801 78.2495L18.7422 79.1021L20.707 78.7285ZM40.4824 51.6582L38.8939 50.4431L38.8805 50.4606L38.8674 50.4784L40.4824 51.6582ZM73.0898 9.03125V7.03125H72.1017L71.5013 7.81611L73.0898 9.03125ZM75.4629 137L73.7764 138.075L74.366 139H75.4629V137ZM37.7578 77.8496L36.4734 76.3166L35.1276 77.4441L36.0713 78.9247L37.7578 77.8496ZM57.2695 61.502L58.9432 60.407L57.7107 58.5232L55.9851 59.9689L57.2695 61.502ZM106.664 137V139H110.363L108.338 135.905L106.664 137ZM26.793 9.03125V137H30.793V9.03125H26.793ZM28.793 135H2.42578V139H28.793V135ZM4.42578 137V9.03125H0.425781V137H4.42578ZM2.42578 11.0312H28.793V7.03125H2.42578V11.0312ZM103.874 7.77948L53.1609 70.9728L56.2805 73.4764L106.993 10.283L103.874 7.77948ZM53.2563 70.8625L23.9887 102.327L26.9175 105.052L56.1851 73.5868L53.2563 70.8625ZM27.4179 103.316L22.6718 78.3549L18.7422 79.1021L23.4883 104.063L27.4179 103.316ZM22.322 79.9083L42.0974 52.838L38.8674 50.4784L19.0921 77.5487L22.322 79.9083ZM42.071 52.8733L74.6784 10.2464L71.5013 7.81611L38.8939 50.4431L42.071 52.8733ZM73.0898 11.0312H105.434V7.03125H73.0898V11.0312ZM77.1494 135.925L39.4443 76.7746L36.0713 78.9247L73.7764 138.075L77.1494 135.925ZM39.0423 79.3827L58.554 63.035L55.9851 59.9689L36.4734 76.3166L39.0423 79.3827ZM55.5959 62.5969L104.99 138.095L108.338 135.905L58.9432 60.407L55.5959 62.5969ZM106.664 135H75.4629V139H106.664V135ZM139.359 62.2051H141.359V62.1273L141.353 62.0497L139.359 62.2051ZM139.359 137V139H141.359V137H139.359ZM114.047 137H112.047V139H114.047V137ZM114.047 41.9023V39.9023H112.047V41.9023H114.047ZM137.777 41.9023L139.771 41.747L139.628 39.9023H137.777V41.9023ZM135.668 86.1113V88.1113H137.668V86.1113H135.668ZM128.812 86.1113H126.812V88.1113H128.812V86.1113ZM131.537 67.127L133.44 67.7415L133.442 67.7358L131.537 67.127ZM139.184 52.625L140.727 53.8964L140.732 53.8909L140.737 53.8853L139.184 52.625ZM150.873 43.3965L151.72 45.2083L151.73 45.2035L150.873 43.3965ZM187.875 48.2305L186.416 49.5984L186.423 49.6064L186.431 49.6143L187.875 48.2305ZM194.027 59.3926L192.114 59.9739L192.117 59.985L192.121 59.996L194.027 59.3926ZM196.225 137V139H198.225V137H196.225ZM170.736 137H168.736V139H170.736V137ZM163.793 61.502L162.976 63.3276L163.005 63.3404L163.034 63.3523L163.793 61.502ZM146.654 62.0293L145.711 60.2657L145.702 60.2704L145.694 60.2751L146.654 62.0293ZM140.502 67.6543L138.85 66.5264L138.844 66.5354L140.502 67.6543ZM137.359 62.2051V137H141.359V62.2051H137.359ZM139.359 135H114.047V139H139.359V135ZM116.047 137V41.9023H112.047V137H116.047ZM114.047 43.9023H137.777V39.9023H114.047V43.9023ZM135.783 42.0577L137.365 62.3605L141.353 62.0497L139.771 41.747L135.783 42.0577ZM135.668 84.1113H128.812V88.1113H135.668V84.1113ZM130.812 86.1113C130.812 79.2504 131.699 73.1345 133.44 67.7415L129.634 66.5124C127.743 72.3694 126.812 78.9098 126.812 86.1113H130.812ZM133.442 67.7358C135.193 62.2567 137.631 57.6568 140.727 53.8964L137.64 51.3536C134.174 55.562 131.514 60.63 129.632 66.5181L133.442 67.7358ZM140.737 53.8853C143.836 50.0662 147.495 47.1837 151.72 45.2082L150.026 41.5847C145.228 43.828 141.094 47.0979 137.631 51.3647L140.737 53.8853ZM151.73 45.2035C156.004 43.1762 160.804 42.1445 166.166 42.1445V38.1445C160.278 38.1445 154.883 39.2808 150.016 41.5895L151.73 45.2035ZM166.166 42.1445C170.425 42.1445 174.271 42.7608 177.723 43.9663L179.042 40.1899C175.112 38.8174 170.813 38.1445 166.166 38.1445V42.1445ZM177.723 43.9663C181.115 45.1506 184.003 47.0247 186.416 49.5984L189.334 46.8626C186.473 43.8112 183.034 41.5838 179.042 40.1899L177.723 43.9663ZM186.431 49.6143C188.863 52.1516 190.777 55.5744 192.114 59.9739L195.941 58.8112C194.465 53.9529 192.278 49.9343 189.319 46.8467L186.431 49.6143ZM192.121 59.996C193.505 64.3719 194.225 69.8094 194.225 76.3555H198.225C198.225 69.5422 197.479 63.6711 195.934 58.7892L192.121 59.996ZM194.225 76.3555V137H198.225V76.3555H194.225ZM196.225 135H170.736V139H196.225V135ZM172.736 137V76.2676H168.736V137H172.736ZM172.736 76.2676C172.736 71.9069 172.138 68.2701 170.767 65.5294L167.19 67.3183C168.163 69.2651 168.736 72.1908 168.736 76.2676H172.736ZM170.767 65.5294C169.393 62.7816 167.314 60.7845 164.552 59.6516L163.034 63.3523C164.843 64.0944 166.22 65.3785 167.19 67.3183L170.767 65.5294ZM164.61 59.6763C162.054 58.5329 159.002 58.0078 155.531 58.0078V62.0078C158.623 62.0078 161.079 62.4788 162.976 63.3276L164.61 59.6763ZM155.531 58.0078C151.866 58.0078 148.571 58.736 145.711 60.2657L147.598 63.7929C149.777 62.6273 152.4 62.0078 155.531 62.0078V58.0078ZM145.694 60.2751C142.946 61.7798 140.662 63.8736 138.85 66.5264L142.154 68.7822C143.623 66.6303 145.441 64.9741 147.615 63.7835L145.694 60.2751ZM138.844 66.5354C137.117 69.0943 135.831 72.0637 134.962 75.4141L138.834 76.4179C139.606 73.4402 140.723 70.9018 142.16 68.7732L138.844 66.5354ZM134.962 75.4141C134.095 78.7591 133.668 82.3277 133.668 86.1113H137.668C137.668 82.6293 138.061 79.401 138.834 76.4179L134.962 75.4141ZM214.418 69.3242L216.312 69.968L216.313 69.9623L214.418 69.3242ZM237.182 43.8359L237.974 45.6722L237.982 45.6687L237.99 45.6651L237.182 43.8359ZM275.59 43.8359L274.788 45.6683L274.796 45.6718L274.804 45.6752L275.59 43.8359ZM289.74 53.9434L288.238 55.2632L288.243 55.2689L288.248 55.2746L289.74 53.9434ZM298.529 69.3242L296.634 69.9623L296.636 69.968L298.529 69.3242ZM298.529 109.666L300.423 110.31L300.425 110.304L298.529 109.666ZM289.74 125.047L288.239 123.726L288.238 123.727L289.74 125.047ZM237.27 135.154L236.477 136.991L236.484 136.994L237.27 135.154ZM223.119 125.047L221.608 126.357L221.617 126.367L221.627 126.378L223.119 125.047ZM214.418 109.666L212.522 110.304L212.524 110.31L214.418 109.666ZM241.137 110.721L239.405 111.721L239.418 111.744L239.432 111.767L241.137 110.721ZM271.635 110.721L273.357 111.738L273.362 111.73L273.366 111.721L271.635 110.721ZM274.975 101.58L273.021 101.15L273.018 101.166L273.015 101.181L274.975 101.58ZM274.975 77.6738L273.015 78.0724L273.019 78.0919L273.023 78.1113L274.975 77.6738ZM271.547 68.5332L269.806 69.5173L269.819 69.5399L269.832 69.5622L271.547 68.5332ZM247.201 62.2051L246.166 60.4936L246.157 60.499L246.148 60.5045L247.201 62.2051ZM241.137 68.5332L239.412 67.5208L239.405 67.5326L241.137 68.5332ZM237.797 77.6738L239.755 78.079L239.757 78.0724L237.797 77.6738ZM213.43 90.418V88.5723H209.43V90.418H213.43ZM213.43 88.5723C213.43 81.7912 214.398 75.5956 216.312 69.968L212.524 68.6804C210.453 74.7716 209.43 81.408 209.43 88.5723H213.43ZM216.313 69.9623C218.228 64.2746 221.002 59.3843 224.622 55.2632L221.617 52.6235C217.619 57.1743 214.592 62.5379 212.522 68.6861L216.313 69.9623ZM224.622 55.2632C228.225 51.1612 232.666 47.9632 237.974 45.6722L236.389 41.9997C230.565 44.5133 225.631 48.0537 221.617 52.6235L224.622 55.2632ZM237.99 45.6651C243.26 43.3356 249.363 42.1445 256.342 42.1445V38.1445C248.907 38.1445 242.237 39.4144 236.373 42.0067L237.99 45.6651ZM256.342 42.1445C263.32 42.1445 269.456 43.3354 274.788 45.6683L276.391 42.0036C270.474 39.4146 263.777 38.1445 256.342 38.1445V42.1445ZM274.804 45.6752C280.171 47.9674 284.638 51.1652 288.238 55.2632L291.243 52.6235C287.225 48.0497 282.258 44.5092 276.375 41.9967L274.804 45.6752ZM288.248 55.2746C291.922 59.3943 294.721 64.2808 296.634 69.9623L300.425 68.6861C298.353 62.5317 295.293 57.1643 291.233 52.6121L288.248 55.2746ZM296.636 69.968C298.549 75.5956 299.518 81.7912 299.518 88.5723H303.518C303.518 81.408 302.494 74.7716 300.423 68.6804L296.636 69.968ZM299.518 88.5723V90.418H303.518V88.5723H299.518ZM299.518 90.418C299.518 97.1382 298.55 103.336 296.634 109.028L300.425 110.304C302.493 104.16 303.518 97.5259 303.518 90.418H299.518ZM296.636 109.022C294.723 114.647 291.922 119.54 288.239 123.726L291.242 126.368C295.293 121.765 298.351 116.404 300.423 110.31L296.636 109.022ZM288.238 123.727C284.634 127.829 280.194 131.027 274.885 133.318L276.47 136.991C282.295 134.477 287.229 130.937 291.243 126.367L288.238 123.727ZM274.885 133.318C269.612 135.594 263.503 136.758 256.518 136.758V140.758C263.947 140.758 270.611 139.519 276.47 136.991L274.885 133.318ZM256.518 136.758C249.533 136.758 243.392 135.594 238.055 133.315L236.484 136.994C242.398 139.519 249.088 140.758 256.518 140.758V136.758ZM238.062 133.318C232.751 131.026 228.277 127.825 224.612 123.716L221.627 126.378C225.696 130.941 230.655 134.478 236.477 136.991L238.062 133.318ZM224.631 123.737C221.002 119.55 218.226 114.653 216.312 109.022L212.524 110.31C214.594 116.398 217.619 121.755 221.608 126.357L224.631 123.737ZM216.313 109.028C214.397 103.336 213.43 97.1382 213.43 90.418H209.43C209.43 97.5259 210.454 104.16 212.522 110.304L216.313 109.028ZM234.742 88.5723V90.418H238.742V88.5723H234.742ZM234.742 90.418C234.742 94.5193 235.104 98.3749 235.837 101.979L239.757 101.181C239.083 97.8712 238.742 94.2854 238.742 90.418H234.742ZM235.837 101.979C236.576 105.615 237.758 108.871 239.405 111.721L242.868 109.72C241.469 107.297 240.424 104.46 239.757 101.181L235.837 101.979ZM239.432 111.767C241.18 114.616 243.467 116.877 246.284 118.514L248.294 115.056C246.072 113.764 244.257 111.982 242.841 109.675L239.432 111.767ZM246.284 118.514C249.175 120.195 252.618 120.982 256.518 120.982V116.982C253.152 116.982 250.442 116.305 248.294 115.056L246.284 118.514ZM256.518 120.982C260.313 120.982 263.693 120.19 266.576 118.514L264.565 115.056C262.408 116.31 259.753 116.982 256.518 116.982V120.982ZM266.576 118.514C269.399 116.872 271.664 114.602 273.357 111.738L269.913 109.703C268.559 111.995 266.78 113.768 264.565 115.056L266.576 118.514ZM273.366 111.721C275.014 108.871 276.195 105.615 276.934 101.979L273.015 101.181C272.348 104.46 271.303 107.297 269.903 109.72L273.366 111.721ZM276.928 102.01C277.724 98.3957 278.117 94.5293 278.117 90.418H274.117C274.117 94.2754 273.748 97.8504 273.021 101.15L276.928 102.01ZM278.117 90.418V88.5723H274.117V90.418H278.117ZM278.117 88.5723C278.117 84.5739 277.723 80.7932 276.926 77.2364L273.023 78.1113C273.749 81.3513 274.117 84.8363 274.117 88.5723H278.117ZM276.934 77.2752C276.193 73.6279 274.977 70.362 273.262 67.5042L269.832 69.5622C271.281 71.9779 272.35 74.8057 273.015 78.0724L276.934 77.2752ZM273.288 67.5491C271.605 64.5707 269.346 62.2041 266.517 60.4936L264.448 63.9165C266.658 65.2529 268.442 67.1051 269.806 69.5173L273.288 67.5491ZM266.517 60.4936C263.625 58.7447 260.203 57.9199 256.342 57.9199V61.9199C259.629 61.9199 262.301 62.6186 264.448 63.9165L266.517 60.4936ZM256.342 57.9199C252.481 57.9199 249.059 58.7447 246.166 60.4936L248.236 63.9165C250.383 62.6186 253.054 61.9199 256.342 61.9199V57.9199ZM246.148 60.5045C243.389 62.2127 241.145 64.5678 239.412 67.5208L242.862 69.5456C244.292 67.108 246.091 65.2443 248.254 63.9056L246.148 60.5045ZM239.405 67.5326C237.758 70.3834 236.576 73.6394 235.837 77.2752L239.757 78.0724C240.424 74.7942 241.469 71.9565 242.868 69.5338L239.405 67.5326ZM235.838 77.2686C235.105 80.8145 234.742 84.5842 234.742 88.5723H238.742C238.742 84.826 239.083 81.33 239.755 78.079L235.838 77.2686ZM344.232 112.391L342.307 111.85L342.261 112.015L342.243 112.185L344.232 112.391ZM364.008 41.9023V39.9023H362.492L362.082 41.3621L364.008 41.9023ZM380.092 41.9023L382.058 42.2705L382.501 39.9023H380.092V41.9023ZM374.906 69.5879L376.825 70.1509L376.854 70.0547L376.872 69.9561L374.906 69.5879ZM355.131 137V139H356.628L357.05 137.563L355.131 137ZM341.684 137L339.694 136.794L339.466 139H341.684V137ZM334.213 41.9023L336.174 41.5082L335.851 39.9023H334.213V41.9023ZM348.363 112.303L350.36 112.196L350.353 112.051L350.324 111.909L348.363 112.303ZM349.682 137V139H351.791L351.679 136.893L349.682 137ZM333.861 137L331.923 137.491L332.305 139H333.861V137ZM309.779 41.9023V39.9023H307.21L307.84 42.3933L309.779 41.9023ZM398.197 111.16L396.236 110.769L396.209 110.906L396.201 111.045L398.197 111.16ZM411.996 41.9023V39.9023H410.355L410.035 41.5115L411.996 41.9023ZM436.518 41.9023L438.456 42.3933L439.087 39.9023H436.518V41.9023ZM412.436 137V139H413.992L414.374 137.491L412.436 137ZM396.703 137L394.706 136.885L394.584 139H396.703V137ZM382.289 41.9023L384.214 41.3606L383.804 39.9023H382.289V41.9023ZM401.977 111.863L403.965 111.648L403.947 111.482L403.902 111.322L401.977 111.863ZM404.701 137V139H406.93L406.69 136.784L404.701 137ZM391.166 137L389.247 137.564L389.669 139H391.166V137ZM371.391 69.6758L369.422 70.0308L369.441 70.1364L369.472 70.2394L371.391 69.6758ZM366.381 41.9023V39.9023H363.988L364.413 42.2574L366.381 41.9023ZM346.158 112.931L365.933 42.4426L362.082 41.3621L342.307 111.85L346.158 112.931ZM364.008 43.9023H380.092V39.9023H364.008V43.9023ZM378.126 41.5341L372.94 69.2197L376.872 69.9561L382.058 42.2705L378.126 41.5341ZM372.987 69.0249L353.212 136.437L357.05 137.563L376.825 70.1509L372.987 69.0249ZM355.131 135H341.684V139H355.131V135ZM343.673 137.206L346.222 112.597L342.243 112.185L339.694 136.794L343.673 137.206ZM332.252 42.2965L346.402 112.697L350.324 111.909L336.174 41.5082L332.252 42.2965ZM346.366 112.409L347.684 137.107L351.679 136.893L350.36 112.196L346.366 112.409ZM349.682 135H333.861V139H349.682V135ZM335.8 136.509L311.718 41.4114L307.84 42.3933L331.923 137.491L335.8 136.509ZM309.779 43.9023H334.213V39.9023H309.779V43.9023ZM400.159 111.551L413.958 42.2931L410.035 41.5115L396.236 110.769L400.159 111.551ZM411.996 43.9023H436.518V39.9023H411.996V43.9023ZM434.579 41.4114L410.497 136.509L414.374 137.491L438.456 42.3933L434.579 41.4114ZM412.436 135H396.703V139H412.436V135ZM398.7 137.115L400.194 111.276L396.201 111.045L394.706 136.885L398.7 137.115ZM380.364 42.4441L400.051 112.405L403.902 111.322L384.214 41.3606L380.364 42.4441ZM399.988 112.079L402.713 137.216L406.69 136.784L403.965 111.648L399.988 112.079ZM404.701 135H391.166V139H404.701V135ZM393.085 136.436L373.31 69.1121L369.472 70.2394L389.247 137.564L393.085 136.436ZM373.359 69.3208L368.349 41.5473L364.413 42.2574L369.422 70.0308L373.359 69.3208ZM366.381 43.9023H382.289V39.9023H366.381V43.9023ZM472.553 9.03125L474.313 8.08181L473.746 7.03125H472.553V9.03125ZM496.635 53.6797L494.874 54.6291L496.635 57.8927L498.395 54.6291L496.635 53.6797ZM520.717 9.03125V7.03125H519.523L518.957 8.08181L520.717 9.03125ZM550.863 9.03125L552.589 10.0423L554.353 7.03125H550.863V9.03125ZM513.686 72.4883L511.96 71.4773L511.365 72.4929L511.964 73.5062L513.686 72.4883ZM551.83 137V139H555.336L553.552 135.982L551.83 137ZM521.42 137L519.663 137.956L520.232 139H521.42V137ZM496.635 91.4727L498.391 90.5164L496.635 87.2898L494.878 90.5164L496.635 91.4727ZM471.85 137V139H473.038L473.606 137.956L471.85 137ZM441.264 137L439.543 135.98L437.754 139H441.264V137ZM479.496 72.4883L481.217 73.508L481.818 72.4929L481.221 71.4755L479.496 72.4883ZM442.23 9.03125V7.03125H438.737L440.506 10.044L442.23 9.03125ZM470.792 9.98069L494.874 54.6291L498.395 52.7302L474.313 8.08181L470.792 9.98069ZM498.395 54.6291L522.477 9.98069L518.957 8.08181L494.874 52.7302L498.395 54.6291ZM520.717 11.0312H550.863V7.03125H520.717V11.0312ZM549.138 8.02024L511.96 71.4773L515.411 73.4993L552.589 10.0423L549.138 8.02024ZM511.964 73.5062L550.109 138.018L553.552 135.982L515.407 71.4703L511.964 73.5062ZM551.83 135H521.42V139H551.83V135ZM523.176 136.044L498.391 90.5164L494.878 92.4289L519.663 137.956L523.176 136.044ZM494.878 90.5164L470.093 136.044L473.606 137.956L498.391 92.4289L494.878 90.5164ZM471.85 135H441.264V139H471.85V135ZM442.984 138.02L481.217 73.508L477.776 71.4686L439.543 135.98L442.984 138.02ZM481.221 71.4755L443.955 8.01846L440.506 10.044L477.771 73.5011L481.221 71.4755ZM442.23 11.0312H472.553V7.03125H442.23V11.0312ZM695.268 61.1504H697.268V59.1504H695.268V61.1504ZM695.268 81.7168V83.7168H697.268V81.7168H695.268ZM628.471 81.7168H626.471V83.7168H628.471V81.7168ZM628.471 61.1504V59.1504H626.471V61.1504H628.471ZM636.293 9.03125H638.293V7.03125H636.293V9.03125ZM636.293 137V139H638.293V137H636.293ZM609.926 137H607.926V139H609.926V137ZM609.926 9.03125V7.03125H607.926V9.03125H609.926ZM714.076 9.03125H716.076V7.03125H714.076V9.03125ZM714.076 137V139H716.076V137H714.076ZM687.797 137H685.797V139H687.797V137ZM687.797 9.03125V7.03125H685.797V9.03125H687.797ZM693.268 61.1504V81.7168H697.268V61.1504H693.268ZM695.268 79.7168H628.471V83.7168H695.268V79.7168ZM630.471 81.7168V61.1504H626.471V81.7168H630.471ZM628.471 63.1504H695.268V59.1504H628.471V63.1504ZM634.293 9.03125V137H638.293V9.03125H634.293ZM636.293 135H609.926V139H636.293V135ZM611.926 137V9.03125H607.926V137H611.926ZM609.926 11.0312H636.293V7.03125H609.926V11.0312ZM712.076 9.03125V137H716.076V9.03125H712.076ZM714.076 135H687.797V139H714.076V135ZM689.797 137V9.03125H685.797V137H689.797ZM687.797 11.0312H714.076V7.03125H687.797V11.0312ZM791.684 114.236H789.684V114.302L789.688 114.367L791.684 114.236ZM791.684 41.9023V39.9023H789.684V41.9023H791.684ZM816.996 41.9023H818.996V39.9023H816.996V41.9023ZM816.996 137V139H818.996V137H816.996ZM793.178 137L791.182 137.131L791.305 139H793.178V137ZM794.496 94.7246L794.449 92.7252L792.496 92.7711V94.7246H794.496ZM801.967 94.5488H803.967V92.5012L801.92 92.5494L801.967 94.5488ZM799.77 112.215L801.7 112.739L801.701 112.734L799.77 112.215ZM793.178 126.277L794.781 127.474L794.785 127.468L794.789 127.462L793.178 126.277ZM782.104 135.506L782.979 137.304L782.988 137.299L782.998 137.295L782.104 135.506ZM753.539 136.824L752.881 138.713L752.898 138.719L752.915 138.724L753.539 136.824ZM743.52 130.584L742.076 131.968L742.091 131.983L742.105 131.998L743.52 130.584ZM737.016 119.598L735.121 120.237L735.126 120.252L735.131 120.267L737.016 119.598ZM734.73 41.9023V39.9023H732.73V41.9023H734.73ZM760.043 41.9023H762.043V39.9023H760.043V41.9023ZM761.01 110.633L759.112 111.265L759.121 111.291L759.13 111.316L761.01 110.633ZM768.217 118.016L767.605 119.92L767.614 119.923L767.624 119.926L768.217 118.016ZM786.146 115.643L785.008 113.998L785.001 114.003L784.993 114.009L786.146 115.643ZM792.562 107.029L790.674 106.37L790.671 106.379L790.668 106.388L792.562 107.029ZM793.684 114.236V41.9023H789.684V114.236H793.684ZM791.684 43.9023H816.996V39.9023H791.684V43.9023ZM814.996 41.9023V137H818.996V41.9023H814.996ZM816.996 135H793.178V139H816.996V135ZM795.173 136.869L793.679 114.105L789.688 114.367L791.182 137.131L795.173 136.869ZM794.543 96.7241L802.014 96.5483L801.92 92.5494L794.449 92.7252L794.543 96.7241ZM799.967 94.5488C799.967 100.723 799.252 106.435 797.838 111.696L801.701 112.734C803.216 107.096 803.967 101.031 803.967 94.5488H799.967ZM797.84 111.69C796.431 116.874 794.332 121.331 791.566 125.093L794.789 127.462C797.882 123.255 800.178 118.337 801.7 112.739L797.84 111.69ZM791.575 125.081C788.835 128.753 785.388 131.628 781.209 133.717L782.998 137.295C787.725 134.931 791.661 131.654 794.781 127.474L791.575 125.081ZM781.228 133.708C777.101 135.717 772.168 136.758 766.371 136.758V140.758C772.644 140.758 778.2 139.631 782.979 137.304L781.228 133.708ZM766.371 136.758C761.929 136.758 757.865 136.14 754.163 134.924L752.915 138.724C757.065 140.087 761.555 140.758 766.371 140.758V136.758ZM754.197 134.936C750.606 133.684 747.527 131.763 744.934 129.17L742.105 131.998C745.137 135.03 748.738 137.269 752.881 138.713L754.197 134.936ZM744.963 129.2C742.438 126.568 740.405 123.164 738.9 118.928L735.131 120.267C736.79 124.938 739.093 128.858 742.076 131.968L744.963 129.2ZM738.911 118.958C737.475 114.707 736.73 109.516 736.73 103.338H732.73C732.73 109.816 733.509 115.464 735.121 120.237L738.911 118.958ZM736.73 103.338V41.9023H732.73V103.338H736.73ZM734.73 43.9023H760.043V39.9023H734.73V43.9023ZM758.043 41.9023V103.514H762.043V41.9023H758.043ZM758.043 103.514C758.043 106.466 758.38 109.067 759.112 111.265L762.907 110C762.351 108.332 762.043 106.187 762.043 103.514H758.043ZM759.13 111.316C759.915 113.475 761.025 115.322 762.496 116.793L765.324 113.965C764.335 112.975 763.511 111.658 762.889 109.949L759.13 111.316ZM762.496 116.793C763.949 118.246 765.659 119.294 767.605 119.92L768.829 116.112C767.494 115.682 766.332 114.973 765.324 113.965L762.496 116.793ZM767.624 119.926C769.542 120.521 771.62 120.807 773.842 120.807V116.807C771.962 116.807 770.29 116.565 768.81 116.105L767.624 119.926ZM773.842 120.807C779.3 120.807 783.858 119.706 787.3 117.277L784.993 114.009C782.458 115.798 778.813 116.807 773.842 116.807V120.807ZM787.285 117.287C790.698 114.924 793.094 111.695 794.457 107.671L790.668 106.388C789.57 109.629 787.689 112.142 785.008 113.998L787.285 117.287ZM794.451 107.689C795.824 103.755 796.496 99.4269 796.496 94.7246H792.496C792.496 99.0458 791.879 102.92 790.674 106.37L794.451 107.689ZM836.332 2V0H834.332V2H836.332ZM861.645 2H863.645V0H861.645V2ZM861.645 115.203L863.631 115.435L863.645 115.32V115.203H861.645ZM859.096 137V139H860.875L861.082 137.232L859.096 137ZM836.332 137H834.332V139H836.332V137ZM919.564 109.842L917.628 109.343L917.625 109.352L917.623 109.361L919.564 109.842ZM912.709 125.223L914.327 126.398L914.335 126.387L912.709 125.223ZM901.107 135.242L902.02 137.022L902.029 137.017L901.107 135.242ZM869.818 135.242L868.847 136.991L868.857 136.996L869.818 135.242ZM848.285 91.4727H846.285V91.6014L846.302 91.7291L848.285 91.4727ZM848.285 87.4297L846.302 87.1732L846.285 87.3009V87.4297H848.285ZM901.107 43.748L900.186 45.5232L900.2 45.5302L900.213 45.5369L901.107 43.748ZM912.709 53.7676L911.073 54.9175L911.081 54.9301L911.091 54.9426L912.709 53.7676ZM919.564 69.0605L917.623 69.5411L917.626 69.5525L917.629 69.5638L919.564 69.0605ZM895.658 77.5859L893.681 77.8875L893.684 77.9067L893.687 77.9258L895.658 77.5859ZM892.846 68.5332L891.065 69.4434L891.069 69.4516L891.073 69.4597L892.846 68.5332ZM887.309 62.293L886.199 63.9571L886.209 63.9635L886.219 63.9699L887.309 62.293ZM863.666 66.6875L862.066 65.4875L862.055 65.5019L862.045 65.5165L863.666 66.6875ZM860.238 74.2461L862.171 74.759L862.174 74.7494L860.238 74.2461ZM858.832 83.7383L856.835 83.6367L856.832 83.6875V83.7383H858.832ZM858.832 95.252H856.832V95.2899L856.833 95.3278L858.832 95.252ZM861.117 107.557L859.246 108.262L859.253 108.281L859.26 108.299L861.117 107.557ZM867.445 115.906L866.267 117.522L866.286 117.536L866.305 117.549L867.445 115.906ZM892.934 110.809L891.161 109.882L891.153 109.898L891.145 109.914L892.934 110.809ZM895.746 101.756L897.723 102.057L897.724 102.053L895.746 101.756ZM836.332 4H861.645V0H836.332V4ZM859.645 2V115.203H863.645V2H859.645ZM859.658 114.971L857.109 136.768L861.082 137.232L863.631 115.435L859.658 114.971ZM859.096 135H836.332V139H859.096V135ZM838.332 137V2H834.332V137H838.332ZM919.85 88.4844V90.3301H923.85V88.4844H919.85ZM919.85 90.3301C919.85 97.2779 919.103 103.612 917.628 109.343L921.501 110.34C923.073 104.236 923.85 97.5619 923.85 90.3301H919.85ZM917.623 109.361C916.21 115.068 914.021 119.955 911.083 124.058L914.335 126.387C917.608 121.818 919.989 116.451 921.506 110.322L917.623 109.361ZM911.091 124.048C908.165 128.077 904.535 131.21 900.186 133.467L902.029 137.017C906.937 134.47 911.042 130.923 914.327 126.398L911.091 124.048ZM900.195 133.463C895.96 135.634 890.895 136.758 884.936 136.758V140.758C891.398 140.758 897.114 139.538 902.02 137.022L900.195 133.463ZM884.936 136.758C879.407 136.758 874.711 135.643 870.779 133.488L868.857 136.996C873.48 139.529 878.862 140.758 884.936 140.758V136.758ZM870.79 133.494C866.866 131.314 863.551 128.229 860.844 124.196L857.523 126.425C860.558 130.947 864.333 134.483 868.847 136.991L870.79 133.494ZM860.844 124.196C858.099 120.106 855.862 115.281 854.153 109.696L850.328 110.867C852.134 116.766 854.526 121.96 857.523 126.425L860.844 124.196ZM854.153 109.696C852.432 104.075 851.135 97.9169 850.269 91.2162L846.302 91.7291C847.193 98.6222 848.533 105.003 850.328 110.867L854.153 109.696ZM850.285 91.4727V87.4297H846.285V91.4727H850.285ZM850.269 87.6862C851.135 80.9855 852.432 74.8275 854.153 69.2065L850.328 68.0357C848.533 73.8991 847.193 80.2801 846.302 87.1732L850.269 87.6862ZM854.153 69.2065C855.862 63.6218 858.099 58.7963 860.844 54.7064L857.523 52.4772C854.526 56.942 852.134 62.136 850.328 68.0357L854.153 69.2065ZM860.844 54.7064C863.551 50.6737 866.866 47.5882 870.79 45.4085L868.847 41.9118C864.333 44.4196 860.558 47.9552 857.523 52.4772L860.844 54.7064ZM870.79 45.4085C874.66 43.2585 879.293 42.1445 884.76 42.1445V38.1445C878.742 38.1445 873.415 39.3743 868.847 41.9118L870.79 45.4085ZM884.76 42.1445C890.773 42.1445 895.894 43.2956 900.186 45.5232L902.029 41.9729C897.063 39.3958 891.286 38.1445 884.76 38.1445V42.1445ZM900.213 45.5369C904.601 47.7307 908.214 50.8495 911.073 54.9175L914.345 52.6177C911.11 48.0137 906.989 44.4529 902.002 41.9592L900.213 45.5369ZM911.091 54.9426C914.023 58.982 916.211 63.8353 917.623 69.5411L921.506 68.58C919.988 62.4498 917.606 57.1079 914.327 52.5926L911.091 54.9426ZM917.629 69.5638C919.103 75.2337 919.85 81.5362 919.85 88.4844H923.85C923.85 81.2529 923.073 74.6062 921.5 68.5573L917.629 69.5638ZM898.537 90.3301V88.4844H894.537V90.3301H898.537ZM898.537 88.4844C898.537 84.5168 898.237 80.7693 897.629 77.2461L893.687 77.9258C894.252 81.1994 894.537 84.7176 894.537 88.4844H898.537ZM897.635 77.2843C897.081 73.6519 896.086 70.4154 894.618 67.6067L891.073 69.4597C892.3 71.8073 893.18 74.6059 893.681 77.8875L897.635 77.2843ZM894.627 67.623C893.129 64.6938 891.053 62.3416 888.399 60.6161L886.219 63.9699C888.251 65.2912 889.867 67.0991 891.065 69.4434L894.627 67.623ZM888.418 60.6289C885.714 58.826 882.334 58.0078 878.432 58.0078V62.0078C881.795 62.0078 884.333 62.7131 886.199 63.9571L888.418 60.6289ZM878.432 58.0078C874.757 58.0078 871.509 58.6298 868.766 59.9681L870.519 63.5632C872.581 62.5577 875.193 62.0078 878.432 62.0078V58.0078ZM868.766 59.9681C866.082 61.277 863.841 63.1208 862.066 65.4875L865.266 67.8875C866.655 66.0354 868.398 64.598 870.519 63.5632L868.766 59.9681ZM862.045 65.5165C860.354 67.857 859.117 70.6116 858.303 73.7428L862.174 74.7494C862.883 72.0212 863.931 69.7367 865.287 67.8585L862.045 65.5165ZM858.305 73.7332C857.502 76.7587 857.016 80.0629 856.835 83.6367L860.829 83.8398C860.999 80.4996 861.451 77.4757 862.171 74.759L858.305 73.7332ZM856.832 83.7383V95.252H860.832V83.7383H856.832ZM856.833 95.3278C857.016 100.128 857.808 104.449 859.246 108.262L862.989 106.851C861.731 103.516 861 99.6338 860.831 95.1761L856.833 95.3278ZM859.26 108.299C860.793 112.132 863.124 115.231 866.267 117.522L868.624 114.29C866.141 112.48 864.253 110.012 862.974 106.814L859.26 108.299ZM866.305 117.549C869.6 119.836 873.754 120.895 878.607 120.895V116.895C874.32 116.895 871.032 115.961 868.585 114.263L866.305 117.549ZM878.607 120.895C882.435 120.895 885.777 120.142 888.513 118.5L886.455 115.07C884.504 116.241 881.928 116.895 878.607 116.895V120.895ZM888.513 118.5C891.201 116.887 893.273 114.602 894.722 111.703L891.145 109.914C890.016 112.172 888.455 113.871 886.455 115.07L888.513 118.5ZM894.706 111.735C896.174 108.926 897.169 105.69 897.723 102.057L893.769 101.454C893.268 104.736 892.388 107.535 891.161 109.882L894.706 111.735ZM897.724 102.053C898.268 98.4251 898.537 94.5162 898.537 90.3301H894.537C894.537 94.3471 894.279 98.0553 893.768 101.459L897.724 102.053Z" fill="#D9D9D9" mask="url(#path-1-outside-1_3001_121)"/>
</svg>
