<svg width="86" height="83" viewBox="0 0 86 83" fill="none" xmlns="http://www.w3.org/2000/svg">
<g clip-path="url(#clip0_1177_180)">
<path fill-rule="evenodd" clip-rule="evenodd" d="M70.78 62.54C71.87 63.4 72.05 64.97 71.19 66.05C63.51 75.78 51.3 81.66 38 80.71C16.65 79.2 0.580015 60.66 2.10001 39.31C3.18001 24.19 12.79 11.72 25.89 6.27997C27.17 5.74997 28.63 6.34997 29.16 7.62997C29.69 8.89997 29.09 10.37 27.81 10.9C16.4 15.65 8.03001 26.51 7.09001 39.68C5.76002 58.27 19.76 74.42 38.35 75.75C49.93 76.58 60.57 71.46 67.26 62.98C68.12 61.89 69.69 61.71 70.77 62.57L70.78 62.54Z" fill="black" stroke="black" stroke-width="4" stroke-miterlimit="10"/>
<path fill-rule="evenodd" clip-rule="evenodd" d="M51.1701 37.43C49.9701 36.97 48.7201 36.61 47.4301 36.36C47.3401 36.34 47.2501 36.32 47.1601 36.31C46.3601 36.17 46.3601 35.01 47.1601 34.87C47.2501 34.85 47.3401 34.83 47.4301 34.82C48.7201 34.57 49.9701 34.21 51.1701 33.75C51.8701 33.48 52.5501 33.18 53.2101 32.85C57.3801 30.74 60.7801 27.34 62.8901 23.17C63.2301 22.51 63.5301 21.83 63.7901 21.13C64.2501 19.93 64.6101 18.68 64.8601 17.39C64.8801 17.3 64.9001 17.21 64.9101 17.12C65.0501 16.32 66.2101 16.32 66.3501 17.12C66.3701 17.21 66.3901 17.3 66.4001 17.39C66.6501 18.68 67.0101 19.93 67.4701 21.13C67.7401 21.83 68.0401 22.51 68.3701 23.17C70.4801 27.34 73.8801 30.74 78.0501 32.85C78.7101 33.19 79.3901 33.49 80.0901 33.75C81.2901 34.21 82.5401 34.57 83.8301 34.82C83.9201 34.84 84.0101 34.86 84.1001 34.87C84.9001 35.01 84.9001 36.17 84.1001 36.31C84.0101 36.33 83.9201 36.35 83.8301 36.36C82.5401 36.61 81.2901 36.97 80.0901 37.43C79.3901 37.7 78.7101 38 78.0501 38.33C73.8801 40.44 70.4801 43.84 68.3701 48.01C68.0301 48.67 67.7301 49.35 67.4701 50.05C67.0101 51.25 66.6501 52.5 66.4001 53.79C66.3801 53.88 66.3601 53.97 66.3501 54.06C66.2101 54.86 65.0501 54.86 64.9101 54.06C64.8901 53.97 64.8701 53.88 64.8601 53.79C64.6101 52.5 64.2501 51.25 63.7901 50.05C63.5201 49.35 63.2201 48.67 62.8901 48.01C60.7801 43.84 57.3801 40.44 53.2101 38.33C52.5501 37.99 51.8701 37.69 51.1701 37.43Z" fill="#EA0033"/>
<path fill-rule="evenodd" clip-rule="evenodd" d="M43.35 12.5999C42.12 11.8499 40.74 11.2999 39.27 11.0199C39.22 11.0199 39.17 10.9999 39.12 10.9899C38.67 10.9099 38.67 10.2699 39.12 10.1899C39.17 10.1799 39.22 10.1699 39.27 10.1599C40.74 9.87994 42.12 9.32994 43.35 8.57994C43.82 8.28994 44.27 7.96994 44.69 7.62994C45.32 7.10994 45.9 6.53994 46.41 5.90994C46.76 5.47994 47.07 5.02994 47.36 4.56994C48.11 3.33994 48.66 1.95994 48.94 0.489941C48.94 0.439941 48.96 0.389941 48.97 0.339941C49.05 -0.110059 49.69 -0.110059 49.77 0.339941C49.78 0.389941 49.79 0.439941 49.8 0.489941C50.08 1.95994 50.63 3.33994 51.38 4.56994C51.67 5.03994 51.99 5.48994 52.33 5.90994C52.85 6.53994 53.42 7.11994 54.05 7.62994C54.48 7.97994 54.93 8.28994 55.39 8.57994C56.62 9.32994 58 9.87994 59.47 10.1599C59.52 10.1599 59.57 10.1799 59.62 10.1899C60.07 10.2699 60.07 10.9099 59.62 10.9899C59.57 10.9999 59.52 11.0099 59.47 11.0199C58 11.2999 56.62 11.8499 55.39 12.5999C54.92 12.8899 54.47 13.2099 54.05 13.5499C53.42 14.0699 52.84 14.6399 52.33 15.2699C51.98 15.6999 51.67 16.1499 51.38 16.6099C50.63 17.8399 50.08 19.2199 49.8 20.6899C49.8 20.7399 49.78 20.7899 49.77 20.8399C49.69 21.2899 49.05 21.2899 48.97 20.8399C48.96 20.7899 48.95 20.7399 48.94 20.6899C48.66 19.2199 48.11 17.8399 47.36 16.6099C47.07 16.1399 46.75 15.6899 46.41 15.2699C45.89 14.6399 45.32 14.0599 44.69 13.5499C44.26 13.1999 43.81 12.8899 43.35 12.5999Z" fill="#EA0033"/>
<path fill-rule="evenodd" clip-rule="evenodd" d="M77.9601 17.64C78.5201 18.46 78.9201 19.39 79.1101 20.41C79.1101 20.44 79.1201 20.47 79.1301 20.5C79.1801 20.77 79.5601 20.77 79.6101 20.5C79.6101 20.47 79.6201 20.44 79.6301 20.41C79.8201 19.39 80.2201 18.46 80.7801 17.64C80.9701 17.37 81.1801 17.1 81.4001 16.85C81.5501 16.69 81.7101 16.53 81.8801 16.37C82.1301 16.14 82.3901 15.94 82.6701 15.75C83.4901 15.19 84.4201 14.79 85.4401 14.6C85.4701 14.6 85.5001 14.59 85.5301 14.58C85.8001 14.53 85.8001 14.15 85.5301 14.1C85.5001 14.1 85.4701 14.09 85.4401 14.08C84.4201 13.89 83.4901 13.49 82.6701 12.93C82.4001 12.74 82.1301 12.53 81.8801 12.31C81.7201 12.16 81.5601 12 81.4001 11.83C81.1701 11.58 80.9701 11.32 80.7801 11.04C80.2201 10.22 79.8201 9.29004 79.6301 8.27004C79.6301 8.24004 79.6201 8.21004 79.6101 8.18004C79.5601 7.91004 79.1801 7.91004 79.1301 8.18004C79.1301 8.21004 79.1201 8.24004 79.1101 8.27004C78.9201 9.29004 78.5201 10.22 77.9601 11.04C77.7701 11.31 77.5601 11.58 77.3401 11.83C77.1901 11.99 77.0301 12.15 76.8601 12.31C76.6101 12.54 76.3501 12.74 76.0701 12.93C75.2501 13.49 74.3201 13.89 73.3001 14.08C73.2701 14.08 73.2401 14.09 73.2101 14.1C72.9401 14.15 72.9401 14.53 73.2101 14.58C73.2401 14.58 73.2701 14.59 73.3001 14.6C74.3201 14.79 75.2501 15.19 76.0701 15.75C76.3401 15.94 76.6101 16.15 76.8601 16.37C77.0201 16.52 77.1801 16.68 77.3401 16.85C77.5701 17.1 77.7701 17.36 77.9601 17.64Z" fill="#EA0033"/>
</g>
<defs>
<clipPath id="clip0_1177_180">
<rect width="85.73" height="82.82" fill="white"/>
</clipPath>
</defs>
</svg>
