<svg width="91" height="91" viewBox="0 0 91 91" fill="none" xmlns="http://www.w3.org/2000/svg">
<path fill-rule="evenodd" clip-rule="evenodd" d="M63.19 78.92V90.48H58.88V78.92H63.19ZM58.88 31.59H31.59V58.88H58.87V31.59H58.88ZM74.68 15.8V74.68H15.8V15.8H74.68ZM29.44 27.28H63.19V63.19H27.28V27.28H29.44ZM31.59 0V11.56H27.28V0H31.59ZM47.39 0V11.56H43.08V0H47.39ZM63.19 0V11.56H58.88V0H63.19ZM78.92 58.88H90.48V63.19H78.92V58.88ZM78.92 43.09H90.48V47.4H78.92V43.09ZM78.92 27.28H90.48V31.59H78.92V27.28ZM0 58.88H11.56V63.19H0V58.88ZM0 43.09H11.56V47.4H0V43.09ZM0 27.28H11.56V31.59H0V27.28ZM31.59 78.92V90.48H27.28V78.92H31.59ZM47.39 78.92V90.48H43.08V78.92H47.39Z" fill="black"/>
<path d="M59.24 31.24H31.24V59.25H59.24V31.24Z" fill="#EA0033"/>
</svg>
