<svg width="540" height="139" viewBox="0 0 540 139" fill="none" xmlns="http://www.w3.org/2000/svg">
<mask id="path-1-outside-1_3022_119" maskUnits="userSpaceOnUse" x="0" y="0" width="540" height="139" fill="black">
<rect fill="white" width="540" height="139"/>
<path d="M111.543 68.0273V74.0918C111.543 83.8184 110.225 92.5488 107.588 100.283C104.951 108.018 101.23 114.609 96.4258 120.059C91.6211 125.449 85.8789 129.58 79.1992 132.451C72.5781 135.322 65.2246 136.758 57.1387 136.758C49.1113 136.758 41.7578 135.322 35.0781 132.451C28.457 129.58 22.7148 125.449 17.8516 120.059C12.9883 114.609 9.20898 108.018 6.51367 100.283C3.87695 92.5488 2.55859 83.8184 2.55859 74.0918V68.0273C2.55859 58.2422 3.87695 49.5117 6.51367 41.8359C9.15039 34.1016 12.8711 27.5098 17.6758 22.0605C22.5391 16.6113 28.2812 12.4512 34.9023 9.58008C41.582 6.70898 48.9355 5.27344 56.9629 5.27344C65.0488 5.27344 72.4023 6.70898 79.0234 9.58008C85.7031 12.4512 91.4453 16.6113 96.25 22.0605C101.113 27.5098 104.863 34.1016 107.5 41.8359C110.195 49.5117 111.543 58.2422 111.543 68.0273ZM84.9121 74.0918V67.8516C84.9121 61.0547 84.2969 55.0781 83.0664 49.9219C81.8359 44.7656 80.0195 40.4297 77.6172 36.9141C75.2148 33.3984 72.2852 30.7617 68.8281 29.0039C65.3711 27.1875 61.416 26.2793 56.9629 26.2793C52.5098 26.2793 48.5547 27.1875 45.0977 29.0039C41.6992 30.7617 38.7988 33.3984 36.3965 36.9141C34.0527 40.4297 32.2656 44.7656 31.0352 49.9219C29.8047 55.0781 29.1895 61.0547 29.1895 67.8516V74.0918C29.1895 80.8301 29.8047 86.8066 31.0352 92.0215C32.2656 97.1777 34.082 101.543 36.4844 105.117C38.8867 108.633 41.8164 111.299 45.2734 113.115C48.7305 114.932 52.6855 115.84 57.1387 115.84C61.5918 115.84 65.5469 114.932 69.0039 113.115C72.4609 111.299 75.3613 108.633 77.7051 105.117C80.0488 101.543 81.8359 97.1777 83.0664 92.0215C84.2969 86.8066 84.9121 80.8301 84.9121 74.0918ZM154.258 59.5898V135H128.857V39.9023H152.676L154.258 59.5898ZM150.742 84.1113H143.711C143.711 77.4902 144.502 71.3965 146.084 65.8301C147.725 60.2051 150.098 55.3418 153.203 51.2402C156.367 47.0801 160.264 43.8574 164.893 41.5723C169.521 39.2871 174.883 38.1445 180.977 38.1445C185.195 38.1445 189.062 38.7891 192.578 40.0781C196.094 41.3086 199.111 43.2715 201.631 45.9668C204.209 48.6035 206.201 52.0605 207.607 56.3379C209.014 60.5566 209.717 65.625 209.717 71.543V135H184.404V74.3555C184.404 70.0195 183.818 66.6797 182.646 64.3359C181.475 61.9922 179.805 60.3516 177.637 59.4141C175.527 58.4766 172.979 58.0078 169.99 58.0078C166.709 58.0078 163.838 58.6816 161.377 60.0293C158.975 61.377 156.982 63.252 155.4 65.6543C153.818 67.998 152.646 70.752 151.885 73.916C151.123 77.0801 150.742 80.4785 150.742 84.1113ZM207.344 81.2109L198.291 82.3535C198.291 76.1426 199.053 70.3711 200.576 65.0391C202.158 59.707 204.473 55.0195 207.52 50.9766C210.625 46.9336 214.463 43.7988 219.033 41.5723C223.604 39.2871 228.877 38.1445 234.854 38.1445C239.424 38.1445 243.584 38.8184 247.334 40.166C251.084 41.4551 254.277 43.5352 256.914 46.4062C259.609 49.2188 261.66 52.9102 263.066 57.4805C264.531 62.0508 265.264 67.6465 265.264 74.2676V135H239.863V74.2676C239.863 69.873 239.277 66.5332 238.105 64.248C236.992 61.9043 235.352 60.293 233.184 59.4141C231.074 58.4766 228.555 58.0078 225.625 58.0078C222.578 58.0078 219.912 58.623 217.627 59.8535C215.342 61.0254 213.438 62.666 211.914 64.7754C210.391 66.8848 209.248 69.3457 208.486 72.1582C207.725 74.9121 207.344 77.9297 207.344 81.2109ZM309.648 60.2051V135H284.336V39.9023H308.066L309.648 60.2051ZM305.957 84.1113H299.102C299.102 77.0801 300.01 70.752 301.826 65.127C303.643 59.4434 306.191 54.6094 309.473 50.625C312.754 46.582 316.65 43.5059 321.162 41.3965C325.732 39.2285 330.83 38.1445 336.455 38.1445C340.908 38.1445 344.98 38.7891 348.672 40.0781C352.363 41.3672 355.527 43.418 358.164 46.2305C360.859 49.043 362.91 52.7637 364.316 57.3926C365.781 62.0215 366.514 67.6758 366.514 74.3555V135H341.025V74.2676C341.025 70.0488 340.439 66.7676 339.268 64.4238C338.096 62.0801 336.367 60.4395 334.082 59.502C331.855 58.5059 329.102 58.0078 325.82 58.0078C322.422 58.0078 319.463 58.6816 316.943 60.0293C314.482 61.377 312.432 63.252 310.791 65.6543C309.209 67.998 308.008 70.752 307.188 73.916C306.367 77.0801 305.957 80.4785 305.957 84.1113ZM412.48 39.9023V135H387.08V39.9023H412.48ZM385.498 15.1172C385.498 11.4258 386.787 8.37891 389.365 5.97656C391.943 3.57422 395.4 2.37305 399.736 2.37305C404.014 2.37305 407.441 3.57422 410.02 5.97656C412.656 8.37891 413.975 11.4258 413.975 15.1172C413.975 18.8086 412.656 21.8555 410.02 24.2578C407.441 26.6602 404.014 27.8613 399.736 27.8613C395.4 27.8613 391.943 26.6602 389.365 24.2578C386.787 21.8555 385.498 18.8086 385.498 15.1172ZM456.689 7.03125L480.771 51.6797L504.854 7.03125H535L497.822 70.4883L535.967 135H505.557L480.771 89.4727L455.986 135H425.4L463.633 70.4883L426.367 7.03125H456.689Z"/>
</mask>
<path d="M96.4258 120.059L97.9188 121.389L97.9259 121.381L96.4258 120.059ZM79.1992 132.451L78.4094 130.614L78.4035 130.616L79.1992 132.451ZM35.0781 132.451L34.2825 134.286L34.2883 134.289L35.0781 132.451ZM17.8516 120.059L16.3594 121.39L16.3666 121.398L17.8516 120.059ZM6.51367 100.283L4.62061 100.929L4.62506 100.941L6.51367 100.283ZM6.51367 41.8359L8.40519 42.4857L8.40669 42.4813L6.51367 41.8359ZM17.6758 22.0605L16.1836 20.7288L16.1756 20.7378L17.6758 22.0605ZM34.9023 9.58008L34.1126 7.74261L34.1067 7.74516L34.9023 9.58008ZM79.0234 9.58008L78.2278 11.415L78.2337 11.4175L79.0234 9.58008ZM96.25 22.0605L94.7498 23.3833L94.7578 23.3923L96.25 22.0605ZM107.5 41.8359L105.607 42.4813L105.61 42.4899L105.613 42.4986L107.5 41.8359ZM68.8281 29.0039L67.8979 30.7744L67.9097 30.7806L67.9216 30.7867L68.8281 29.0039ZM45.0977 29.0039L46.0165 30.7804L46.0279 30.7744L45.0977 29.0039ZM36.3965 36.9141L34.7452 35.7857L34.7387 35.7951L34.7324 35.8047L36.3965 36.9141ZM31.0352 92.0215L29.0886 92.4808L29.0898 92.4857L31.0352 92.0215ZM36.4844 105.117L34.8245 106.233L34.8288 106.239L34.8331 106.246L36.4844 105.117ZM77.7051 105.117L79.3692 106.227L79.3734 106.22L79.3776 106.214L77.7051 105.117ZM83.0664 92.0215L85.0118 92.4857L85.013 92.4808L83.0664 92.0215ZM109.543 68.0273V74.0918H113.543V68.0273H109.543ZM109.543 74.0918C109.543 83.6394 108.249 92.1465 105.695 99.6379L109.481 100.929C112.2 92.9511 113.543 83.9973 113.543 74.0918H109.543ZM105.695 99.6379C103.133 107.154 99.5355 113.508 94.9256 118.736L97.9259 121.381C102.925 115.711 106.77 108.881 109.481 100.929L105.695 99.6379ZM94.9328 118.728C90.324 123.899 84.8224 127.857 78.4094 130.614L79.989 134.289C86.9354 131.303 92.9182 127 97.9188 121.389L94.9328 118.728ZM78.4035 130.616C72.0622 133.366 64.9839 134.758 57.1387 134.758V138.758C65.4653 138.758 73.0941 137.278 79.9949 134.286L78.4035 130.616ZM57.1387 134.758C49.3545 134.758 42.2733 133.367 35.8679 130.614L34.2883 134.289C41.2424 137.278 48.8682 138.758 57.1387 138.758V134.758ZM35.8738 130.616C29.5169 127.86 24.0093 123.898 19.3365 118.719L16.3666 121.398C21.4204 127 27.3972 131.3 34.2825 134.286L35.8738 130.616ZM19.3437 118.727C14.6757 113.496 11.0215 107.141 8.40228 99.6251L4.62506 100.941C7.39645 108.894 11.3009 115.722 16.3594 121.39L19.3437 118.727ZM8.40669 99.6379C5.85283 92.1465 4.55859 83.6394 4.55859 74.0918H0.558594C0.558594 83.9973 1.90108 92.9511 4.62065 100.929L8.40669 99.6379ZM4.55859 74.0918V68.0273H0.558594V74.0918H4.55859ZM4.55859 68.0273C4.55859 58.4192 5.85333 49.9144 8.40518 42.4857L4.62216 41.1862C1.90058 49.109 0.558594 58.0651 0.558594 68.0273H4.55859ZM8.40669 42.4813C10.969 34.9653 14.566 28.6116 19.1759 23.3833L16.1756 20.7378C11.1762 26.408 7.33183 33.2378 4.62065 41.1906L8.40669 42.4813ZM19.1679 23.3923C23.8407 18.1566 29.3461 14.1694 35.698 11.415L34.1067 7.74516C27.2164 10.733 21.2375 15.0661 16.1836 20.7288L19.1679 23.3923ZM35.6921 11.4175C42.0975 8.66435 49.1787 7.27344 56.9629 7.27344V3.27344C48.6924 3.27344 41.0666 4.75362 34.1126 7.74262L35.6921 11.4175ZM56.9629 7.27344C64.8081 7.27344 71.8864 8.6652 78.2278 11.415L79.8191 7.74516C72.9183 4.75277 65.2896 3.27344 56.9629 3.27344V7.27344ZM78.2337 11.4175C84.6416 14.1718 90.1411 18.1563 94.7499 23.3833L97.7501 20.7378C92.7495 15.0664 86.7647 10.7305 79.8132 7.74262L78.2337 11.4175ZM94.7578 23.3923C99.4229 28.6194 103.046 34.9701 105.607 42.4813L109.393 41.1906C106.68 33.233 102.804 26.4001 97.7422 20.7288L94.7578 23.3923ZM105.613 42.4986C108.22 49.9232 109.543 58.4234 109.543 68.0273H113.543C113.543 58.0609 112.171 49.1002 109.387 41.1733L105.613 42.4986ZM86.9121 74.0918V67.8516H82.9121V74.0918H86.9121ZM86.9121 67.8516C86.9121 60.9398 86.287 54.8016 85.0118 49.4576L81.121 50.3861C82.3067 55.3546 82.9121 61.1696 82.9121 67.8516H86.9121ZM85.0118 49.4576C83.738 44.1199 81.8377 39.5455 79.2685 35.7857L75.9659 38.0424C78.2014 41.3139 79.9339 45.4113 81.121 50.3861L85.0118 49.4576ZM79.2685 35.7857C76.6957 32.0206 73.5195 29.1457 69.7346 27.2211L67.9216 30.7867C71.0508 32.3778 73.734 34.7762 75.9659 38.0424L79.2685 35.7857ZM69.7584 27.2334C65.9764 25.2463 61.6942 24.2793 56.9629 24.2793V28.2793C61.1378 28.2793 64.7658 29.1287 67.8979 30.7744L69.7584 27.2334ZM56.9629 24.2793C52.2315 24.2793 47.9494 25.2463 44.1674 27.2334L46.0279 30.7744C49.16 29.1287 52.788 28.2793 56.9629 28.2793V24.2793ZM44.1788 27.2275C40.4543 29.1539 37.3128 32.0282 34.7452 35.7857L38.0478 38.0424C40.2848 34.7687 42.9441 32.3695 46.0165 30.7803L44.1788 27.2275ZM34.7324 35.8047C32.2289 39.5599 30.3617 44.1276 29.0898 49.4576L32.9805 50.3861C34.1695 45.4037 35.8766 41.2994 38.0606 38.0235L34.7324 35.8047ZM29.0898 49.4576C27.8145 54.8016 27.1895 60.9398 27.1895 67.8516H31.1895C31.1895 61.1696 31.7949 55.3546 32.9805 50.3861L29.0898 49.4576ZM27.1895 67.8516V74.0918H31.1895V67.8516H27.1895ZM27.1895 74.0918C27.1895 80.947 27.8149 87.0827 29.0886 92.4808L32.9817 91.5622C31.7945 86.5306 31.1895 80.7131 31.1895 74.0918H27.1895ZM29.0898 92.4857C30.3634 97.8226 32.262 102.42 34.8245 106.233L38.1443 104.002C35.9021 100.666 34.1679 96.5329 32.9805 91.5572L29.0898 92.4857ZM34.8331 106.246C37.4027 110.006 40.5714 112.904 44.3432 114.886L46.2037 111.345C43.0614 109.694 40.3707 107.26 38.1357 103.989L34.8331 106.246ZM44.3432 114.886C48.1252 116.873 52.4073 117.84 57.1387 117.84V113.84C52.9638 113.84 49.3358 112.99 46.2037 111.345L44.3432 114.886ZM57.1387 117.84C61.87 117.84 66.1522 116.873 69.9342 114.886L68.0737 111.345C64.9416 112.99 61.3136 113.84 57.1387 113.84V117.84ZM69.9342 114.886C73.7112 112.901 76.8555 109.997 79.3692 106.227L76.041 104.008C73.8671 107.269 71.2107 109.696 68.0737 111.345L69.9342 114.886ZM79.3776 106.214C81.8745 102.406 83.74 97.815 85.0118 92.4857L81.121 91.5572C79.9319 96.5405 78.2231 100.68 76.0326 104.02L79.3776 106.214ZM85.013 92.4808C86.2867 87.0827 86.9121 80.947 86.9121 74.0918H82.9121C82.9121 80.7131 82.3071 86.5306 81.1199 91.5622L85.013 92.4808ZM154.258 59.5898H156.258V59.5096L156.251 59.4296L154.258 59.5898ZM154.258 135V137H156.258V135H154.258ZM128.857 135H126.857V137H128.857V135ZM128.857 39.9023V37.9023H126.857V39.9023H128.857ZM152.676 39.9023L154.669 39.7421L154.522 37.9023H152.676V39.9023ZM150.742 84.1113V86.1113H152.742V84.1113H150.742ZM143.711 84.1113H141.711V86.1113H143.711V84.1113ZM146.084 65.8301L144.164 65.2701L144.16 65.2833L146.084 65.8301ZM153.203 51.2402L151.611 50.0295L151.609 50.033L153.203 51.2402ZM192.578 40.0781L191.89 41.9559L191.903 41.961L191.917 41.9658L192.578 40.0781ZM201.631 45.9668L200.17 47.3326L200.185 47.349L200.201 47.365L201.631 45.9668ZM207.607 56.3379L205.707 56.9625L205.71 56.9703L207.607 56.3379ZM209.717 135V137H211.717V135H209.717ZM184.404 135H182.404V137H184.404V135ZM177.637 59.4141L176.824 61.2417L176.834 61.2458L176.843 61.2498L177.637 59.4141ZM161.377 60.0293L160.416 58.2751L160.407 58.28L160.398 58.285L161.377 60.0293ZM155.4 65.6543L157.058 66.7732L157.064 66.7638L157.071 66.7543L155.4 65.6543ZM207.344 81.2109L207.594 83.1952L209.344 82.9744V81.2109H207.344ZM198.291 82.3535H196.291V84.6218L198.541 84.3378L198.291 82.3535ZM200.576 65.0391L198.659 64.4702L198.656 64.4799L198.653 64.4896L200.576 65.0391ZM207.52 50.9766L205.933 49.7583L205.928 49.7655L205.922 49.7729L207.52 50.9766ZM219.033 41.5723L219.909 43.3702L219.918 43.3657L219.928 43.3611L219.033 41.5723ZM247.334 40.166L246.658 42.0482L246.671 42.0529L246.684 42.0574L247.334 40.166ZM256.914 46.4062L255.441 47.7591L255.455 47.7747L255.47 47.7901L256.914 46.4062ZM263.066 57.4805L261.155 58.0686L261.158 58.0798L261.162 58.0909L263.066 57.4805ZM265.264 135V137H267.264V135H265.264ZM239.863 135H237.863V137H239.863V135ZM238.105 64.248L236.299 65.1062L236.312 65.1336L236.326 65.1607L238.105 64.248ZM233.184 59.4141L232.371 61.2417L232.402 61.2551L232.432 61.2675L233.184 59.4141ZM217.627 59.8535L218.54 61.6332L218.557 61.624L218.575 61.6145L217.627 59.8535ZM208.486 72.1582L210.414 72.6914L210.417 72.681L208.486 72.1582ZM152.258 59.5898V135H156.258V59.5898H152.258ZM154.258 133H128.857V137H154.258V133ZM130.857 135V39.9023H126.857V135H130.857ZM128.857 41.9023H152.676V37.9023H128.857V41.9023ZM150.682 40.0625L152.264 59.75L156.251 59.4296L154.669 39.7421L150.682 40.0625ZM150.742 82.1113H143.711V86.1113H150.742V82.1113ZM145.711 84.1113C145.711 77.6491 146.483 71.7419 148.008 66.3768L144.16 65.2833C142.521 71.051 141.711 77.3314 141.711 84.1113H145.711ZM148.004 66.3901C149.586 60.9667 151.858 56.3299 154.798 52.4475L151.609 50.033C148.337 54.3537 145.863 59.4435 144.164 65.2701L148.004 66.3901ZM154.795 52.451C157.774 48.5339 161.43 45.5121 165.778 43.3656L164.007 39.7789C159.097 42.2028 154.96 45.6263 151.611 50.0295L154.795 52.451ZM165.778 43.3656C170.086 41.2388 175.135 40.1445 180.977 40.1445V36.1445C174.631 36.1445 168.957 37.3354 164.007 39.7789L165.778 43.3656ZM180.977 40.1445C184.99 40.1445 188.621 40.7572 191.89 41.9559L193.267 38.2004C189.504 36.8209 185.401 36.1445 180.977 36.1445V40.1445ZM191.917 41.9658C195.131 43.0906 197.873 44.8757 200.17 47.3326L203.092 44.601C200.35 41.6673 197.056 39.5266 193.239 38.1904L191.917 41.9658ZM200.201 47.365C202.523 49.7402 204.376 52.9125 205.707 56.9625L209.507 55.7132C208.026 51.2086 205.895 47.4668 203.061 44.5686L200.201 47.365ZM205.71 56.9703C207.03 60.9303 207.717 65.7733 207.717 71.543H211.717C211.717 65.4767 210.997 60.1829 209.505 55.7054L205.71 56.9703ZM207.717 71.543V135H211.717V71.543H207.717ZM209.717 133H184.404V137H209.717V133ZM186.404 135V74.3555H182.404V135H186.404ZM186.404 74.3555C186.404 69.8879 185.809 66.1879 184.435 63.4415L180.858 65.2304C181.828 67.1715 182.404 70.1512 182.404 74.3555H186.404ZM184.435 63.4415C183.078 60.7259 181.079 58.7235 178.431 57.5783L176.843 61.2498C178.531 61.9797 179.872 63.2585 180.858 65.2304L184.435 63.4415ZM178.449 57.5864C176.02 56.5071 173.179 56.0078 169.99 56.0078V60.0078C172.778 60.0078 175.034 60.4461 176.824 61.2417L178.449 57.5864ZM169.99 56.0078C166.43 56.0078 163.218 56.7408 160.416 58.2751L162.338 61.7835C164.458 60.6225 166.988 60.0078 169.99 60.0078V56.0078ZM160.398 58.285C157.705 59.7961 155.48 61.8972 153.73 64.5543L157.071 66.7543C158.485 64.6067 160.244 62.9578 162.355 61.7736L160.398 58.285ZM153.743 64.5354C152.008 67.1046 150.75 70.0861 149.94 73.4479L153.829 74.3841C154.543 71.4178 155.628 68.8914 157.058 66.7732L153.743 64.5354ZM149.94 73.4479C149.138 76.7818 148.742 80.3388 148.742 84.1113H152.742C152.742 80.6182 153.108 77.3783 153.829 74.3841L149.94 73.4479ZM207.093 79.2267L198.041 80.3693L198.541 84.3378L207.594 83.1952L207.093 79.2267ZM200.291 82.3535C200.291 76.3065 201.033 70.7219 202.499 65.5885L198.653 64.4896C197.073 70.0203 196.291 75.9787 196.291 82.3535H200.291ZM202.494 65.608C204.014 60.4824 206.227 56.0145 209.117 52.1803L205.922 49.7729C202.718 54.0245 200.302 58.9317 198.659 64.4702L202.494 65.608ZM209.106 52.1949C212.023 48.3968 215.618 45.4608 219.909 43.3702L218.157 39.7743C213.308 42.1369 209.227 45.4704 205.933 49.7583L209.106 52.1949ZM219.928 43.3611C224.177 41.2365 229.135 40.1445 234.854 40.1445V36.1445C228.619 36.1445 223.03 37.3377 218.139 39.7834L219.928 43.3611ZM234.854 40.1445C239.227 40.1445 243.154 40.789 246.658 42.0482L248.01 38.2839C244.014 36.8477 239.621 36.1445 234.854 36.1445V40.1445ZM246.684 42.0574C250.125 43.2402 253.034 45.1376 255.441 47.7591L258.387 45.0534C255.521 41.9328 252.043 39.67 247.984 38.2746L246.684 42.0574ZM255.47 47.7901C257.906 50.332 259.82 53.7297 261.155 58.0686L264.978 56.8923C263.501 52.0906 261.313 48.1055 258.358 45.0224L255.47 47.7901ZM261.162 58.0909C262.545 62.4049 263.264 67.781 263.264 74.2676H267.264C267.264 67.5119 266.518 61.6966 264.971 56.87L261.162 58.0909ZM263.264 74.2676V135H267.264V74.2676H263.264ZM265.264 133H239.863V137H265.264V133ZM241.863 135V74.2676H237.863V135H241.863ZM241.863 74.2676C241.863 69.7518 241.271 66.0371 239.885 63.3354L236.326 65.1607C237.284 67.0293 237.863 69.9943 237.863 74.2676H241.863ZM239.912 63.3899C238.609 60.6474 236.619 58.6486 233.935 57.5606L232.432 61.2675C234.084 61.9373 235.375 63.1612 236.299 65.1062L239.912 63.3899ZM233.996 57.5864C231.572 56.5091 228.762 56.0078 225.625 56.0078V60.0078C228.348 60.0078 230.577 60.444 232.371 61.2417L233.996 57.5864ZM225.625 56.0078C222.305 56.0078 219.302 56.6799 216.679 58.0926L218.575 61.6145C220.522 60.5662 222.851 60.0078 225.625 60.0078V56.0078ZM216.714 58.0739C214.144 59.3918 211.998 61.2426 210.293 63.6044L213.535 65.9464C214.877 64.0895 216.539 62.659 218.54 61.6332L216.714 58.0739ZM210.293 63.6044C208.612 65.9314 207.373 68.6177 206.556 71.6354L210.417 72.681C211.123 70.0737 212.169 67.8381 213.535 65.9464L210.293 63.6044ZM206.559 71.625C205.742 74.5761 205.344 77.7756 205.344 81.2109H209.344C209.344 78.0838 209.707 75.2482 210.414 72.6914L206.559 71.625ZM309.648 60.2051H311.648V60.1273L311.642 60.0497L309.648 60.2051ZM309.648 135V137H311.648V135H309.648ZM284.336 135H282.336V137H284.336V135ZM284.336 39.9023V37.9023H282.336V39.9023H284.336ZM308.066 39.9023L310.06 39.747L309.917 37.9023H308.066V39.9023ZM305.957 84.1113V86.1113H307.957V84.1113H305.957ZM299.102 84.1113H297.102V86.1113H299.102V84.1113ZM301.826 65.127L303.729 65.7415L303.731 65.7358L301.826 65.127ZM309.473 50.625L311.017 51.8964L311.021 51.8909L311.026 51.8853L309.473 50.625ZM321.162 41.3965L322.009 43.2083L322.019 43.2035L321.162 41.3965ZM358.164 46.2305L356.705 47.5984L356.712 47.6064L356.72 47.6143L358.164 46.2305ZM364.316 57.3926L362.403 57.9739L362.406 57.985L362.41 57.996L364.316 57.3926ZM366.514 135V137H368.514V135H366.514ZM341.025 135H339.025V137H341.025V135ZM334.082 59.502L333.265 61.3276L333.294 61.3404L333.323 61.3523L334.082 59.502ZM316.943 60.0293L316 58.2657L315.991 58.2704L315.983 58.2751L316.943 60.0293ZM310.791 65.6543L309.139 64.5264L309.133 64.5354L310.791 65.6543ZM307.648 60.2051V135H311.648V60.2051H307.648ZM309.648 133H284.336V137H309.648V133ZM286.336 135V39.9023H282.336V135H286.336ZM284.336 41.9023H308.066V37.9023H284.336V41.9023ZM306.072 40.0577L307.654 60.3605L311.642 60.0497L310.06 39.747L306.072 40.0577ZM305.957 82.1113H299.102V86.1113H305.957V82.1113ZM301.102 84.1113C301.102 77.2504 301.988 71.1345 303.729 65.7415L299.923 64.5124C298.032 70.3694 297.102 76.9098 297.102 84.1113H301.102ZM303.731 65.7358C305.482 60.2567 307.92 55.6568 311.017 51.8964L307.929 49.3536C304.463 53.562 301.803 58.63 299.921 64.5181L303.731 65.7358ZM311.026 51.8853C314.125 48.0662 317.784 45.1837 322.009 43.2082L320.315 39.5847C315.517 41.828 311.383 45.0979 307.92 49.3647L311.026 51.8853ZM322.019 43.2035C326.293 41.1762 331.093 40.1445 336.455 40.1445V36.1445C330.567 36.1445 325.172 37.2808 320.305 39.5895L322.019 43.2035ZM336.455 40.1445C340.714 40.1445 344.56 40.7608 348.013 41.9663L349.331 38.1899C345.401 36.8174 341.102 36.1445 336.455 36.1445V40.1445ZM348.013 41.9663C351.404 43.1506 354.292 45.0247 356.705 47.5984L359.623 44.8626C356.762 41.8112 353.323 39.5838 349.331 38.1899L348.013 41.9663ZM356.72 47.6143C359.152 50.1516 361.066 53.5744 362.403 57.9739L366.23 56.8112C364.754 51.9529 362.567 47.9343 359.608 44.8467L356.72 47.6143ZM362.41 57.996C363.794 62.3719 364.514 67.8094 364.514 74.3555H368.514C368.514 67.5422 367.768 61.6711 366.223 56.7892L362.41 57.996ZM364.514 74.3555V135H368.514V74.3555H364.514ZM366.514 133H341.025V137H366.514V133ZM343.025 135V74.2676H339.025V135H343.025ZM343.025 74.2676C343.025 69.9069 342.427 66.2701 341.056 63.5294L337.479 65.3183C338.452 67.2651 339.025 70.1908 339.025 74.2676H343.025ZM341.056 63.5294C339.683 60.7816 337.603 58.7845 334.841 57.6516L333.323 61.3523C335.132 62.0944 336.509 63.3785 337.479 65.3183L341.056 63.5294ZM334.899 57.6763C332.343 56.5329 329.291 56.0078 325.82 56.0078V60.0078C328.912 60.0078 331.368 60.4788 333.265 61.3276L334.899 57.6763ZM325.82 56.0078C322.155 56.0078 318.86 56.736 316 58.2657L317.887 61.7929C320.066 60.6273 322.689 60.0078 325.82 60.0078V56.0078ZM315.983 58.2751C313.235 59.7798 310.951 61.8736 309.139 64.5264L312.443 66.7822C313.912 64.6303 315.73 62.9741 317.904 61.7835L315.983 58.2751ZM309.133 64.5354C307.406 67.0943 306.12 70.0637 305.252 73.4141L309.123 74.4179C309.896 71.4402 311.012 68.9018 312.449 66.7732L309.133 64.5354ZM305.252 73.4141C304.384 76.7591 303.957 80.3277 303.957 84.1113H307.957C307.957 80.6293 308.35 77.401 309.123 74.4179L305.252 73.4141ZM412.48 39.9023H414.48V37.9023H412.48V39.9023ZM412.48 135V137H414.48V135H412.48ZM387.08 135H385.08V137H387.08V135ZM387.08 39.9023V37.9023H385.08V39.9023H387.08ZM410.02 5.97656L408.656 7.43978L408.664 7.44741L408.673 7.45496L410.02 5.97656ZM410.02 24.2578L408.673 22.7794L408.664 22.787L408.656 22.7946L410.02 24.2578ZM410.48 39.9023V135H414.48V39.9023H410.48ZM412.48 133H387.08V137H412.48V133ZM389.08 135V39.9023H385.08V135H389.08ZM387.08 41.9023H412.48V37.9023H387.08V41.9023ZM387.498 15.1172C387.498 11.951 388.578 9.44403 390.729 7.43978L388.002 4.51335C384.996 7.31379 383.498 10.9006 383.498 15.1172H387.498ZM390.729 7.43978C392.856 5.45771 395.784 4.37305 399.736 4.37305V0.373047C395.017 0.373047 391.031 1.69073 388.002 4.51335L390.729 7.43978ZM399.736 4.37305C403.622 4.37305 406.524 5.45305 408.656 7.43978L411.383 4.51335C408.359 1.69538 404.406 0.373047 399.736 0.373047V4.37305ZM408.673 7.45496C410.877 9.46358 411.975 11.9662 411.975 15.1172H415.975C415.975 10.8853 414.435 7.29424 411.367 4.49817L408.673 7.45496ZM411.975 15.1172C411.975 18.2681 410.877 20.7708 408.673 22.7794L411.367 25.7362C414.435 22.9401 415.975 19.3491 415.975 15.1172H411.975ZM408.656 22.7946C406.524 24.7813 403.622 25.8613 399.736 25.8613V29.8613C404.406 29.8613 408.359 28.539 411.383 25.721L408.656 22.7946ZM399.736 25.8613C395.784 25.8613 392.856 24.7767 390.729 22.7946L388.002 25.721C391.031 28.5436 395.017 29.8613 399.736 29.8613V25.8613ZM390.729 22.7946C388.578 20.7903 387.498 18.2834 387.498 15.1172H383.498C383.498 19.3338 384.996 22.9206 388.002 25.721L390.729 22.7946ZM456.689 7.03125L458.45 6.08181L457.883 5.03125H456.689V7.03125ZM480.771 51.6797L479.011 52.6291L480.771 55.8927L482.532 52.6291L480.771 51.6797ZM504.854 7.03125V5.03125H503.66L503.093 6.08181L504.854 7.03125ZM535 7.03125L536.726 8.04226L538.49 5.03125H535V7.03125ZM497.822 70.4883L496.097 69.4773L495.502 70.4929L496.101 71.5062L497.822 70.4883ZM535.967 135V137H539.473L537.688 133.982L535.967 135ZM505.557 135L503.8 135.956L504.368 137H505.557V135ZM480.771 89.4727L482.528 88.5164L480.771 85.2898L479.015 88.5164L480.771 89.4727ZM455.986 135V137H457.175L457.743 135.956L455.986 135ZM425.4 135L423.68 133.98L421.89 137H425.4V135ZM463.633 70.4883L465.353 71.508L465.955 70.4929L465.357 69.4755L463.633 70.4883ZM426.367 7.03125V5.03125H422.873L424.643 8.04404L426.367 7.03125ZM454.929 7.98069L479.011 52.6291L482.532 50.7302L458.45 6.08181L454.929 7.98069ZM482.532 52.6291L506.614 7.98069L503.093 6.08181L479.011 50.7302L482.532 52.6291ZM504.854 9.03125H535V5.03125H504.854V9.03125ZM533.274 6.02024L496.097 69.4773L499.548 71.4993L536.726 8.04226L533.274 6.02024ZM496.101 71.5062L534.245 136.018L537.688 133.982L499.544 69.4703L496.101 71.5062ZM535.967 133H505.557V137H535.967V133ZM507.313 134.044L482.528 88.5164L479.015 90.4289L503.8 135.956L507.313 134.044ZM479.015 88.5164L454.23 134.044L457.743 135.956L482.528 90.4289L479.015 88.5164ZM455.986 133H425.4V137H455.986V133ZM427.121 136.02L465.353 71.508L461.912 69.4686L423.68 133.98L427.121 136.02ZM465.357 69.4755L428.092 6.01846L424.643 8.04404L461.908 71.5011L465.357 69.4755ZM426.367 9.03125H456.689V5.03125H426.367V9.03125Z" fill="#D9D9D9" mask="url(#path-1-outside-1_3022_119)"/>
</svg>
