<svg width="724" height="169" viewBox="0 0 724 169" fill="none" xmlns="http://www.w3.org/2000/svg">
<mask id="path-1-outside-1_3001_122" maskUnits="userSpaceOnUse" x="0" y="0" width="724" height="169" fill="black">
<rect fill="white" width="724" height="169"/>
<path d="M2.42578 2.03125H50.1504C59.9355 2.03125 68.3438 3.49609 75.375 6.42578C82.4648 9.35547 87.9141 13.6914 91.7227 19.4336C95.5312 25.1758 97.4355 32.2363 97.4355 40.6152C97.4355 47.4707 96.2637 53.3594 93.9199 58.2812C91.6348 63.1445 88.3828 67.2168 84.1641 70.498C80.0039 73.7207 75.1113 76.2988 69.4863 78.2324L61.1367 82.627H19.6523L19.4766 62.0605H50.3262C54.9551 62.0605 58.793 61.2402 61.8398 59.5996C64.8867 57.959 67.1719 55.6738 68.6953 52.7441C70.2773 49.8145 71.0684 46.416 71.0684 42.5488C71.0684 38.4473 70.3066 34.9023 68.7832 31.9141C67.2598 28.9258 64.9453 26.6406 61.8398 25.0586C58.7344 23.4766 54.8379 22.6855 50.1504 22.6855H28.793V130H2.42578V2.03125ZM73.9688 130L44.7891 72.959L72.6504 72.7832L102.182 128.77V130H73.9688ZM159.926 131.758C152.543 131.758 145.922 130.586 140.062 128.242C134.203 125.84 129.223 122.529 125.121 118.311C121.078 114.092 117.973 109.199 115.805 103.633C113.637 98.0078 112.553 92.0312 112.553 85.7031V82.1875C112.553 74.9805 113.578 68.3887 115.629 62.4121C117.68 56.4355 120.609 51.25 124.418 46.8555C128.285 42.4609 132.973 39.0918 138.48 36.748C143.988 34.3457 150.199 33.1445 157.113 33.1445C163.852 33.1445 169.828 34.2578 175.043 36.4844C180.258 38.7109 184.623 41.875 188.139 45.9766C191.713 50.0781 194.408 55 196.225 60.7422C198.041 66.4258 198.949 72.7539 198.949 79.7266V90.2734H123.363V73.3984H174.076V71.4648C174.076 67.9492 173.432 64.8145 172.143 62.0605C170.912 59.248 169.037 57.0215 166.518 55.3809C163.998 53.7402 160.775 52.9199 156.85 52.9199C153.51 52.9199 150.639 53.6523 148.236 55.1172C145.834 56.582 143.871 58.6328 142.348 61.2695C140.883 63.9062 139.77 67.0117 139.008 70.5859C138.305 74.1016 137.953 77.9688 137.953 82.1875V85.7031C137.953 89.5117 138.48 93.0273 139.535 96.25C140.648 99.4727 142.201 102.256 144.193 104.6C146.244 106.943 148.705 108.76 151.576 110.049C154.506 111.338 157.816 111.982 161.508 111.982C166.078 111.982 170.326 111.104 174.252 109.346C178.236 107.529 181.664 104.805 184.535 101.172L196.84 114.531C194.848 117.402 192.123 120.156 188.666 122.793C185.268 125.43 181.166 127.598 176.361 129.297C171.557 130.938 166.078 131.758 159.926 131.758ZM238.676 53.1836V166.562H213.363V34.9023H236.83L238.676 53.1836ZM298.881 81.3965V83.2422C298.881 90.1562 298.061 96.5723 296.42 102.49C294.838 108.408 292.494 113.564 289.389 117.959C286.283 122.295 282.416 125.693 277.787 128.154C273.217 130.557 267.943 131.758 261.967 131.758C256.166 131.758 251.127 130.586 246.85 128.242C242.572 125.898 238.969 122.617 236.039 118.398C233.168 114.121 230.854 109.17 229.096 103.545C227.338 97.9199 225.99 91.8848 225.053 85.4395V80.6055C225.99 73.6914 227.338 67.3633 229.096 61.6211C230.854 55.8203 233.168 50.8105 236.039 46.5918C238.969 42.3145 242.543 39.0039 246.762 36.6602C251.039 34.3164 256.049 33.1445 261.791 33.1445C267.826 33.1445 273.129 34.2871 277.699 36.5723C282.328 38.8574 286.195 42.1387 289.301 46.416C292.465 50.6934 294.838 55.791 296.42 61.709C298.061 67.627 298.881 74.1895 298.881 81.3965ZM273.48 83.2422V81.3965C273.48 77.3535 273.129 73.6328 272.426 70.2344C271.781 66.7773 270.727 63.7598 269.262 61.1816C267.855 58.6035 265.98 56.6113 263.637 55.2051C261.352 53.7402 258.568 53.0078 255.287 53.0078C251.83 53.0078 248.871 53.5645 246.41 54.6777C244.008 55.791 242.045 57.4023 240.521 59.5117C238.998 61.6211 237.855 64.1406 237.094 67.0703C236.332 70 235.863 73.3105 235.688 77.002V89.2188C235.98 93.5547 236.801 97.4512 238.148 100.908C239.496 104.307 241.576 107.002 244.389 108.994C247.201 110.986 250.893 111.982 255.463 111.982C258.803 111.982 261.615 111.25 263.9 109.785C266.186 108.262 268.031 106.182 269.438 103.545C270.902 100.908 271.928 97.8613 272.514 94.4043C273.158 90.9473 273.48 87.2266 273.48 83.2422ZM370.863 107.236V34.9023H396.176V130H372.357L370.863 107.236ZM373.676 87.7246L381.146 87.5488C381.146 93.877 380.414 99.7656 378.949 105.215C377.484 110.605 375.287 115.293 372.357 119.277C369.428 123.203 365.736 126.279 361.283 128.506C356.83 130.674 351.586 131.758 345.551 131.758C340.922 131.758 336.645 131.113 332.719 129.824C328.852 128.477 325.512 126.396 322.699 123.584C319.945 120.713 317.777 117.051 316.195 112.598C314.672 108.086 313.91 102.666 313.91 96.3379V34.9023H339.223V96.5137C339.223 99.3262 339.545 101.699 340.189 103.633C340.893 105.566 341.859 107.148 343.09 108.379C344.32 109.609 345.756 110.488 347.396 111.016C349.096 111.543 350.971 111.807 353.021 111.807C358.236 111.807 362.338 110.752 365.326 108.643C368.373 106.533 370.512 103.662 371.742 100.029C373.031 96.3379 373.676 92.2363 373.676 87.7246ZM462.094 34.9023V52.832H406.723V34.9023H462.094ZM420.434 11.4355H445.746V101.348C445.746 104.102 446.098 106.211 446.801 107.676C447.562 109.141 448.676 110.166 450.141 110.752C451.605 111.279 453.451 111.543 455.678 111.543C457.26 111.543 458.666 111.484 459.896 111.367C461.186 111.191 462.27 111.016 463.148 110.84L463.236 129.473C461.068 130.176 458.725 130.732 456.205 131.143C453.686 131.553 450.902 131.758 447.855 131.758C442.289 131.758 437.426 130.85 433.266 129.033C429.164 127.158 426 124.17 423.773 120.068C421.547 115.967 420.434 110.576 420.434 103.896V11.4355ZM527.836 108.555V66.1914C527.836 63.1445 527.338 60.5371 526.342 58.3691C525.346 56.1426 523.793 54.4141 521.684 53.1836C519.633 51.9531 516.967 51.3379 513.686 51.3379C510.873 51.3379 508.441 51.8359 506.391 52.832C504.34 53.7695 502.758 55.1465 501.645 56.9629C500.531 58.7207 499.975 60.8008 499.975 63.2031H474.662C474.662 59.1602 475.6 55.3223 477.475 51.6895C479.35 48.0566 482.074 44.8633 485.648 42.1094C489.223 39.2969 493.471 37.0996 498.393 35.5176C503.373 33.9355 508.939 33.1445 515.092 33.1445C522.475 33.1445 529.037 34.375 534.779 36.8359C540.521 39.2969 545.033 42.9883 548.314 47.9102C551.654 52.832 553.324 58.9844 553.324 66.3672V107.061C553.324 112.275 553.646 116.553 554.291 119.893C554.936 123.174 555.873 126.045 557.104 128.506V130H531.527C530.297 127.422 529.359 124.199 528.715 120.332C528.129 116.406 527.836 112.48 527.836 108.555ZM531.176 72.0801L531.352 86.4062H517.201C513.861 86.4062 510.961 86.7871 508.5 87.5488C506.039 88.3105 504.018 89.3945 502.436 90.8008C500.854 92.1484 499.682 93.7305 498.92 95.5469C498.217 97.3633 497.865 99.3555 497.865 101.523C497.865 103.691 498.363 105.654 499.359 107.412C500.355 109.111 501.791 110.459 503.666 111.455C505.541 112.393 507.738 112.861 510.258 112.861C514.066 112.861 517.377 112.1 520.189 110.576C523.002 109.053 525.17 107.178 526.693 104.951C528.275 102.725 529.096 100.615 529.154 98.623L535.834 109.346C534.896 111.748 533.607 114.238 531.967 116.816C530.385 119.395 528.363 121.826 525.902 124.111C523.441 126.338 520.482 128.184 517.025 129.648C513.568 131.055 509.467 131.758 504.721 131.758C498.686 131.758 493.207 130.557 488.285 128.154C483.422 125.693 479.555 122.324 476.684 118.047C473.871 113.711 472.465 108.789 472.465 103.281C472.465 98.3008 473.402 93.877 475.277 90.0098C477.152 86.1426 479.906 82.8906 483.539 80.2539C487.23 77.5586 491.83 75.5371 497.338 74.1895C502.846 72.7832 509.232 72.0801 516.498 72.0801H531.176ZM640.951 2.03125L665.033 46.6797L689.115 2.03125H719.262L682.084 65.4883L720.229 130H689.818L665.033 84.4727L640.248 130H609.662L647.895 65.4883L610.629 2.03125H640.951Z"/>
</mask>
<path d="M2.42578 2.03125V0.03125H0.425781V2.03125H2.42578ZM75.375 6.42578L74.6058 8.27194L74.6112 8.27419L75.375 6.42578ZM93.9199 58.2812L92.1142 57.4214L92.1098 57.4307L93.9199 58.2812ZM84.1641 70.498L85.3889 72.0791L85.3919 72.0768L84.1641 70.498ZM69.4863 78.2324L68.8362 76.341L68.6908 76.391L68.5548 76.4626L69.4863 78.2324ZM61.1367 82.627V84.627H61.6309L62.0682 84.3968L61.1367 82.627ZM19.6523 82.627L17.6524 82.644L17.6694 84.627H19.6523V82.627ZM19.4766 62.0605V60.0605H17.4594L17.4766 62.0776L19.4766 62.0605ZM68.6953 52.7441L66.9355 51.7938L66.9281 51.8076L66.9209 51.8214L68.6953 52.7441ZM28.793 22.6855V20.6855H26.793V22.6855H28.793ZM28.793 130V132H30.793V130H28.793ZM2.42578 130H0.425781V132H2.42578V130ZM73.9688 130L72.1882 130.911L72.7454 132H73.9688V130ZM44.7891 72.959L44.7764 70.959L41.5299 70.9795L43.0085 73.8698L44.7891 72.959ZM72.6504 72.7832L74.4194 71.8501L73.8526 70.7756L72.6378 70.7832L72.6504 72.7832ZM102.182 128.77H104.182V128.274L103.951 127.836L102.182 128.77ZM102.182 130V132H104.182V130H102.182ZM2.42578 4.03125H50.1504V0.03125H2.42578V4.03125ZM50.1504 4.03125C59.7435 4.03125 67.8769 5.46824 74.6058 8.27194L76.1442 4.57963C68.8106 1.52395 60.1276 0.03125 50.1504 0.03125V4.03125ZM74.6112 8.27419C81.3762 11.0696 86.4922 15.166 90.0559 20.5391L93.3894 18.3281C89.3359 12.2168 83.5535 7.64131 76.1388 4.57738L74.6112 8.27419ZM90.0559 20.5391C93.6042 25.8887 95.4355 32.5438 95.4355 40.6152H99.4355C99.4355 31.9289 97.4583 24.4629 93.3894 18.3281L90.0559 20.5391ZM95.4355 40.6152C95.4355 47.2477 94.3015 52.8281 92.1142 57.4214L95.7256 59.1411C98.2259 53.8907 99.4355 47.6937 99.4355 40.6152H95.4355ZM92.1098 57.4307C89.9579 62.0104 86.9048 65.8326 82.9362 68.9193L85.3919 72.0768C89.8608 68.601 93.3116 64.2787 95.7301 59.1318L92.1098 57.4307ZM82.9393 68.9169C78.9733 71.9892 74.2806 74.4695 68.8362 76.341L70.1365 80.1238C75.9421 78.1281 81.0345 75.4523 85.3889 72.0791L82.9393 68.9169ZM68.5548 76.4626L60.2052 80.8571L62.0682 84.3968L70.4178 80.0023L68.5548 76.4626ZM61.1367 80.627H19.6523V84.627H61.1367V80.627ZM21.6523 82.6099L21.4765 62.0435L17.4766 62.0776L17.6524 82.644L21.6523 82.6099ZM19.4766 64.0605H50.3262V60.0605H19.4766V64.0605ZM50.3262 64.0605C55.1788 64.0605 59.368 63.2021 62.788 61.3606L60.8916 57.8387C58.2179 59.2784 54.7314 60.0605 50.3262 60.0605V64.0605ZM62.788 61.3606C66.1703 59.5394 68.752 56.9701 70.4697 53.6668L66.9209 51.8214C65.5917 54.3775 63.6032 56.3786 60.8916 57.8387L62.788 61.3606ZM70.4551 53.6944C72.2186 50.4288 73.0684 46.6939 73.0684 42.5488H69.0684C69.0684 46.1381 68.3361 49.2001 66.9355 51.7938L70.4551 53.6944ZM73.0684 42.5488C73.0684 38.2008 72.2604 34.3312 70.565 31.0057L67.0014 32.8224C68.3529 35.4735 69.0684 38.6937 69.0684 42.5488H73.0684ZM70.565 31.0057C68.8419 27.6258 66.2137 25.0422 62.7477 23.2765L60.932 26.8407C63.6769 28.239 65.6776 30.2257 67.0014 32.8224L70.565 31.0057ZM62.7477 23.2765C59.2811 21.5105 55.0496 20.6855 50.1504 20.6855V24.6855C54.6262 24.6855 58.1876 25.4426 60.932 26.8407L62.7477 23.2765ZM50.1504 20.6855H28.793V24.6855H50.1504V20.6855ZM26.793 22.6855V130H30.793V22.6855H26.793ZM28.793 128H2.42578V132H28.793V128ZM4.42578 130V2.03125H0.425781V130H4.42578ZM75.7493 129.089L46.5696 72.0481L43.0085 73.8698L72.1882 130.911L75.7493 129.089ZM44.8017 74.9589L72.663 74.7832L72.6378 70.7832L44.7764 70.959L44.8017 74.9589ZM70.8814 73.7163L100.413 129.703L103.951 127.836L74.4194 71.8501L70.8814 73.7163ZM100.182 128.77V130H104.182V128.77H100.182ZM102.182 128H73.9688V132H102.182V128ZM140.062 128.242L139.304 130.093L139.312 130.096L139.32 130.099L140.062 128.242ZM125.121 118.311L123.677 119.694L123.682 119.7L123.687 119.705L125.121 118.311ZM115.805 103.633L113.938 104.352L113.941 104.359L115.805 103.633ZM124.418 46.8555L122.917 45.5342L122.912 45.5399L122.907 45.5456L124.418 46.8555ZM138.48 36.748L139.264 38.5884L139.272 38.5848L139.28 38.5813L138.48 36.748ZM188.139 45.9766L186.62 47.2781L186.625 47.2844L186.631 47.2905L188.139 45.9766ZM196.225 60.7422L194.318 61.3454L194.32 61.351L196.225 60.7422ZM198.949 90.2734V92.2734H200.949V90.2734H198.949ZM123.363 90.2734H121.363V92.2734H123.363V90.2734ZM123.363 73.3984V71.3984H121.363V73.3984H123.363ZM174.076 73.3984V75.3984H176.076V73.3984H174.076ZM172.143 62.0605L170.31 62.8622L170.32 62.8854L170.331 62.9084L172.143 62.0605ZM142.348 61.2695L140.616 60.269L140.608 60.2835L140.599 60.2982L142.348 61.2695ZM139.008 70.5859L137.052 70.1691L137.049 70.1814L137.047 70.1937L139.008 70.5859ZM139.535 96.25L137.634 96.8721L137.639 96.8876L137.645 96.903L139.535 96.25ZM144.193 104.6L142.669 105.895L142.679 105.906L142.688 105.917L144.193 104.6ZM151.576 110.049L150.757 111.873L150.764 111.876L150.771 111.879L151.576 110.049ZM174.252 109.346L175.069 111.171L175.082 111.166L174.252 109.346ZM184.535 101.172L186.006 99.8169L184.419 98.0935L182.966 99.9318L184.535 101.172ZM196.84 114.531L198.483 115.671L199.397 114.355L198.311 113.176L196.84 114.531ZM188.666 122.793L187.453 121.203L187.447 121.208L187.44 121.213L188.666 122.793ZM176.361 129.297L177.008 131.19L177.018 131.186L177.028 131.182L176.361 129.297ZM159.926 129.758C152.755 129.758 146.392 128.62 140.805 126.385L139.32 130.099C145.452 132.552 152.331 133.758 159.926 133.758V129.758ZM140.821 126.392C135.196 124.085 130.451 120.924 126.555 116.916L123.687 119.705C127.994 124.135 133.21 127.594 139.304 130.093L140.821 126.392ZM126.565 116.927C122.708 112.902 119.743 108.234 117.668 102.907L113.941 104.359C116.202 110.164 119.448 115.282 123.677 119.694L126.565 116.927ZM117.671 102.914C115.596 97.5293 114.553 91.7977 114.553 85.7031H110.553C110.553 92.2648 111.678 98.4863 113.938 104.352L117.671 102.914ZM114.553 85.7031V82.1875H110.553V85.7031H114.553ZM114.553 82.1875C114.553 75.1707 115.551 68.8018 117.521 63.0612L113.737 61.763C111.605 67.9756 110.553 74.7902 110.553 82.1875H114.553ZM117.521 63.0612C119.495 57.3061 122.303 52.3499 125.929 48.1653L122.907 45.5456C118.916 50.1501 115.864 55.565 113.737 61.763L117.521 63.0612ZM125.919 48.1767C129.584 44.0119 134.025 40.8177 139.264 38.5884L137.697 34.9077C131.921 37.3659 126.986 40.91 122.917 45.5342L125.919 48.1767ZM139.28 38.5813C144.5 36.3043 150.433 35.1445 157.113 35.1445V31.1445C149.965 31.1445 143.476 32.3871 137.681 34.9148L139.28 38.5813ZM157.113 35.1445C163.632 35.1445 169.333 36.2212 174.258 38.3237L175.828 34.645C170.323 32.2945 164.072 31.1445 157.113 31.1445V35.1445ZM174.258 38.3237C179.204 40.4359 183.314 43.4214 186.62 47.2781L189.657 44.675C185.932 40.3286 181.311 36.986 175.828 34.645L174.258 38.3237ZM186.631 47.2905C190.006 51.1639 192.575 55.8368 194.318 61.3454L198.131 60.139C196.241 54.1632 193.42 48.9923 189.646 44.6626L186.631 47.2905ZM194.32 61.351C196.063 66.8079 196.949 72.9266 196.949 79.7266H200.949C200.949 72.5813 200.019 66.0437 198.13 60.1333L194.32 61.351ZM196.949 79.7266V90.2734H200.949V79.7266H196.949ZM198.949 88.2734H123.363V92.2734H198.949V88.2734ZM125.363 90.2734V73.3984H121.363V90.2734H125.363ZM123.363 75.3984H174.076V71.3984H123.363V75.3984ZM176.076 73.3984V71.4648H172.076V73.3984H176.076ZM176.076 71.4648C176.076 67.7018 175.385 64.2704 173.954 61.2127L170.331 62.9084C171.478 65.3585 172.076 68.1966 172.076 71.4648H176.076ZM173.975 61.2589C172.592 58.0969 170.463 55.5631 167.609 53.7049L165.426 57.0569C167.612 58.4798 169.233 60.3992 170.31 62.8622L173.975 61.2589ZM167.609 53.7049C164.679 51.797 161.046 50.9199 156.85 50.9199V54.9199C160.505 54.9199 163.317 55.6834 165.426 57.0569L167.609 53.7049ZM156.85 50.9199C153.212 50.9199 149.965 51.7204 147.195 53.4096L149.278 56.8248C151.312 55.5843 153.808 54.9199 156.85 54.9199V50.9199ZM147.195 53.4096C144.484 55.0628 142.293 57.367 140.616 60.269L144.079 62.2701C145.45 59.8986 147.184 58.1013 149.278 56.8248L147.195 53.4096ZM140.599 60.2982C139.02 63.1406 137.846 66.4403 137.052 70.1691L140.964 71.0028C141.693 67.5831 142.745 64.6719 144.096 62.2408L140.599 60.2982ZM137.047 70.1937C136.314 73.8587 135.953 77.8595 135.953 82.1875H139.953C139.953 78.078 140.296 74.3444 140.969 70.9782L137.047 70.1937ZM135.953 82.1875V85.7031H139.953V82.1875H135.953ZM135.953 85.7031C135.953 89.6973 136.506 93.4255 137.634 96.8721L141.436 95.6279C140.455 92.6291 139.953 89.3261 139.953 85.7031H135.953ZM137.645 96.903C138.83 100.335 140.5 103.342 142.669 105.895L145.717 103.304C143.903 101.169 142.466 98.6101 141.426 95.597L137.645 96.903ZM142.688 105.917C144.931 108.479 147.626 110.468 150.757 111.873L152.395 108.224C149.784 107.052 147.558 105.407 145.699 103.283L142.688 105.917ZM150.771 111.879C153.99 113.296 157.581 113.982 161.508 113.982V109.982C158.051 109.982 155.021 109.38 152.382 108.218L150.771 111.879ZM161.508 113.982C166.342 113.982 170.871 113.051 175.069 111.171L173.435 107.52C169.782 109.156 165.814 109.982 161.508 109.982V113.982ZM175.082 111.166C179.372 109.21 183.048 106.279 186.104 102.412L182.966 99.9318C180.28 103.33 177.101 105.849 173.422 107.526L175.082 111.166ZM183.064 102.527L195.369 115.886L198.311 113.176L186.006 99.8169L183.064 102.527ZM195.197 113.391C193.348 116.055 190.783 118.663 187.453 121.203L189.879 124.383C193.463 121.649 196.347 118.75 198.483 115.671L195.197 113.391ZM187.44 121.213C184.238 123.697 180.334 125.771 175.694 127.411L177.028 131.182C181.998 129.425 186.297 127.163 189.892 124.373L187.44 121.213ZM175.715 127.404C171.157 128.961 165.903 129.758 159.926 129.758V133.758C166.253 133.758 171.956 132.914 177.008 131.19L175.715 127.404ZM238.676 53.1836H240.676V53.0829L240.666 52.9827L238.676 53.1836ZM238.676 166.562V168.562H240.676V166.562H238.676ZM213.363 166.562H211.363V168.562H213.363V166.562ZM213.363 34.9023V32.9023H211.363V34.9023H213.363ZM236.83 34.9023L238.82 34.7014L238.638 32.9023H236.83V34.9023ZM296.42 102.49L294.493 101.956L294.49 101.965L294.488 101.974L296.42 102.49ZM289.389 117.959L291.015 119.124L291.022 119.113L289.389 117.959ZM277.787 128.154L278.718 129.925L278.726 129.92L277.787 128.154ZM236.039 118.398L234.378 119.513L234.387 119.526L234.396 119.539L236.039 118.398ZM225.053 85.4395H223.053V85.5841L223.074 85.7273L225.053 85.4395ZM225.053 80.6055L223.071 80.3367L223.053 80.4705V80.6055H225.053ZM229.096 61.6211L231.008 62.2065L231.01 62.2011L229.096 61.6211ZM236.039 46.5918L234.389 45.4616L234.386 45.4665L236.039 46.5918ZM246.762 36.6602L245.801 34.9062L245.79 34.9118L246.762 36.6602ZM277.699 36.5723L276.805 38.3611L276.814 38.3656L277.699 36.5723ZM289.301 46.416L287.682 47.591L287.688 47.5983L287.693 47.6054L289.301 46.416ZM296.42 61.709L294.488 62.2255L294.49 62.2344L294.493 62.2433L296.42 61.709ZM272.426 70.2344L270.46 70.6009L270.463 70.6203L270.467 70.6396L272.426 70.2344ZM269.262 61.1816L267.506 62.1393L267.514 62.1546L267.523 62.1697L269.262 61.1816ZM263.637 55.2051L262.557 56.8888L262.582 56.9048L262.608 56.9201L263.637 55.2051ZM246.41 54.6777L245.586 52.8555L245.578 52.8593L245.569 52.8631L246.41 54.6777ZM235.688 77.002L233.69 76.9068L233.688 76.9544V77.002H235.688ZM235.688 89.2188H233.688V89.2862L233.692 89.3536L235.688 89.2188ZM238.148 100.908L236.285 101.635L236.289 101.645L238.148 100.908ZM263.9 109.785L264.98 111.469L264.995 111.459L265.01 111.449L263.9 109.785ZM269.438 103.545L267.689 102.574L267.681 102.589L267.673 102.604L269.438 103.545ZM272.514 94.4043L270.548 94.0377L270.545 94.0539L270.542 94.0701L272.514 94.4043ZM236.676 53.1836V166.562H240.676V53.1836H236.676ZM238.676 164.562H213.363V168.562H238.676V164.562ZM215.363 166.562V34.9023H211.363V166.562H215.363ZM213.363 36.9023H236.83V32.9023H213.363V36.9023ZM234.84 35.1032L236.686 53.3845L240.666 52.9827L238.82 34.7014L234.84 35.1032ZM296.881 81.3965V83.2422H300.881V81.3965H296.881ZM296.881 83.2422C296.881 89.998 296.079 96.2322 294.493 101.956L298.347 103.025C300.042 96.9123 300.881 90.3145 300.881 83.2422H296.881ZM294.488 101.974C292.958 107.694 290.707 112.628 287.755 116.805L291.022 119.113C294.282 114.501 296.717 109.122 298.352 103.007L294.488 101.974ZM287.763 116.794C284.834 120.884 281.2 124.075 276.848 126.388L278.726 129.92C283.632 127.312 287.733 123.706 291.015 119.124L287.763 116.794ZM276.857 126.384C272.615 128.613 267.67 129.758 261.967 129.758V133.758C268.216 133.758 273.818 132.5 278.718 129.925L276.857 126.384ZM261.967 129.758C256.438 129.758 251.742 128.643 247.811 126.488L245.889 129.996C250.512 132.529 255.894 133.758 261.967 133.758V129.758ZM247.811 126.488C243.819 124.301 240.444 121.236 237.682 117.258L234.396 119.539C237.493 123.999 241.325 127.496 245.889 129.996L247.811 126.488ZM237.7 117.284C234.95 113.187 232.713 108.416 231.005 102.948L227.187 104.141C228.994 109.924 231.386 115.055 234.378 119.513L237.7 117.284ZM231.005 102.948C229.281 97.4341 227.956 91.5031 227.032 85.1516L223.074 85.7273C224.025 92.2665 225.394 98.4057 227.187 104.141L231.005 102.948ZM227.053 85.4395V80.6055H223.053V85.4395H227.053ZM227.035 80.8742C227.96 74.0507 229.287 67.8302 231.008 62.2065L227.183 61.0357C225.389 66.8964 224.021 73.3322 223.071 80.3367L227.035 80.8742ZM231.01 62.2011C232.72 56.5589 234.954 51.7403 237.692 47.717L234.386 45.4665C231.382 49.8808 228.988 55.0817 227.182 61.0411L231.01 62.2011ZM237.689 47.722C240.457 43.6811 243.805 40.5906 247.733 38.4085L245.79 34.9118C241.281 37.4172 237.481 40.9478 234.389 45.4616L237.689 47.722ZM247.723 38.4141C251.657 36.2582 256.325 35.1445 261.791 35.1445V31.1445C255.773 31.1445 250.421 32.3746 245.801 34.9062L247.723 38.4141ZM261.791 35.1445C267.572 35.1445 272.558 36.2378 276.805 38.3611L278.594 34.7834C273.7 32.3364 268.081 31.1445 261.791 31.1445V35.1445ZM276.814 38.3656C281.145 40.5037 284.763 43.5697 287.682 47.591L290.919 45.241C287.628 40.7077 283.512 37.2112 278.585 34.7789L276.814 38.3656ZM287.693 47.6054C290.687 51.6527 292.961 56.5139 294.488 62.2255L298.352 61.1925C296.715 55.0681 294.243 49.7341 290.909 45.2266L287.693 47.6054ZM294.493 62.2433C296.078 67.9602 296.881 74.3396 296.881 81.3965H300.881C300.881 74.0393 300.044 67.2937 298.347 61.1747L294.493 62.2433ZM275.48 83.2422V81.3965H271.48V83.2422H275.48ZM275.48 81.3965C275.48 77.2391 275.119 73.3806 274.384 69.8292L270.467 70.6396C271.139 73.885 271.48 77.4679 271.48 81.3965H275.48ZM274.392 69.8678C273.714 66.232 272.593 62.997 271.001 60.1936L267.523 62.1697C268.86 64.5226 269.848 67.3227 270.46 70.6009L274.392 69.8678ZM271.018 60.2239C269.454 57.3573 267.338 55.0932 264.666 53.4901L262.608 56.9201C264.623 58.1295 266.257 59.8498 267.506 62.1393L271.018 60.2239ZM264.716 53.5213C262.047 51.8104 258.87 51.0078 255.287 51.0078V55.0078C258.266 55.0078 260.656 55.67 262.557 56.8888L264.716 53.5213ZM255.287 51.0078C251.622 51.0078 248.368 51.5971 245.586 52.8555L247.234 56.5C249.375 55.5318 252.038 55.0078 255.287 55.0078V51.0078ZM245.569 52.8631C242.862 54.1179 240.628 55.9484 238.9 58.3407L242.143 60.6827C243.462 58.8563 245.154 57.4642 247.251 56.4924L245.569 52.8631ZM238.9 58.3407C237.21 60.6813 235.972 63.4358 235.158 66.567L239.029 67.5736C239.739 64.8454 240.786 62.5609 242.143 60.6827L238.9 58.3407ZM235.158 66.567C234.355 69.6557 233.871 73.1066 233.69 76.9068L237.685 77.0971C237.856 73.5145 238.309 70.3443 239.029 67.5736L235.158 66.567ZM233.688 77.002V89.2188H237.688V77.002H233.688ZM233.692 89.3536C233.996 93.8584 234.852 97.9591 236.285 101.635L240.012 100.182C238.749 96.9433 237.965 93.2509 237.683 89.0839L233.692 89.3536ZM236.289 101.645C237.771 105.381 240.085 108.396 243.233 110.626L245.545 107.362C243.068 105.608 241.222 103.232 240.008 100.171L236.289 101.645ZM243.233 110.626C246.478 112.925 250.612 113.982 255.463 113.982V109.982C251.173 109.982 247.925 109.048 245.545 107.362L243.233 110.626ZM255.463 113.982C259.097 113.982 262.305 113.183 264.98 111.469L262.821 108.101C260.925 109.317 258.509 109.982 255.463 109.982V113.982ZM265.01 111.449C267.593 109.727 269.655 107.388 271.202 104.486L267.673 102.604C266.408 104.975 264.778 106.797 262.791 108.121L265.01 111.449ZM271.186 104.516C272.777 101.652 273.868 98.3834 274.486 94.7385L270.542 94.0701C269.988 97.3392 269.028 100.164 267.689 102.574L271.186 104.516ZM274.48 94.7709C275.15 91.1782 275.48 87.3336 275.48 83.2422H271.48C271.48 87.1195 271.167 90.7163 270.548 94.0377L274.48 94.7709ZM370.863 107.236H368.863V107.302L368.868 107.367L370.863 107.236ZM370.863 34.9023V32.9023H368.863V34.9023H370.863ZM396.176 34.9023H398.176V32.9023H396.176V34.9023ZM396.176 130V132H398.176V130H396.176ZM372.357 130L370.362 130.131L370.484 132H372.357V130ZM373.676 87.7246L373.629 85.7252L371.676 85.7711V87.7246H373.676ZM381.146 87.5488H383.146V85.5012L381.099 85.5494L381.146 87.5488ZM378.949 105.215L380.879 105.739L380.881 105.734L378.949 105.215ZM372.357 119.277L373.96 120.474L373.965 120.468L373.969 120.462L372.357 119.277ZM361.283 128.506L362.159 130.304L362.168 130.299L362.178 130.295L361.283 128.506ZM332.719 129.824L332.061 131.713L332.078 131.719L332.095 131.724L332.719 129.824ZM322.699 123.584L321.256 124.968L321.27 124.983L321.285 124.998L322.699 123.584ZM316.195 112.598L314.3 113.237L314.305 113.252L314.311 113.267L316.195 112.598ZM313.91 34.9023V32.9023H311.91V34.9023H313.91ZM339.223 34.9023H341.223V32.9023H339.223V34.9023ZM340.189 103.633L338.292 104.265L338.301 104.291L338.31 104.316L340.189 103.633ZM347.396 111.016L346.784 112.92L346.794 112.923L346.804 112.926L347.396 111.016ZM365.326 108.643L364.188 106.998L364.18 107.003L364.173 107.009L365.326 108.643ZM371.742 100.029L369.854 99.3699L369.851 99.3788L369.848 99.3877L371.742 100.029ZM372.863 107.236V34.9023H368.863V107.236H372.863ZM370.863 36.9023H396.176V32.9023H370.863V36.9023ZM394.176 34.9023V130H398.176V34.9023H394.176ZM396.176 128H372.357V132H396.176V128ZM374.353 129.869L372.859 107.105L368.868 107.367L370.362 130.131L374.353 129.869ZM373.723 89.7241L381.194 89.5483L381.099 85.5494L373.629 85.7252L373.723 89.7241ZM379.146 87.5488C379.146 93.7226 378.432 99.4348 377.018 104.696L380.881 105.734C382.396 100.096 383.146 94.0314 383.146 87.5488H379.146ZM377.019 104.69C375.611 109.874 373.512 114.331 370.746 118.093L373.969 120.462C377.062 116.255 379.358 111.337 380.879 105.739L377.019 104.69ZM370.755 118.081C368.015 121.753 364.567 124.628 360.389 126.717L362.178 130.295C366.905 127.931 370.841 124.654 373.96 120.474L370.755 118.081ZM360.408 126.708C356.28 128.717 351.348 129.758 345.551 129.758V133.758C351.824 133.758 357.38 132.631 362.159 130.304L360.408 126.708ZM345.551 129.758C341.109 129.758 337.044 129.14 333.343 127.924L332.095 131.724C336.245 133.087 340.735 133.758 345.551 133.758V129.758ZM333.377 127.936C329.786 126.684 326.706 124.763 324.113 122.17L321.285 124.998C324.317 128.03 327.918 130.269 332.061 131.713L333.377 127.936ZM324.143 122.2C321.618 119.568 319.585 116.164 318.08 111.928L314.311 113.267C315.97 117.938 318.273 121.858 321.256 124.968L324.143 122.2ZM318.09 111.958C316.655 107.707 315.91 102.516 315.91 96.3379H311.91C311.91 102.816 312.689 108.464 314.3 113.237L318.09 111.958ZM315.91 96.3379V34.9023H311.91V96.3379H315.91ZM313.91 36.9023H339.223V32.9023H313.91V36.9023ZM337.223 34.9023V96.5137H341.223V34.9023H337.223ZM337.223 96.5137C337.223 99.4656 337.559 102.067 338.292 104.265L342.087 103C341.531 101.332 341.223 99.1867 341.223 96.5137H337.223ZM338.31 104.316C339.095 106.475 340.204 108.322 341.676 109.793L344.504 106.965C343.515 105.975 342.69 104.658 342.069 102.949L338.31 104.316ZM341.676 109.793C343.129 111.246 344.838 112.294 346.784 112.92L348.009 109.112C346.673 108.682 345.512 107.973 344.504 106.965L341.676 109.793ZM346.804 112.926C348.722 113.521 350.8 113.807 353.021 113.807V109.807C351.142 109.807 349.47 109.565 347.989 109.105L346.804 112.926ZM353.021 113.807C358.48 113.807 363.038 112.706 366.48 110.277L364.173 107.009C361.638 108.798 357.993 109.807 353.021 109.807V113.807ZM366.465 110.287C369.878 107.924 372.273 104.695 373.636 100.671L369.848 99.3877C368.75 102.629 366.869 105.142 364.188 106.998L366.465 110.287ZM373.63 100.689C375.004 96.7555 375.676 92.4269 375.676 87.7246H371.676C371.676 92.0458 371.059 95.9203 369.854 99.3699L373.63 100.689ZM462.094 34.9023H464.094V32.9023H462.094V34.9023ZM462.094 52.832V54.832H464.094V52.832H462.094ZM406.723 52.832H404.723V54.832H406.723V52.832ZM406.723 34.9023V32.9023H404.723V34.9023H406.723ZM420.434 11.4355V9.43555H418.434V11.4355H420.434ZM445.746 11.4355H447.746V9.43555H445.746V11.4355ZM446.801 107.676L444.998 108.541L445.012 108.57L445.026 108.598L446.801 107.676ZM450.141 110.752L449.398 112.609L449.43 112.622L449.463 112.634L450.141 110.752ZM459.896 111.367L460.086 113.358L460.127 113.354L460.167 113.349L459.896 111.367ZM463.148 110.84L465.148 110.83L465.137 108.403L462.756 108.879L463.148 110.84ZM463.236 129.473L463.853 131.375L465.243 130.924L465.236 129.463L463.236 129.473ZM433.266 129.033L432.434 130.852L432.45 130.859L432.465 130.866L433.266 129.033ZM460.094 34.9023V52.832H464.094V34.9023H460.094ZM462.094 50.832H406.723V54.832H462.094V50.832ZM408.723 52.832V34.9023H404.723V52.832H408.723ZM406.723 36.9023H462.094V32.9023H406.723V36.9023ZM420.434 13.4355H445.746V9.43555H420.434V13.4355ZM443.746 11.4355V101.348H447.746V11.4355H443.746ZM443.746 101.348C443.746 104.22 444.105 106.68 444.998 108.541L448.604 106.81C448.091 105.741 447.746 103.983 447.746 101.348H443.746ZM445.026 108.598C445.998 110.467 447.466 111.836 449.398 112.609L450.883 108.895C449.885 108.496 449.127 107.815 448.575 106.753L445.026 108.598ZM449.463 112.634C451.217 113.265 453.311 113.543 455.678 113.543V109.543C453.591 109.543 451.994 109.293 450.818 108.87L449.463 112.634ZM455.678 113.543C457.307 113.543 458.778 113.483 460.086 113.358L459.707 109.376C458.554 109.486 457.213 109.543 455.678 109.543V113.543ZM460.167 113.349C461.48 113.17 462.608 112.988 463.541 112.801L462.756 108.879C461.931 109.044 460.891 109.213 459.626 109.386L460.167 113.349ZM461.148 110.849L461.236 129.482L465.236 129.463L465.148 110.83L461.148 110.849ZM462.619 127.57C460.559 128.239 458.315 128.773 455.884 129.169L456.526 133.117C459.134 132.692 461.578 132.113 463.853 131.375L462.619 127.57ZM455.884 129.169C453.488 129.558 450.815 129.758 447.855 129.758V133.758C450.99 133.758 453.883 133.547 456.526 133.117L455.884 129.169ZM447.855 129.758C442.504 129.758 437.923 128.885 434.066 127.2L432.465 130.866C436.928 132.815 442.074 133.758 447.855 133.758V129.758ZM434.097 127.214C430.404 125.526 427.559 122.849 425.531 119.114L422.016 121.023C424.441 125.491 427.924 128.79 432.434 130.852L434.097 127.214ZM425.531 119.114C423.517 115.405 422.434 110.378 422.434 103.896H418.434C418.434 110.775 419.576 116.529 422.016 121.023L425.531 119.114ZM422.434 103.896V11.4355H418.434V103.896H422.434ZM526.342 58.3691L524.516 59.1859L524.52 59.195L524.524 59.2041L526.342 58.3691ZM521.684 53.1836L520.655 54.8986L520.665 54.9049L520.676 54.9112L521.684 53.1836ZM506.391 52.832L507.222 54.651L507.243 54.6413L507.264 54.631L506.391 52.832ZM501.645 56.9629L503.334 58.033L503.342 58.0206L503.35 58.008L501.645 56.9629ZM499.975 63.2031V65.2031H501.975V63.2031H499.975ZM474.662 63.2031H472.662V65.2031H474.662V63.2031ZM485.648 42.1094L486.869 43.6937L486.877 43.6874L486.885 43.6811L485.648 42.1094ZM498.393 35.5176L497.787 33.6114L497.781 33.6135L498.393 35.5176ZM548.314 47.9102L546.65 49.0196L546.655 49.0264L546.66 49.0332L548.314 47.9102ZM554.291 119.893L552.327 120.272L552.329 120.278L554.291 119.893ZM557.104 128.506H559.104V128.034L558.892 127.611L557.104 128.506ZM557.104 130V132H559.104V130H557.104ZM531.527 130L529.722 130.861L530.266 132H531.527V130ZM528.715 120.332L526.737 120.627L526.739 120.644L526.742 120.661L528.715 120.332ZM531.176 72.0801L533.176 72.0555L533.151 70.0801H531.176V72.0801ZM531.352 86.4062V88.4062H533.376L533.351 86.3817L531.352 86.4062ZM502.436 90.8008L503.732 92.3233L503.749 92.3096L503.764 92.2956L502.436 90.8008ZM498.92 95.5469L497.076 94.7734L497.065 94.799L497.055 94.8249L498.92 95.5469ZM499.359 107.412L497.619 108.398L497.627 108.411L497.634 108.424L499.359 107.412ZM503.666 111.455L502.728 113.221L502.75 113.233L502.772 113.244L503.666 111.455ZM526.693 104.951L525.063 103.793L525.053 103.807L525.043 103.822L526.693 104.951ZM529.154 98.623L530.852 97.5656L527.35 91.944L527.155 98.5642L529.154 98.623ZM535.834 109.346L537.697 110.073L538.062 109.139L537.532 108.288L535.834 109.346ZM531.967 116.816L530.279 115.743L530.271 115.756L530.262 115.77L531.967 116.816ZM525.902 124.111L527.244 125.594L527.254 125.586L527.263 125.577L525.902 124.111ZM517.025 129.648L517.779 131.501L517.792 131.496L517.806 131.49L517.025 129.648ZM488.285 128.154L487.382 129.939L487.395 129.945L487.408 129.952L488.285 128.154ZM476.684 118.047L475.006 119.135L475.014 119.148L475.023 119.162L476.684 118.047ZM483.539 80.2539L484.714 81.8725L484.718 81.8692L483.539 80.2539ZM497.338 74.1895L497.813 76.1321L497.823 76.1298L497.833 76.1273L497.338 74.1895ZM529.836 108.555V66.1914H525.836V108.555H529.836ZM529.836 66.1914C529.836 62.9333 529.304 60.026 528.159 57.5341L524.524 59.2041C525.372 61.0482 525.836 63.3557 525.836 66.1914H529.836ZM528.167 57.5524C527 54.9437 525.161 52.8969 522.691 51.456L520.676 54.9112C522.425 55.9312 523.691 57.3414 524.516 59.1859L528.167 57.5524ZM522.713 51.4686C520.256 49.9947 517.2 49.3379 513.686 49.3379V53.3379C516.734 53.3379 519.01 53.9115 520.655 54.8986L522.713 51.4686ZM513.686 49.3379C510.64 49.3379 507.896 49.8774 505.517 51.033L507.264 54.631C508.987 53.7945 511.107 53.3379 513.686 53.3379V49.3379ZM505.559 51.0131C503.169 52.1057 501.273 53.742 499.939 55.9178L503.35 58.008C504.243 56.551 505.511 55.4333 507.222 54.651L505.559 51.0131ZM499.955 55.8928C498.609 58.0178 497.975 60.4817 497.975 63.2031H501.975C501.975 61.1198 502.453 59.4237 503.334 58.033L499.955 55.8928ZM499.975 61.2031H474.662V65.2031H499.975V61.2031ZM476.662 63.2031C476.662 59.483 477.522 55.9592 479.252 52.6067L475.697 50.7722C473.678 54.6853 472.662 58.8373 472.662 63.2031H476.662ZM479.252 52.6067C480.979 49.2603 483.503 46.2874 486.869 43.6937L484.428 40.5251C480.646 43.4391 477.72 46.853 475.697 50.7722L479.252 52.6067ZM486.885 43.6811C490.249 41.0343 494.278 38.9408 499.005 37.4216L497.781 33.6135C492.663 35.2585 488.196 37.5595 484.412 40.5376L486.885 43.6811ZM498.998 37.4237C503.752 35.9138 509.109 35.1445 515.092 35.1445V31.1445C508.769 31.1445 502.995 31.9573 497.787 33.6114L498.998 37.4237ZM515.092 35.1445C522.252 35.1445 528.539 36.3376 533.991 38.6742L535.567 34.9976C529.535 32.4124 522.697 31.1445 515.092 31.1445V35.1445ZM533.991 38.6742C539.398 40.9913 543.597 44.439 546.65 49.0196L549.979 46.8008C546.47 41.5375 541.645 37.6024 535.567 34.9976L533.991 38.6742ZM546.66 49.0332C549.726 53.5515 551.324 59.2876 551.324 66.3672H555.324C555.324 58.6811 553.583 52.1126 549.969 46.7872L546.66 49.0332ZM551.324 66.3672V107.061H555.324V66.3672H551.324ZM551.324 107.061C551.324 112.343 551.649 116.759 552.327 120.272L556.255 119.514C555.643 116.346 555.324 112.208 555.324 107.061H551.324ZM552.329 120.278C553.001 123.699 553.989 126.748 555.315 129.4L558.892 127.611C557.758 125.342 556.871 122.648 556.254 119.507L552.329 120.278ZM555.104 128.506V130H559.104V128.506H555.104ZM557.104 128H531.527V132H557.104V128ZM533.332 129.139C532.206 126.779 531.312 123.749 530.688 120.003L526.742 120.661C527.407 124.649 528.388 128.065 529.722 130.861L533.332 129.139ZM530.693 120.037C530.121 116.208 529.836 112.381 529.836 108.555H525.836C525.836 112.58 526.136 116.605 526.737 120.627L530.693 120.037ZM529.176 72.1046L529.352 86.4308L533.351 86.3817L533.176 72.0555L529.176 72.1046ZM531.352 84.4062H517.201V88.4062H531.352V84.4062ZM517.201 84.4062C513.717 84.4062 510.608 84.8027 507.909 85.6383L509.091 89.4594C511.314 88.7715 514.006 88.4062 517.201 88.4062V84.4062ZM507.909 85.6383C505.233 86.4664 502.943 87.6736 501.107 89.306L503.764 92.2956C505.092 91.1155 506.845 90.1547 509.091 89.4594L507.909 85.6383ZM501.139 89.2783C499.331 90.8177 497.965 92.6519 497.076 94.7734L500.764 96.3203C501.398 94.809 502.376 93.4791 503.732 92.3233L501.139 89.2783ZM497.055 94.8249C496.253 96.8962 495.865 99.1364 495.865 101.523H499.865C499.865 99.5746 500.181 97.8304 500.785 96.2689L497.055 94.8249ZM495.865 101.523C495.865 104.011 496.44 106.318 497.619 108.398L501.099 106.426C500.286 104.991 499.865 103.372 499.865 101.523H495.865ZM497.634 108.424C498.832 110.467 500.552 112.065 502.728 113.221L504.604 109.689C503.03 108.853 501.879 107.755 501.085 106.401L497.634 108.424ZM502.772 113.244C504.975 114.346 507.49 114.861 510.258 114.861V110.861C507.987 110.861 506.107 110.44 504.56 109.666L502.772 113.244ZM510.258 114.861C514.336 114.861 517.986 114.044 521.142 112.335L519.237 108.818C516.768 110.155 513.797 110.861 510.258 110.861V114.861ZM521.142 112.335C524.182 110.688 526.611 108.614 528.344 106.081L525.043 103.822C523.729 105.742 521.822 107.418 519.237 108.818L521.142 112.335ZM528.324 106.11C530.052 103.677 531.08 101.19 531.153 98.6818L527.155 98.5642C527.112 100.04 526.498 101.772 525.063 103.793L528.324 106.11ZM527.457 99.6805L534.136 110.403L537.532 108.288L530.852 97.5656L527.457 99.6805ZM533.971 108.619C533.088 110.88 531.863 113.255 530.279 115.743L533.654 117.89C535.352 115.222 536.705 112.616 537.697 110.073L533.971 108.619ZM530.262 115.77C528.785 118.178 526.884 120.471 524.541 122.646L527.263 125.577C529.843 123.182 531.985 120.611 533.671 117.862L530.262 115.77ZM524.561 122.628C522.286 124.686 519.523 126.418 516.245 127.807L517.806 131.49C521.442 129.949 524.597 127.989 527.244 125.594L524.561 122.628ZM516.272 127.796C513.109 129.082 509.276 129.758 504.721 129.758V133.758C509.658 133.758 514.027 133.027 517.779 131.501L516.272 127.796ZM504.721 129.758C498.958 129.758 493.784 128.613 489.162 126.357L487.408 129.952C492.63 132.5 498.413 133.758 504.721 133.758V129.758ZM489.188 126.37C484.612 124.054 481.013 120.908 478.344 116.932L475.023 119.162C478.096 123.74 482.231 127.332 487.382 129.939L489.188 126.37ZM478.362 116.958C475.773 112.968 474.465 108.429 474.465 103.281H470.465C470.465 109.149 471.969 114.454 475.006 119.135L478.362 116.958ZM474.465 103.281C474.465 98.5551 475.353 94.4375 477.077 90.8823L473.478 89.1372C471.451 93.3164 470.465 98.0465 470.465 103.281H474.465ZM477.077 90.8823C478.802 87.3248 481.335 84.3247 484.714 81.8725L482.364 78.6353C478.477 81.4566 475.503 84.9603 473.478 89.1372L477.077 90.8823ZM484.718 81.8692C488.155 79.3602 492.5 77.4322 497.813 76.1321L496.863 72.2468C491.16 73.6421 486.306 75.757 482.36 78.6387L484.718 81.8692ZM497.833 76.1273C503.141 74.7719 509.356 74.0801 516.498 74.0801V70.0801C509.109 70.0801 502.55 70.7945 496.843 72.2516L497.833 76.1273ZM516.498 74.0801H531.176V70.0801H516.498V74.0801ZM640.951 2.03125L642.711 1.08181L642.145 0.03125H640.951V2.03125ZM665.033 46.6797L663.273 47.6291L665.033 50.8927L666.793 47.6291L665.033 46.6797ZM689.115 2.03125V0.03125H687.922L687.355 1.08181L689.115 2.03125ZM719.262 2.03125L720.987 3.04226L722.751 0.03125H719.262V2.03125ZM682.084 65.4883L680.358 64.4773L679.763 65.4929L680.362 66.5062L682.084 65.4883ZM720.229 130V132H723.735L721.95 128.982L720.229 130ZM689.818 130L688.062 130.956L688.63 132H689.818V130ZM665.033 84.4727L666.79 83.5164L665.033 80.2898L663.277 83.5164L665.033 84.4727ZM640.248 130V132H641.436L642.005 130.956L640.248 130ZM609.662 130L607.942 128.98L606.152 132H609.662V130ZM647.895 65.4883L649.615 66.508L650.217 65.4929L649.619 64.4755L647.895 65.4883ZM610.629 2.03125V0.03125H607.135L608.904 3.04404L610.629 2.03125ZM639.191 2.98069L663.273 47.6291L666.793 45.7302L642.711 1.08181L639.191 2.98069ZM666.793 47.6291L690.876 2.98069L687.355 1.08181L663.273 45.7302L666.793 47.6291ZM689.115 4.03125H719.262V0.03125H689.115V4.03125ZM717.536 1.02024L680.358 64.4773L683.81 66.4993L720.987 3.04226L717.536 1.02024ZM680.362 66.5062L718.507 131.018L721.95 128.982L683.806 64.4703L680.362 66.5062ZM720.229 128H689.818V132H720.229V128ZM691.575 129.044L666.79 83.5164L663.277 85.4289L688.062 130.956L691.575 129.044ZM663.277 83.5164L638.491 129.044L642.005 130.956L666.79 85.4289L663.277 83.5164ZM640.248 128H609.662V132H640.248V128ZM611.383 131.02L649.615 66.508L646.174 64.4686L607.942 128.98L611.383 131.02ZM649.619 64.4755L612.354 1.01846L608.904 3.04404L646.17 66.5011L649.619 64.4755ZM610.629 4.03125H640.951V0.03125H610.629V4.03125Z" fill="#D9D9D9" mask="url(#path-1-outside-1_3001_122)"/>
</svg>
