<svg width="61" height="64" viewBox="0 0 61 64" fill="none" xmlns="http://www.w3.org/2000/svg">
<path d="M60.1247 26.3466C61.6365 24.1866 61.1326 21.2 58.9843 19.68C58.613 19.4133 58.2152 19.2 57.7908 19.0666L54.4491 17.92C52.5395 17.2533 51.2665 15.4933 51.2134 13.4666L51.1604 9.91998C51.1339 7.27998 48.9591 5.17331 46.3334 5.19998C45.8826 5.19998 45.4317 5.27998 45.0073 5.41331L41.6391 6.45331C39.703 7.06664 37.6078 6.37331 36.4143 4.74664L34.3191 1.91998C32.7278 -0.213357 29.7573 -0.640024 27.6356 0.959976C27.2643 1.22664 26.946 1.54664 26.6808 1.91998L24.5856 4.74664C23.3921 6.37331 21.2969 7.06664 19.3608 6.45331L15.9926 5.41331C13.473 4.63998 10.8208 6.05331 10.0517 8.55998C9.91909 8.98664 9.83952 9.46664 9.83952 9.91998L9.78648 13.4666C9.73344 15.4933 8.46039 17.2533 6.55083 17.92L3.20909 19.0666C0.716044 19.92 -0.583521 22.64 0.265175 25.12C0.424305 25.5466 0.609958 25.9733 0.875175 26.3466L2.89083 29.2533C4.05778 30.9066 4.05778 33.0933 2.89083 34.7466L0.875175 37.6533C-0.636564 39.8133 -0.132651 42.8 2.01561 44.32C2.38691 44.5866 2.78474 44.8 3.20909 44.9333L6.55083 46.08C8.46039 46.7466 9.73344 48.5066 9.78648 50.5333L9.83952 54.08C9.86604 56.72 12.0408 58.8266 14.6665 58.8C15.1173 58.8 15.5682 58.72 15.9926 58.5866L19.3608 57.5466C21.2969 56.9333 23.3921 57.6266 24.5856 59.2533L26.6808 62.08C28.2721 64.2133 31.2426 64.64 33.3643 63.04C33.7356 62.7733 34.0539 62.4533 34.3191 62.08L36.4143 59.2533C37.6078 57.6266 39.703 56.9333 41.6391 57.5466L45.0073 58.5866C47.5269 59.36 50.1791 57.9466 50.9482 55.44C51.0808 55.0133 51.1604 54.5333 51.1604 54.08L51.2134 50.5333C51.2665 48.5066 52.5395 46.7466 54.4491 46.08L57.7908 44.9333C60.2839 44.08 61.5834 41.36 60.7347 38.88C60.5756 38.4533 60.39 38.0266 60.1247 37.6533L58.1091 34.7466C56.9421 33.0933 56.9421 30.9066 58.1091 29.2533L60.1247 26.3466ZM30.5 48C21.7213 48 14.5869 40.8266 14.5869 32C14.5869 23.1733 21.7213 16 30.5 16C39.2786 16 46.413 23.1733 46.413 32C46.413 40.8266 39.2786 48 30.5 48Z" fill="black"/>
<path d="M36.5735 25.68L29.5982 32.6933L27.0522 30.1333C26.0178 29.0933 24.3469 29.0666 23.3126 30.1066C22.2782 31.1466 22.2517 32.8266 23.2861 33.8666C23.2861 33.8666 23.2861 33.8666 23.3126 33.8933L27.7417 38.3466C28.7761 39.3866 30.4469 39.3866 31.4813 38.3466L40.313 29.4666C41.3474 28.4266 41.3474 26.7466 40.313 25.7066C39.2787 24.6666 37.6078 24.6666 36.5735 25.7066V25.68Z" fill="#EA0033"/>
</svg>
