<svg width="74" height="83" viewBox="0 0 74 83" fill="none" xmlns="http://www.w3.org/2000/svg">
<path d="M20.885 0.953512C21.8336 0.953512 22.7831 0.972587 23.7292 0.972587H54.5969C55.7666 0.972587 56.7299 1.7876 57.0825 2.88008C57.2485 3.39683 57.4377 3.91445 57.6398 4.42167C57.6029 4.33583 57.5659 4.24913 57.5298 4.16329C57.6158 4.37138 57.7018 4.57947 57.7878 4.78756C57.7379 4.66618 57.688 4.54479 57.6398 4.42167C58.1163 5.52541 58.6814 6.59187 59.3273 7.60544C59.6163 8.06411 59.9216 8.5063 60.2424 8.93982C60.2355 8.93115 60.2286 8.92334 60.2218 8.91467C60.1805 8.86265 60.1633 8.84184 60.1616 8.84184C60.1564 8.84184 60.3697 9.12103 60.374 9.12103C60.3757 9.12103 60.3508 9.08635 60.282 8.99184C60.2691 8.9745 60.2562 8.95629 60.2424 8.93895C60.3293 9.04299 60.4093 9.14791 60.497 9.25195C60.669 9.46004 60.841 9.66813 61.0216 9.86755C61.7613 10.6999 62.5525 11.4889 63.404 12.2086C63.6027 12.3768 63.8315 12.5311 64.0284 12.7106C64.0017 12.6906 63.9742 12.6707 63.9458 12.6507C63.8942 12.6161 63.8512 12.5727 63.7996 12.538C63.7635 12.5103 63.7489 12.499 63.748 12.499C63.7437 12.499 64.0697 12.7565 64.0766 12.7565C64.0766 12.7565 64.0766 12.7565 64.0748 12.7548C64.0594 12.7401 64.0439 12.7253 64.0284 12.7106C64.1187 12.7773 64.2064 12.8441 64.2985 12.9109C64.7543 13.2403 65.2187 13.5438 65.6918 13.8386C66.5673 14.3796 67.4867 14.8548 68.4294 15.2709C68.3279 15.2302 68.2264 15.1894 68.1249 15.147C68.1051 15.1383 68.0853 15.1305 68.0647 15.1218C68.0845 15.1305 68.1043 15.1383 68.1249 15.147L68.6839 15.3819C68.5988 15.3455 68.5136 15.3082 68.4285 15.2709C69.3212 15.6256 70.2372 15.9143 71.1609 16.1969C72.2446 16.5264 73.0531 17.5409 73.0531 18.7027V30.243C73.0531 36.2256 72.2274 42.1735 70.2751 47.8352C67.9013 54.7022 64.1514 61.0229 59.2318 66.3465C56.7548 69.0344 53.9596 71.4274 50.9752 73.5256C49.6937 74.4273 48.3606 75.2597 47.0447 76.1007C44.1377 77.9649 41.2221 79.8203 38.315 81.6845C37.9289 81.9333 37.5049 82.0452 37.0834 82.0452C36.9579 82.0452 36.8331 82.0356 36.7093 82.0157C36.7867 82.0226 36.865 82.0261 36.9432 82.0261C37.8558 82.0261 38.7872 81.5553 39.2086 80.7385C39.8795 79.4553 39.5011 77.9553 38.2798 77.1837C37.854 76.9114 37.4283 76.6392 37.0026 76.3669C38.0648 75.6889 39.1269 75.0117 40.1891 74.3311C42.0641 73.1259 43.939 71.9294 45.8139 70.7329C46.3386 70.4034 46.8546 70.0653 47.3707 69.7271C48.1705 69.1982 48.9532 68.6433 49.7186 68.0624C49.8305 67.9792 50.214 67.6714 50.2158 67.6714C50.2158 67.6714 50.2046 67.6809 50.1779 67.7026C50.0893 67.7728 50.0016 67.843 49.9165 67.915C50.0532 67.804 50.1349 67.7373 50.1779 67.7026C50.2588 67.6384 50.3413 67.5743 50.4239 67.5075C50.7937 67.2127 51.1636 66.9092 51.5248 66.5971C52.9611 65.3659 54.3286 64.048 55.6101 62.6607C56.2465 61.9671 56.8658 61.2561 57.4678 60.5278C57.7861 60.129 58.1043 59.7215 58.4225 59.3226C58.2298 59.5619 58.1628 59.6452 58.1628 59.6452C58.1628 59.6452 58.4036 59.3435 58.4827 59.2359C58.6117 59.0712 58.7321 58.8978 58.8611 58.7244C61.0603 55.6975 62.9017 52.4262 64.3613 48.9875C64.3251 49.0768 64.289 49.1661 64.252 49.2546C64.2271 49.3161 64.2013 49.3768 64.1763 49.4384C64.2021 49.3768 64.2271 49.3161 64.252 49.2546L64.4344 48.8141C64.4103 48.8722 64.3862 48.9294 64.3613 48.9875C65.8707 45.2549 66.9285 41.3472 67.5074 37.3614C67.4979 37.436 67.4884 37.5114 67.479 37.586C67.5013 37.436 67.5194 37.2894 67.5392 37.142C67.5512 37.0588 67.5624 36.9756 67.5736 36.8923C67.5616 36.9764 67.5504 37.0597 67.5392 37.142C67.5289 37.2149 67.5185 37.2886 67.5082 37.3614C67.7731 35.2501 67.9099 33.1233 67.9099 30.9964V20.592C68.5343 20.8139 69.1656 21.0168 69.802 21.2076C69.1742 20.3752 68.5377 19.5342 67.9099 18.7018V20.592C66.9999 20.2686 66.1037 19.907 65.2265 19.4908C59.6068 16.8264 55.1749 11.9502 52.7925 6.1835C52.8914 6.1835 52.9895 6.1835 53.0884 6.1835C53.5631 6.1835 54.037 6.1783 54.5101 6.16442H54.5703C53.7446 5.53148 52.9103 4.88987 52.0847 4.25693C52.2954 4.90895 52.5319 5.55143 52.7925 6.1835C51.9428 6.18003 51.0913 6.16442 50.2441 6.16442H21.18C21.432 5.53669 21.6599 4.89941 21.8629 4.25693C21.0372 4.88987 20.2029 5.53148 19.3773 6.16442H21.18C20.6966 7.36787 20.1247 8.53925 19.4633 9.64992C17.6485 12.7019 15.2146 15.2944 12.3505 17.3666C10.4248 18.7599 8.30479 19.7848 6.08926 20.5833V18.7018C5.46141 19.5342 4.82497 20.3752 4.19712 21.2076C4.83357 21.0151 5.46571 20.8079 6.08926 20.5833V29.1497C6.08926 31.9077 6.14688 34.658 6.49607 37.4082C6.48661 37.3432 6.47715 37.279 6.46855 37.214C6.45479 37.1073 6.44017 37.0007 6.42469 36.8923C6.43931 36.9998 6.45393 37.1073 6.46855 37.214C6.48489 37.3371 6.50037 37.4602 6.51929 37.586C6.51155 37.527 6.50381 37.4672 6.49607 37.4082C7.06715 41.3671 8.11557 45.235 9.61553 48.9372C9.59833 48.8965 9.58112 48.8549 9.56392 48.8141C9.60177 48.9052 9.63961 48.9962 9.67659 49.0872C9.72476 49.2043 9.77292 49.3213 9.82194 49.4384C9.77378 49.3213 9.72562 49.2043 9.67659 49.0872C9.65595 49.0369 9.63617 48.9875 9.61553 48.9372C10.4291 50.8621 11.358 52.7366 12.4107 54.5452C12.944 55.473 13.5116 56.3747 14.1051 57.2591C14.3889 57.6839 14.6813 58.1001 14.9823 58.5163C15.1371 58.7244 15.2834 58.9325 15.4382 59.1406C15.5414 59.2793 15.6446 59.4093 15.7478 59.5481C15.8046 59.6252 15.8252 59.6547 15.8243 59.6547C15.8209 59.6547 15.5827 59.3382 15.5758 59.3313C16.6767 60.866 18.0098 62.2879 19.3257 63.6405C20.6674 65.0104 22.0865 66.3023 23.583 67.5075C23.7008 67.6029 24.0818 67.8977 24.0792 67.8977C24.0792 67.8977 24.0225 67.8552 23.8754 67.7433C23.841 67.7165 23.8066 67.6904 23.7713 67.6644C23.81 67.6939 23.8444 67.7208 23.8754 67.7433C24.013 67.8491 24.1506 67.9592 24.2874 68.0633C24.6744 68.3494 25.0614 68.6355 25.4485 68.913C26.0935 69.3725 26.7558 69.8147 27.418 70.2395C27.8394 70.5083 28.2609 70.7771 28.6823 71.0459C31.456 72.8198 34.2297 74.5938 37.0034 76.3678C36.5777 76.64 36.152 76.9114 35.7262 77.1845C34.591 77.9128 34.0233 79.5342 34.7974 80.7394C35.2214 81.4209 35.9413 81.8969 36.7093 82.0157C36.3455 81.9827 35.992 81.8717 35.6832 81.6758C35.6058 81.6238 35.5198 81.5718 35.4424 81.5197C32.2688 79.4909 29.0951 77.462 25.9215 75.4331C21.1653 72.3898 16.7876 68.8609 13.1495 64.5084C8.50518 58.942 5.01332 52.4826 2.98357 45.4942C1.96009 41.974 1.34084 38.3238 1.07422 34.6649C0.945211 32.8268 0.945211 30.9886 0.945211 29.1505V18.694C0.945211 17.5322 1.74507 16.5177 2.83735 16.1883C3.76364 15.9047 4.67703 15.6152 5.5758 15.2588C5.48894 15.2978 5.40121 15.336 5.31434 15.3733C5.52076 15.2865 5.72717 15.1998 5.93359 15.1131C5.8149 15.1626 5.69535 15.2111 5.5758 15.2588C6.66894 14.7733 7.7251 14.2114 8.7288 13.5611C9.20184 13.2577 9.65767 12.9369 10.1049 12.5987C10.1651 12.5545 10.2012 12.5294 10.2193 12.5181C10.1556 12.5692 10.092 12.6187 10.0275 12.6681C9.97417 12.7114 9.95439 12.7288 9.95525 12.7288C9.96127 12.7288 10.2425 12.5103 10.2322 12.5103C10.2313 12.5103 10.227 12.5129 10.2184 12.5181C10.2666 12.4799 10.3148 12.4401 10.3621 12.3993C10.5685 12.2346 10.7749 12.0612 10.9727 11.8791C11.807 11.1421 12.5896 10.3444 13.3035 9.48605C13.4721 9.28317 13.626 9.043 13.8075 8.84965C13.786 8.87912 13.7645 8.90947 13.7421 8.93982C13.7077 8.99184 13.6647 9.03519 13.6303 9.08721C13.6028 9.1245 13.5916 9.13924 13.5916 9.13924C13.5942 9.13924 13.8522 8.80803 13.847 8.80803C13.847 8.80803 13.8462 8.80803 13.8453 8.80976C13.8324 8.82277 13.8195 8.83577 13.8075 8.84965C13.872 8.76121 13.9365 8.67537 14.0001 8.58433C14.327 8.1248 14.6366 7.6566 14.929 7.17973C15.4924 6.25286 15.992 5.27657 16.4204 4.27601C16.41 4.30289 16.3989 4.32977 16.3885 4.35664C16.3292 4.49971 16.2699 4.64277 16.2105 4.7867C16.2716 4.64363 16.3309 4.50057 16.3885 4.35664C16.4152 4.29162 16.4419 4.22659 16.4685 4.16243C16.4522 4.20058 16.4367 4.23786 16.4204 4.27601C16.6018 3.81735 16.7652 3.35261 16.9158 2.87921C17.2598 1.78674 18.2317 0.97172 19.4013 0.97172H19.4616C19.9346 0.956981 20.4085 0.952645 20.8832 0.952645M20.885 -0.000231593C20.3491 -0.000231593 19.8795 0.00583769 19.4495 0.0188433H19.4039C17.8627 0.0188433 16.5012 1.05235 16.017 2.59135C15.8734 3.04395 15.716 3.48874 15.5491 3.91185C15.1371 4.8734 14.6581 5.80547 14.1257 6.68205C13.8479 7.13464 13.5477 7.58897 13.2347 8.02943C13.1934 8.08752 13.1538 8.14127 13.1143 8.1959C13.1031 8.2115 13.0911 8.22711 13.0799 8.24272C12.9552 8.38144 12.8494 8.52451 12.7539 8.65196C12.6928 8.73346 12.6352 8.81063 12.5828 8.87392C11.9188 9.67247 11.1688 10.4424 10.3526 11.1629L10.3457 11.169L10.3388 11.1759C10.1746 11.3268 9.99138 11.4828 9.77894 11.6528L9.7669 11.6623L9.75486 11.6727C9.72562 11.697 9.69465 11.723 9.66111 11.7508C9.63703 11.7672 9.60435 11.7906 9.55532 11.8262L9.54758 11.8314L9.53984 11.8366C9.09175 12.1756 8.66086 12.4765 8.22308 12.7574H8.22136L8.21964 12.76C7.29937 13.3565 6.28794 13.901 5.21457 14.3796C4.31151 14.736 3.37404 15.0299 2.56557 15.277C1.0553 15.7313 0 17.1377 0 18.6949V29.1514C0 30.9756 0 32.8615 0.13159 34.7334C0.411971 38.577 1.06648 42.287 2.07706 45.7639C3.10053 49.2867 4.50588 52.7271 6.25525 55.9897C7.98484 59.2151 10.061 62.2888 12.4271 65.124C15.8183 69.1818 20.067 72.8173 25.4158 76.2403L34.929 82.3217C34.9711 82.3495 35.015 82.3781 35.0597 82.4058C35.0941 82.4275 35.1285 82.4492 35.1603 82.4709L35.1698 82.4778L35.1792 82.4839C35.5938 82.7483 36.0832 82.9139 36.5966 82.9651C36.7592 82.9885 36.9235 83.0006 37.0851 83.0006C37.7044 83.0006 38.3064 82.8238 38.8259 82.49C40.2777 81.5587 41.757 80.6137 43.1882 79.6998C44.6202 78.7851 46.1003 77.8391 47.5547 76.9071C47.7646 76.7727 47.977 76.6374 48.1886 76.503C49.2886 75.8025 50.4256 75.0785 51.5188 74.3094C54.6657 72.0967 57.4945 69.6369 59.9268 66.9977C62.4115 64.3081 64.6305 61.3359 66.5209 58.1625C68.3993 55.0091 69.9637 51.6407 71.1704 48.1508C73.0488 42.7032 74.0009 36.679 74.0009 30.2447V18.7044C74.0009 17.1507 72.9464 15.7443 71.4361 15.2857C70.5787 15.0238 69.6679 14.7386 68.794 14.3918C67.8652 13.9808 66.9879 13.5221 66.1872 13.027C65.666 12.7019 65.2402 12.4184 64.8506 12.1375C64.7939 12.0967 64.7397 12.056 64.6864 12.0161C64.6666 12.0013 64.6459 11.9866 64.6261 11.971C64.4946 11.8539 64.3613 11.7516 64.2426 11.6606C64.1591 11.5964 64.0809 11.5366 64.0138 11.4802C63.2423 10.8282 62.4734 10.0722 61.7277 9.23288L61.7251 9.22941L61.7226 9.22594C61.5566 9.04213 61.3957 8.84791 61.2263 8.64242L61.2237 8.63982L61.2212 8.63722C61.1781 8.58607 61.1377 8.53578 61.0973 8.48462C61.0612 8.43954 61.0251 8.39445 60.9881 8.34936C60.6733 7.92278 60.3912 7.5118 60.1271 7.09302V7.09129L60.1246 7.08955C59.5105 6.12627 58.9686 5.1049 58.5137 4.05405C58.3124 3.54596 58.1335 3.05262 57.9839 2.58528C57.4885 1.04975 56.1278 0.0179762 54.5987 0.0179762H23.7309C23.263 0.0179762 22.7831 0.012774 22.3195 0.00843881C21.8508 0.00410361 21.3657 -0.00109863 20.8867 -0.00109863L20.885 -0.000231593ZM21.8095 7.1199H50.245C50.7129 7.1199 51.1928 7.1251 51.6564 7.12944C51.8249 7.13117 51.997 7.13291 52.169 7.13464C53.3903 9.91003 55.0493 12.4366 57.1057 14.6536C59.3488 17.0718 61.9462 18.9905 64.8248 20.3553C65.5043 20.6778 66.2095 20.9769 66.9647 21.2622V30.9982C66.9647 33.0574 66.8322 35.1548 66.5716 37.2348C66.004 41.1347 64.9676 44.9653 63.49 48.6216C62.0537 52.0066 60.2407 55.2155 58.1026 58.1591C58.0544 58.2241 58.0071 58.2891 57.9606 58.3533C57.885 58.4573 57.8136 58.5562 57.7422 58.6472L57.7327 58.6594L57.7233 58.6724C57.7095 58.6906 57.6502 58.7712 57.4386 59.0357C57.4205 59.0582 57.4042 59.0807 57.3887 59.1033C57.3285 59.1796 57.2674 59.2567 57.2072 59.333C57.0507 59.5307 56.895 59.7293 56.7385 59.9252C56.1511 60.6353 55.5387 61.3385 54.9177 62.0148C53.6655 63.3709 52.3178 64.6688 50.9141 65.8723C50.5907 66.1514 50.2398 66.4419 49.839 66.761L49.8373 66.7627L49.8356 66.7644C49.7763 66.8121 49.7169 66.859 49.6584 66.9049L49.6335 66.924C49.6 66.9491 49.5681 66.9743 49.5363 66.9994C49.4348 67.08 49.2232 67.2483 49.1596 67.2959L49.1553 67.2985L49.151 67.3011C48.4053 67.8673 47.6321 68.4153 46.8529 68.9303C46.3523 69.2581 45.832 69.5988 45.3151 69.9239L45.3125 69.9257L45.3099 69.9274C43.466 71.104 41.5583 72.3213 39.6825 73.5274C38.9412 74.0025 38.1981 74.4768 37.455 74.951C37.3045 75.0464 37.1548 75.1427 37.0043 75.238L33.3499 72.9014L29.1897 70.2404L27.9246 69.4332C27.2133 68.9771 26.5812 68.5514 25.9955 68.1335C25.6179 67.863 25.2291 67.5751 24.8524 67.2968C24.7974 67.2552 24.7432 67.2127 24.6882 67.1702C24.6649 67.1494 24.64 67.1286 24.6142 67.1078L24.4998 67.0185C24.388 66.9318 24.2358 66.8121 24.1747 66.7627C22.7272 65.5965 21.3227 64.3211 20 62.9703C18.9197 61.8596 17.6941 60.572 16.6474 59.1848C16.6268 59.1475 16.6027 59.1093 16.5752 59.0712C16.5614 59.0521 16.5408 59.0235 16.5098 58.9819L16.5072 58.9784L16.5046 58.975C16.4505 58.9013 16.3954 58.831 16.3412 58.7599C16.2922 58.6966 16.244 58.6333 16.195 58.5674C16.1202 58.4669 16.048 58.3663 15.9748 58.2657C15.8983 58.1599 15.8218 58.0542 15.7435 57.9484C15.4227 57.5053 15.1432 57.1048 14.8903 56.725C14.2711 55.8016 13.7275 54.932 13.2295 54.0658L13.2278 54.0632L13.2261 54.0606C12.2181 52.3291 11.297 50.4806 10.4885 48.5679C9.01864 44.9384 7.99086 41.1391 7.43354 37.2764C7.0835 34.5158 7.03533 31.7386 7.03533 29.1471V21.2457C9.28268 20.3847 11.2075 19.3651 12.9018 18.1391C15.9473 15.936 18.4278 13.2438 20.2743 10.1381C20.8411 9.18606 21.3554 8.17249 21.8087 7.11557L21.8095 7.1199ZM36.8245 81.0697C36.336 80.9848 35.869 80.6666 35.5998 80.2339L35.5964 80.2278L35.5929 80.2218C35.3487 79.8411 35.3676 79.4388 35.4261 79.1683C35.5293 78.6897 35.832 78.2493 36.2354 77.99C36.4917 77.8261 36.748 77.6614 37.0043 77.4975L37.1368 77.5816L37.7758 77.99L37.7784 77.9917L37.7809 77.9935C38.5765 78.4964 38.8208 79.4432 38.3752 80.2955C38.1379 80.755 37.5504 81.0732 36.9467 81.0732C36.9063 81.0732 36.8658 81.0715 36.8263 81.0689L36.8245 81.0697Z" fill="black"/>
<path d="M42.3895 32.925L33.7604 41.3133L30.6106 38.2514C29.331 37.0075 27.2639 36.9756 25.9843 38.2195C24.7047 39.4634 24.6719 41.4728 25.9515 42.7167C25.9515 42.7167 25.9515 42.7167 25.9843 42.7486L31.4636 48.0751C32.7432 49.319 34.8103 49.319 36.0899 48.0751L47.0157 37.454C48.2953 36.2101 48.2953 34.2008 47.0157 32.9569C45.7361 31.713 43.6691 31.713 42.3895 32.9569V32.925Z" fill="#EA0033"/>
<path d="M37.0843 82.5231C36.9415 82.5231 36.7962 82.5118 36.6534 82.491C36.2096 82.4485 35.7873 82.3072 35.4312 82.08L35.4209 82.0731C35.3848 82.0488 35.3469 82.0245 35.3091 82.0011C35.267 81.9743 35.2248 81.9474 35.1844 81.9205L25.6678 75.8365C20.3595 72.4403 16.1469 68.8351 12.7874 64.8164C8.01838 59.1009 4.56694 52.6449 2.52944 45.6288C1.52833 42.1849 0.879839 38.5078 0.602038 34.7006C0.472168 32.8443 0.472168 30.9672 0.472168 29.1516V18.6951C0.472168 17.3468 1.389 16.1286 2.70146 15.7324C3.52024 15.4818 4.47233 15.1836 5.39432 14.8194C6.49348 14.3304 7.52986 13.7729 8.47335 13.1608C8.92317 12.872 9.36352 12.5642 9.82108 12.2183L9.82882 12.2131C9.87956 12.1758 9.91568 12.1507 9.93976 12.1342C9.97933 12.1021 10.0189 12.07 10.0585 12.0362L10.0705 12.0267C10.2915 11.8498 10.4833 11.6868 10.6562 11.5281L10.6631 11.5212C11.4965 10.7851 12.2637 9.99693 12.9431 9.18018C13.0042 9.10648 13.0661 9.02411 13.1306 8.93741C13.2278 8.80648 13.3284 8.67209 13.4445 8.54464L13.4927 8.47874C13.534 8.42239 13.5753 8.36603 13.6174 8.30707C13.9373 7.85794 14.2435 7.39408 14.5291 6.92848C15.0735 6.03282 15.5637 5.07821 15.9852 4.09326C16.1572 3.658 16.3189 3.2002 16.4677 2.73287C16.8891 1.39416 18.0691 0.494173 19.4039 0.494173H19.4572C19.8847 0.481167 20.3517 0.475098 20.8858 0.475098C21.3631 0.475098 21.8465 0.4803 22.3144 0.484635C22.7788 0.48897 23.2596 0.494173 23.73 0.494173H54.5978C55.9214 0.494173 57.1014 1.39329 57.5332 2.73114C57.6871 3.21061 57.8703 3.71696 58.0767 4.23718C58.542 5.31405 59.0968 6.3597 59.7255 7.34639C59.999 7.77991 60.2897 8.20389 60.6148 8.64348C60.6535 8.6903 60.6913 8.73712 60.7283 8.78394C60.7713 8.83683 60.8135 8.89059 60.8582 8.94348C61.0336 9.1559 61.1979 9.35445 61.3708 9.5452C62.1345 10.4044 62.9198 11.1761 63.7076 11.842C63.7833 11.9062 63.8667 11.9703 63.9544 12.0371C64.0774 12.1316 64.2047 12.2287 64.3268 12.3397L64.4025 12.396C64.4584 12.4376 64.5143 12.4793 64.572 12.5209C64.971 12.8087 65.4045 13.0983 65.9395 13.4313C66.76 13.9376 67.6587 14.4084 68.61 14.8289C69.5018 15.1827 70.4264 15.4723 71.2977 15.7393C72.6093 16.1382 73.5252 17.3564 73.5252 18.7011V30.2414C73.5252 36.6229 72.5817 42.5942 70.7214 47.9906C68.2952 55.0093 64.5462 61.2936 59.5776 66.6701C57.1685 69.2843 54.3647 71.7224 51.2453 73.9151C50.1607 74.6781 49.028 75.3995 47.9323 76.0975C47.7207 76.2327 47.5083 76.3671 47.2976 76.5024C45.8423 77.4353 44.3837 78.3674 42.9258 79.2986C41.4723 80.2272 40.0197 81.1549 38.5688 82.0852C38.1267 82.3696 37.6124 82.5205 37.0834 82.5205L37.0843 82.5231ZM24.3502 67.5112C24.4241 67.5693 24.4981 67.6265 24.5721 67.6828C24.947 67.9603 25.3384 68.2499 25.7237 68.5256C26.3163 68.9478 26.9544 69.377 27.6734 69.8383L28.9369 70.6438L37.0052 75.8044L37.7121 75.3527C38.4535 74.8793 39.1957 74.4059 39.938 73.9307C41.8172 72.7229 43.7214 71.5073 45.5637 70.3316C46.084 70.0048 46.6035 69.6649 47.1058 69.3354L47.1161 69.3293C47.9022 68.8091 48.684 68.2551 49.4374 67.6837C49.5114 67.6291 49.7186 67.4635 49.8296 67.375C49.864 67.3473 49.8949 67.323 49.9242 67.3013L49.9491 67.2814C50.0093 67.2337 50.0704 67.186 50.1315 67.1366C50.5391 66.8115 50.8943 66.5184 51.2203 66.2366C52.6394 65.0202 54.0009 63.7083 55.2669 62.3375C55.8939 61.6543 56.514 60.9425 57.1075 60.2246C57.2605 60.0321 57.4197 59.8309 57.5779 59.6306C57.6424 59.5483 57.7078 59.4668 57.7723 59.3844C57.7826 59.3679 57.7946 59.3514 57.8084 59.335C58.0122 59.0792 58.0819 58.9873 58.1051 58.9552L58.1146 58.9431C58.1911 58.8451 58.2651 58.7437 58.3434 58.6353C58.3898 58.5702 58.4371 58.5061 58.4861 58.4411C60.6458 55.4688 62.4777 52.2244 63.9304 48.8022C65.4208 45.1147 66.4693 41.2416 67.0429 37.2991C67.3061 35.1992 67.4403 33.0793 67.4403 30.9992V20.9312C66.5794 20.6164 65.7872 20.2861 65.0287 19.9254C59.5328 17.3191 54.9754 12.4966 52.482 6.66143C52.2094 6.65969 51.9359 6.65709 51.6632 6.65362C51.1988 6.64929 50.718 6.64409 50.2476 6.64409H21.4965C21.0226 7.78511 20.4764 8.87845 19.8692 9.89809C18.0562 12.9475 15.6188 15.5919 12.6266 17.7569C10.8901 19.0141 8.90339 20.0503 6.56229 20.9199V29.1524C6.56229 31.7622 6.61131 34.561 6.96566 37.3512C7.52814 41.2485 8.5671 45.0895 10.0542 48.7597C10.8686 50.6871 11.8001 52.5556 12.8193 54.307C13.3241 55.1862 13.8728 56.0645 14.4972 56.9948C14.7553 57.3815 15.0391 57.7882 15.3651 58.2382C15.4399 58.3387 15.5156 58.4437 15.5921 58.5494C15.6661 58.6526 15.7409 58.7549 15.8174 58.8572C15.8673 58.9249 15.9181 58.9908 15.968 59.0558C16.0213 59.1243 16.0737 59.1936 16.1271 59.2647C16.1649 59.3168 16.2062 59.3731 16.2389 59.4347C17.3088 60.8592 18.5602 62.1745 19.6645 63.3095C20.9993 64.6725 22.4176 65.9609 23.8797 67.1375C23.9459 67.1912 24.0964 67.3083 24.2125 67.3993C24.2598 67.4357 24.3072 67.473 24.351 67.512L24.3502 67.5112Z" fill="black"/>
</svg>
