<svg width="40" height="42" viewBox="0 0 40 42" fill="none" xmlns="http://www.w3.org/2000/svg">
<g clip-path="url(#clip0_582_854)">
<path d="M35.9754 16.4935V16.1382C35.9754 7.22668 28.8205 0 19.9975 0C11.1745 0 4.0196 7.22668 4.0196 16.1382V16.4935C1.56764 17.6658 0 20.1626 0 22.9031V25.3949C0 29.3178 3.15036 32.4998 7.03429 32.4998H9.27522C10.3856 32.4998 11.285 31.5913 11.285 30.4698V17.8282C11.285 16.7066 10.3856 15.7982 9.27522 15.7982H8.04924C8.1849 9.12977 13.6465 3.83664 20.2437 3.97366C26.6549 4.10561 31.8201 9.32262 31.9508 15.7982H30.7248C29.6144 15.7982 28.715 16.7066 28.715 17.8282V30.4698C28.715 31.5913 29.6144 32.4998 30.7248 32.4998H30.8202C30.2173 33.4488 29.1823 34.0222 28.0668 34.0222H25.2782C24.0774 31.0737 20.7361 29.668 17.8118 30.8809C14.8926 32.0938 13.5008 35.4686 14.7017 38.4222C15.9025 41.3758 19.2438 42.7765 22.1681 41.5636C23.6905 40.9292 24.8712 39.6605 25.4038 38.0822H28.0618C31.5538 38.0822 34.5534 35.5802 35.2267 32.1191C38.0756 31.1397 39.995 28.4398 40 25.4V22.9031C40 20.1626 38.4273 17.6658 35.9754 16.4935ZM7.26039 28.4398H7.02927C5.36616 28.4398 4.01457 27.0747 4.01457 25.3949V22.9031C4.01457 21.2233 5.36616 19.8581 7.02927 19.8581H7.26039V28.4398ZM19.9975 37.9451C19.0579 37.9451 18.2992 37.1788 18.2992 36.2298C18.2992 35.2808 19.0579 34.5145 19.9975 34.5145C20.932 34.5145 21.6907 35.2808 21.6958 36.2247C21.6958 37.1738 20.9421 37.9401 20.0025 37.9451C20.0025 37.9451 20.0025 37.9451 19.9975 37.9451ZM35.9804 25.3949C35.9804 27.0747 34.6288 28.4398 32.9657 28.4398H32.7346V19.8581H32.9657C34.6288 19.8581 35.9804 21.2233 35.9804 22.9031V25.3949Z" fill="black"/>
</g>
<defs>
<clipPath id="clip0_582_854">
<rect width="40" height="42" fill="white"/>
</clipPath>
</defs>
</svg>
