<svg width="50" height="50" viewBox="0 0 50 50" fill="none" xmlns="http://www.w3.org/2000/svg">
<rect width="50" height="50" rx="25" fill="#EA0029"/>
<path d="M10 23C9.44772 23 9 23.4477 9 24C9 24.5523 9.44772 25 10 25V23ZM37.7071 24.7071C38.0976 24.3166 38.0976 23.6834 37.7071 23.2929L31.3431 16.9289C30.9526 16.5384 30.3195 16.5384 29.9289 16.9289C29.5384 17.3195 29.5384 17.9526 29.9289 18.3431L35.5858 24L29.9289 29.6569C29.5384 30.0474 29.5384 30.6805 29.9289 31.0711C30.3195 31.4616 30.9526 31.4616 31.3431 31.0711L37.7071 24.7071ZM10 25H37V23H10V25Z" fill="white"/>
</svg>
