<svg width="50" height="50" viewBox="0 0 50 50" fill="none" xmlns="http://www.w3.org/2000/svg">
<rect x="50" y="50" width="50" height="50" rx="25" transform="rotate(-180 50 50)" fill="#EA0029"/>
<path d="M39 27C39.5523 27 40 26.5523 40 26C40 25.4477 39.5523 25 39 25L39 27ZM11.2929 25.2929C10.9024 25.6834 10.9024 26.3166 11.2929 26.7071L17.6569 33.0711C18.0474 33.4616 18.6805 33.4616 19.0711 33.0711C19.4616 32.6805 19.4616 32.0474 19.0711 31.6569L13.4142 26L19.0711 20.3431C19.4616 19.9526 19.4616 19.3195 19.0711 18.9289C18.6805 18.5384 18.0474 18.5384 17.6569 18.9289L11.2929 25.2929ZM39 25L12 25L12 27L39 27L39 25Z" fill="white"/>
</svg>
