<svg width="29" height="28" viewBox="0 0 29 28" fill="none" xmlns="http://www.w3.org/2000/svg">
<rect x="0.831665" y="0.5" width="27" height="27" rx="3.5" stroke="black"/>
<g clip-path="url(#clip0_630_332)">
<path d="M20.2564 9.42178C20.148 9.36656 20.0412 9.30521 19.939 9.23773C19.6401 9.04141 19.366 8.81135 19.1229 8.55061C18.5143 7.86043 18.2867 7.15951 18.2031 6.67025H18.2062C18.1365 6.2638 18.1644 6 18.169 6H15.3941V16.6242C15.3941 16.7669 15.3941 16.908 15.3879 17.0475C15.3879 17.0644 15.3864 17.0813 15.3848 17.0997C15.3848 17.1074 15.3848 17.115 15.3833 17.1227V17.1288C15.3244 17.9034 14.88 18.5966 14.1987 18.9801C13.8487 19.1779 13.4538 19.2807 13.0512 19.2807C11.7582 19.2807 10.7114 18.2362 10.7114 16.9479C10.7114 15.6595 11.7582 14.615 13.0512 14.615C13.2959 14.615 13.539 14.6534 13.7713 14.7285L13.7744 11.931C12.3467 11.7485 10.9066 12.1656 9.80402 13.0813C9.32554 13.4923 8.92447 13.9831 8.61632 14.5322C8.49864 14.7316 8.05731 15.5353 8.00312 16.8405C7.96905 17.5813 8.19358 18.3482 8.30043 18.6641V18.6702C8.36701 18.8574 8.62871 19.4939 9.053 20.0307C9.39522 20.4617 9.80093 20.8405 10.2546 21.1534V21.1472L10.2608 21.1534C11.6034 22.0567 13.093 21.9985 13.093 21.9985C13.3501 21.9877 14.2142 21.9985 15.1944 21.5383C16.2814 21.0276 16.9008 20.2684 16.9008 20.2684C17.2957 19.8144 17.6116 19.296 17.8315 18.7377C18.0823 18.0844 18.1659 17.3006 18.1659 16.9862V11.3497C18.2 11.3696 18.6475 11.6626 18.6475 11.6626C18.6475 11.6626 19.2932 12.0721 20.3013 12.339C21.0245 12.5291 21.9985 12.569 21.9985 12.569V9.84202C21.6578 9.87883 20.9641 9.77147 20.2549 9.42178H20.2564Z" fill="black"/>
</g>
<defs>
<clipPath id="clip0_630_332">
<rect width="14" height="16" fill="white" transform="translate(8 6)"/>
</clipPath>
</defs>
</svg>
