<svg width="450" height="136" viewBox="0 0 450 136" fill="none" xmlns="http://www.w3.org/2000/svg">
<mask id="path-1-outside-1_3001_120" maskUnits="userSpaceOnUse" x="0" y="0" width="450" height="136" fill="black">
<rect fill="white" width="450" height="136"/>
<path d="M44.1875 113.543L65.2812 36.9023H91.7363L59.6562 132H43.6602L44.1875 113.543ZM29.6855 36.9023L50.8672 113.631L51.3066 132H35.2227L3.14258 36.9023H29.6855ZM178.836 89.5488H205.115C204.588 98.1621 202.215 105.809 197.996 112.488C193.836 119.168 188.006 124.383 180.506 128.133C173.064 131.883 164.1 133.758 153.611 133.758C145.408 133.758 138.055 132.352 131.551 129.539C125.047 126.668 119.48 122.566 114.852 117.234C110.281 111.902 106.795 105.457 104.393 97.8984C101.99 90.3398 100.789 81.873 100.789 72.498V63.6211C100.789 54.2461 102.02 45.7793 104.48 38.2207C107 30.6035 110.574 24.1289 115.203 18.7969C119.891 13.4648 125.486 9.36328 131.99 6.49219C138.494 3.62109 145.76 2.18555 153.787 2.18555C164.451 2.18555 173.445 4.11914 180.77 7.98633C188.152 11.8535 193.865 17.1855 197.908 23.9824C202.01 30.7793 204.471 38.5137 205.291 47.1855H178.924C178.631 42.0293 177.605 37.6641 175.848 34.0898C174.09 30.457 171.424 27.7324 167.85 25.916C164.334 24.041 159.646 23.1035 153.787 23.1035C149.393 23.1035 145.555 23.9238 142.273 25.5645C138.992 27.2051 136.238 29.6953 134.012 33.0352C131.785 36.375 130.115 40.5938 129.002 45.6914C127.947 50.7305 127.42 56.6484 127.42 63.4453V72.498C127.42 79.1191 127.918 84.9492 128.914 89.9883C129.91 94.9688 131.434 99.1875 133.484 102.645C135.594 106.043 138.289 108.621 141.57 110.379C144.91 112.078 148.924 112.928 153.611 112.928C159.119 112.928 163.66 112.049 167.234 110.291C170.809 108.533 173.533 105.926 175.408 102.469C177.342 99.0117 178.484 94.7051 178.836 89.5488ZM327.547 65.0273V71.0918C327.547 80.8184 326.229 89.5488 323.592 97.2832C320.955 105.018 317.234 111.609 312.43 117.059C307.625 122.449 301.883 126.58 295.203 129.451C288.582 132.322 281.229 133.758 273.143 133.758C265.115 133.758 257.762 132.322 251.082 129.451C244.461 126.58 238.719 122.449 233.855 117.059C228.992 111.609 225.213 105.018 222.518 97.2832C219.881 89.5488 218.562 80.8184 218.562 71.0918V65.0273C218.562 55.2422 219.881 46.5117 222.518 38.8359C225.154 31.1016 228.875 24.5098 233.68 19.0605C238.543 13.6113 244.285 9.45117 250.906 6.58008C257.586 3.70898 264.939 2.27344 272.967 2.27344C281.053 2.27344 288.406 3.70898 295.027 6.58008C301.707 9.45117 307.449 13.6113 312.254 19.0605C317.117 24.5098 320.867 31.1016 323.504 38.8359C326.199 46.5117 327.547 55.2422 327.547 65.0273ZM300.916 71.0918V64.8516C300.916 58.0547 300.301 52.0781 299.07 46.9219C297.84 41.7656 296.023 37.4297 293.621 33.9141C291.219 30.3984 288.289 27.7617 284.832 26.0039C281.375 24.1875 277.42 23.2793 272.967 23.2793C268.514 23.2793 264.559 24.1875 261.102 26.0039C257.703 27.7617 254.803 30.3984 252.4 33.9141C250.057 37.4297 248.27 41.7656 247.039 46.9219C245.809 52.0781 245.193 58.0547 245.193 64.8516V71.0918C245.193 77.8301 245.809 83.8066 247.039 89.0215C248.27 94.1777 250.086 98.543 252.488 102.117C254.891 105.633 257.82 108.299 261.277 110.115C264.734 111.932 268.689 112.84 273.143 112.84C277.596 112.84 281.551 111.932 285.008 110.115C288.465 108.299 291.365 105.633 293.709 102.117C296.053 98.543 297.84 94.1777 299.07 89.0215C300.301 83.8066 300.916 77.8301 300.916 71.0918ZM420.711 89.5488H446.99C446.463 98.1621 444.09 105.809 439.871 112.488C435.711 119.168 429.881 124.383 422.381 128.133C414.939 131.883 405.975 133.758 395.486 133.758C387.283 133.758 379.93 132.352 373.426 129.539C366.922 126.668 361.355 122.566 356.727 117.234C352.156 111.902 348.67 105.457 346.268 97.8984C343.865 90.3398 342.664 81.873 342.664 72.498V63.6211C342.664 54.2461 343.895 45.7793 346.355 38.2207C348.875 30.6035 352.449 24.1289 357.078 18.7969C361.766 13.4648 367.361 9.36328 373.865 6.49219C380.369 3.62109 387.635 2.18555 395.662 2.18555C406.326 2.18555 415.32 4.11914 422.645 7.98633C430.027 11.8535 435.74 17.1855 439.783 23.9824C443.885 30.7793 446.346 38.5137 447.166 47.1855H420.799C420.506 42.0293 419.48 37.6641 417.723 34.0898C415.965 30.457 413.299 27.7324 409.725 25.916C406.209 24.041 401.521 23.1035 395.662 23.1035C391.268 23.1035 387.43 23.9238 384.148 25.5645C380.867 27.2051 378.113 29.6953 375.887 33.0352C373.66 36.375 371.99 40.5938 370.877 45.6914C369.822 50.7305 369.295 56.6484 369.295 63.4453V72.498C369.295 79.1191 369.793 84.9492 370.789 89.9883C371.785 94.9688 373.309 99.1875 375.359 102.645C377.469 106.043 380.164 108.621 383.445 110.379C386.785 112.078 390.799 112.928 395.486 112.928C400.994 112.928 405.535 112.049 409.109 110.291C412.684 108.533 415.408 105.926 417.283 102.469C419.217 99.0117 420.359 94.7051 420.711 89.5488Z"/>
</mask>
<path d="M44.1875 113.543L42.2592 113.012L42.1952 113.245L42.1883 113.486L44.1875 113.543ZM65.2812 36.9023V34.9023H63.7573L63.353 36.3716L65.2812 36.9023ZM91.7363 36.9023L93.6314 37.5416L94.5217 34.9023H91.7363V36.9023ZM59.6562 132V134H61.0923L61.5513 132.639L59.6562 132ZM43.6602 132L41.661 131.943L41.6022 134H43.6602V132ZM29.6855 36.9023L31.6134 36.3701L31.2082 34.9023H29.6855V36.9023ZM50.8672 113.631L52.8666 113.583L52.8607 113.336L52.7951 113.099L50.8672 113.631ZM51.3066 132V134H53.3551L53.3061 131.952L51.3066 132ZM35.2227 132L33.3276 132.639L33.7866 134H35.2227V132ZM3.14258 36.9023V34.9023H0.35717L1.2475 37.5416L3.14258 36.9023ZM46.1158 114.074L67.2095 37.4331L63.353 36.3716L42.2592 113.012L46.1158 114.074ZM65.2812 38.9023H91.7363V34.9023H65.2812V38.9023ZM89.8413 36.2631L57.7612 131.361L61.5513 132.639L93.6314 37.5416L89.8413 36.2631ZM59.6562 130H43.6602V134H59.6562V130ZM45.6593 132.057L46.1867 113.6L42.1883 113.486L41.661 131.943L45.6593 132.057ZM27.7577 37.4346L48.9393 114.163L52.7951 113.099L31.6134 36.3701L27.7577 37.4346ZM48.8678 113.679L49.3072 132.048L53.3061 131.952L52.8666 113.583L48.8678 113.679ZM51.3066 130H35.2227V134H51.3066V130ZM37.1177 131.361L5.03766 36.2631L1.2475 37.5416L33.3276 132.639L37.1177 131.361ZM3.14258 38.9023H29.6855V34.9023H3.14258V38.9023ZM178.836 89.5488V87.5488H176.968L176.841 89.4128L178.836 89.5488ZM205.115 89.5488L207.111 89.671L207.241 87.5488H205.115V89.5488ZM197.996 112.488L196.305 111.42L196.298 111.431L197.996 112.488ZM180.506 128.133L179.611 126.344L179.606 126.347L180.506 128.133ZM131.551 129.539L130.743 131.369L130.75 131.372L130.757 131.375L131.551 129.539ZM114.852 117.234L113.333 118.536L113.341 118.545L114.852 117.234ZM104.48 38.2207L102.582 37.5926L102.579 37.6015L104.48 38.2207ZM115.203 18.7969L113.701 17.4763L113.693 17.4858L115.203 18.7969ZM180.77 7.98633L179.836 9.75494L179.842 9.75799L180.77 7.98633ZM197.908 23.9824L196.189 25.0049L196.196 25.0158L197.908 23.9824ZM205.291 47.1855V49.1855H207.489L207.282 46.9972L205.291 47.1855ZM178.924 47.1855L176.927 47.299L177.034 49.1855H178.924V47.1855ZM175.848 34.0898L174.047 34.961L174.053 34.9725L175.848 34.0898ZM167.85 25.916L166.908 27.6807L166.926 27.69L166.944 27.699L167.85 25.916ZM129.002 45.6914L127.048 45.2647L127.046 45.2732L127.044 45.2817L129.002 45.6914ZM128.914 89.9883L126.952 90.3761L126.953 90.3805L128.914 89.9883ZM133.484 102.645L131.764 103.665L131.775 103.682L131.785 103.699L133.484 102.645ZM141.57 110.379L140.626 112.142L140.645 112.152L140.663 112.161L141.57 110.379ZM175.408 102.469L173.663 101.492L173.656 101.504L173.65 101.515L175.408 102.469ZM178.836 91.5488H205.115V87.5488H178.836V91.5488ZM203.119 89.4266C202.61 97.7357 200.328 105.051 196.305 111.42L199.687 113.556C204.102 106.566 206.566 98.5885 207.111 89.671L203.119 89.4266ZM196.298 111.431C192.346 117.777 186.804 122.748 179.611 126.344L181.4 129.922C189.208 126.018 195.326 120.559 199.694 113.546L196.298 111.431ZM179.606 126.347C172.506 129.924 163.866 131.758 153.611 131.758V135.758C164.333 135.758 173.623 133.841 181.406 129.919L179.606 126.347ZM153.611 131.758C145.639 131.758 138.561 130.392 132.345 127.703L130.757 131.375C137.548 134.311 145.178 135.758 153.611 135.758V131.758ZM132.358 127.709C126.122 124.956 120.796 121.031 116.362 115.923L113.341 118.545C118.165 124.102 123.972 128.379 130.743 131.369L132.358 127.709ZM116.37 115.933C111.995 110.829 108.63 104.629 106.299 97.2926L102.487 98.5042C104.96 106.285 108.567 112.976 113.333 118.536L116.37 115.933ZM106.299 97.2926C103.969 89.9618 102.789 81.7039 102.789 72.498H98.7891C98.7891 82.0422 100.012 90.7179 102.487 98.5042L106.299 97.2926ZM102.789 72.498V63.6211H98.7891V72.498H102.789ZM102.789 63.6211C102.789 54.4197 103.997 46.1664 106.382 38.8399L102.579 37.6015C100.042 45.3922 98.7891 54.0725 98.7891 63.6211H102.789ZM106.379 38.8488C108.827 31.4487 112.28 25.2149 116.713 20.108L113.693 17.4858C108.868 23.0429 105.173 29.7584 102.582 37.5926L106.379 38.8488ZM116.705 20.1174C121.201 15.0038 126.559 11.0758 132.798 8.32184L131.183 4.66253C124.413 7.65074 118.581 11.9259 113.701 17.4764L116.705 20.1174ZM132.798 8.32184C139.016 5.57673 146.002 4.18555 153.787 4.18555V0.185547C145.518 0.185547 137.972 1.66546 131.183 4.66253L132.798 8.32184ZM153.787 4.18555C164.217 4.18555 172.87 6.07714 179.836 9.75494L181.703 6.21772C174.02 2.16114 164.686 0.185547 153.787 0.185547V4.18555ZM179.842 9.75799C186.915 13.4631 192.346 18.5436 196.189 25.0049L199.627 22.96C195.385 15.8275 189.39 10.2439 181.698 6.21467L179.842 9.75799ZM196.196 25.0158C200.128 31.5313 202.505 38.9716 203.3 47.3739L207.282 46.9972C206.436 38.0558 203.892 30.0273 199.621 22.9491L196.196 25.0158ZM205.291 45.1855H178.924V49.1855H205.291V45.1855ZM180.921 47.0721C180.617 41.7243 179.548 37.0815 177.642 33.2072L174.053 34.9725C175.663 38.2466 176.645 42.3343 176.927 47.299L180.921 47.0721ZM177.648 33.2187C175.701 29.1952 172.722 26.1489 168.756 24.133L166.944 27.699C170.125 29.3159 172.479 31.7189 174.047 34.961L177.648 33.2187ZM168.791 24.1513C164.881 22.0662 159.832 21.1035 153.787 21.1035V25.1035C159.461 25.1035 163.787 26.0159 166.908 27.6807L168.791 24.1513ZM153.787 21.1035C149.143 21.1035 144.988 21.9713 141.379 23.7756L143.168 27.3533C146.122 25.8764 149.642 25.1035 153.787 25.1035V21.1035ZM141.379 23.7756C137.758 25.5863 134.749 28.3243 132.348 31.9258L135.676 34.1446C137.728 31.0663 140.227 28.8239 143.168 27.3533L141.379 23.7756ZM132.348 31.9258C129.948 35.525 128.199 39.9929 127.048 45.2647L130.956 46.1181C132.031 41.1946 133.622 37.225 135.676 34.1446L132.348 31.9258ZM127.044 45.2817C125.954 50.4904 125.42 56.5517 125.42 63.4453H129.42C129.42 56.7452 129.94 50.9705 130.96 46.1011L127.044 45.2817ZM125.42 63.4453V72.498H129.42V63.4453H125.42ZM125.42 72.498C125.42 79.2141 125.925 85.1789 126.952 90.3761L130.876 89.6004C129.911 84.7195 129.42 79.0241 129.42 72.498H125.42ZM126.953 90.3805C127.982 95.5267 129.572 99.9701 131.764 103.665L135.204 101.624C133.295 98.4049 131.838 94.4108 130.875 89.596L126.953 90.3805ZM131.785 103.699C134.065 107.373 137.012 110.206 140.626 112.142L142.515 108.616C139.566 107.036 137.122 104.713 135.184 101.59L131.785 103.699ZM140.663 112.161C144.346 114.035 148.686 114.928 153.611 114.928V110.928C149.162 110.928 145.474 110.121 142.477 108.596L140.663 112.161ZM153.611 114.928C159.315 114.928 164.184 114.02 168.117 112.086L166.352 108.496C163.137 110.078 158.924 110.928 153.611 110.928V114.928ZM168.117 112.086C172.058 110.148 175.091 107.249 177.166 103.422L173.65 101.515C171.975 104.603 169.559 106.919 166.352 108.496L168.117 112.086ZM177.154 103.445C179.269 99.6637 180.466 95.0499 180.831 89.6849L176.841 89.4128C176.503 94.3602 175.415 98.3597 173.663 101.492L177.154 103.445ZM312.43 117.059L313.923 118.389L313.93 118.381L312.43 117.059ZM295.203 129.451L294.413 127.614L294.407 127.616L295.203 129.451ZM251.082 129.451L250.286 131.286L250.292 131.289L251.082 129.451ZM233.855 117.059L232.363 118.39L232.37 118.398L233.855 117.059ZM222.518 97.2832L220.625 97.9286L220.629 97.9414L222.518 97.2832ZM222.518 38.8359L224.409 39.4857L224.411 39.4813L222.518 38.8359ZM233.68 19.0605L232.188 17.7288L232.18 17.7378L233.68 19.0605ZM250.906 6.58008L250.116 4.74261L250.111 4.74516L250.906 6.58008ZM295.027 6.58008L294.232 8.415L294.238 8.41753L295.027 6.58008ZM312.254 19.0605L310.754 20.3833L310.762 20.3923L312.254 19.0605ZM323.504 38.8359L321.611 39.4813L321.614 39.4899L321.617 39.4986L323.504 38.8359ZM284.832 26.0039L283.902 27.7744L283.914 27.7806L283.926 27.7867L284.832 26.0039ZM261.102 26.0039L262.02 27.7804L262.032 27.7744L261.102 26.0039ZM252.4 33.9141L250.749 32.7857L250.743 32.7951L250.736 32.8047L252.4 33.9141ZM247.039 89.0215L245.093 89.4808L245.094 89.4857L247.039 89.0215ZM252.488 102.117L250.828 103.233L250.833 103.239L250.837 103.246L252.488 102.117ZM293.709 102.117L295.373 103.227L295.377 103.22L295.381 103.214L293.709 102.117ZM299.07 89.0215L301.016 89.4857L301.017 89.4808L299.07 89.0215ZM325.547 65.0273V71.0918H329.547V65.0273H325.547ZM325.547 71.0918C325.547 80.6394 324.253 89.1465 321.699 96.6379L325.485 97.9286C328.204 89.9511 329.547 80.9973 329.547 71.0918H325.547ZM321.699 96.6379C319.137 104.154 315.539 110.508 310.93 115.736L313.93 118.381C318.929 112.711 322.774 105.881 325.485 97.9286L321.699 96.6379ZM310.937 115.728C306.328 120.899 300.826 124.857 294.413 127.614L295.993 131.289C302.939 128.303 308.922 124 313.923 118.389L310.937 115.728ZM294.407 127.616C288.066 130.366 280.988 131.758 273.143 131.758V135.758C281.469 135.758 289.098 134.278 295.999 131.286L294.407 127.616ZM273.143 131.758C265.358 131.758 258.277 130.367 251.872 127.614L250.292 131.289C257.246 134.278 264.872 135.758 273.143 135.758V131.758ZM251.878 127.616C245.521 124.86 240.013 120.898 235.34 115.719L232.37 118.398C237.424 124 243.401 128.3 250.286 131.286L251.878 127.616ZM235.348 115.727C230.68 110.496 227.025 104.141 224.406 96.6251L220.629 97.9414C223.4 105.894 227.305 112.722 232.363 118.39L235.348 115.727ZM224.411 96.6379C221.857 89.1465 220.562 80.6394 220.562 71.0918H216.562C216.562 80.9973 217.905 89.9511 220.625 97.9286L224.411 96.6379ZM220.562 71.0918V65.0273H216.562V71.0918H220.562ZM220.562 65.0273C220.562 55.4192 221.857 46.9144 224.409 39.4857L220.626 38.1862C217.904 46.109 216.562 55.0651 216.562 65.0273H220.562ZM224.411 39.4813C226.973 31.9653 230.57 25.6116 235.18 20.3833L232.18 17.7378C227.18 23.408 223.336 30.2378 220.625 38.1906L224.411 39.4813ZM235.172 20.3923C239.845 15.1566 245.35 11.1694 251.702 8.41499L250.111 4.74516C243.22 7.73298 237.241 12.0661 232.188 17.7288L235.172 20.3923ZM251.696 8.41753C258.101 5.66435 265.183 4.27344 272.967 4.27344V0.273438C264.696 0.273438 257.07 1.75362 250.116 4.74262L251.696 8.41753ZM272.967 4.27344C280.812 4.27344 287.89 5.6652 294.232 8.41499L295.823 4.74516C288.922 1.75277 281.293 0.273438 272.967 0.273438V4.27344ZM294.238 8.41753C300.646 11.1718 306.145 15.1563 310.754 20.3833L313.754 17.7378C308.753 12.0664 302.769 7.73052 295.817 4.74262L294.238 8.41753ZM310.762 20.3923C315.427 25.6194 319.05 31.9701 321.611 39.4813L325.397 38.1906C322.684 30.233 318.808 23.4001 313.746 17.7288L310.762 20.3923ZM321.617 39.4986C324.224 46.9232 325.547 55.4234 325.547 65.0273H329.547C329.547 55.0609 328.174 46.1002 325.391 38.1733L321.617 39.4986ZM302.916 71.0918V64.8516H298.916V71.0918H302.916ZM302.916 64.8516C302.916 57.9398 302.291 51.8016 301.016 46.4576L297.125 47.3861C298.311 52.3546 298.916 58.1696 298.916 64.8516H302.916ZM301.016 46.4576C299.742 41.1199 297.842 36.5455 295.272 32.7857L291.97 35.0424C294.205 38.3139 295.938 42.4113 297.125 47.3861L301.016 46.4576ZM295.272 32.7857C292.7 29.0206 289.523 26.1457 285.739 24.2211L283.926 27.7867C287.055 29.3778 289.738 31.7762 291.97 35.0424L295.272 32.7857ZM285.762 24.2334C281.98 22.2463 277.698 21.2793 272.967 21.2793V25.2793C277.142 25.2793 280.77 26.1287 283.902 27.7744L285.762 24.2334ZM272.967 21.2793C268.235 21.2793 263.953 22.2463 260.171 24.2334L262.032 27.7744C265.164 26.1287 268.792 25.2793 272.967 25.2793V21.2793ZM260.183 24.2275C256.458 26.1539 253.317 29.0282 250.749 32.7857L254.052 35.0424C256.289 31.7687 258.948 29.3695 262.02 27.7803L260.183 24.2275ZM250.736 32.8047C248.233 36.5599 246.366 41.1276 245.094 46.4576L248.984 47.3861C250.173 42.4037 251.881 38.2994 254.064 35.0235L250.736 32.8047ZM245.094 46.4576C243.818 51.8016 243.193 57.9398 243.193 64.8516H247.193C247.193 58.1696 247.799 52.3546 248.984 47.3861L245.094 46.4576ZM243.193 64.8516V71.0918H247.193V64.8516H243.193ZM243.193 71.0918C243.193 77.947 243.819 84.0827 245.093 89.4808L248.986 88.5622C247.798 83.5306 247.193 77.7131 247.193 71.0918H243.193ZM245.094 89.4857C246.367 94.8226 248.266 99.4204 250.828 103.233L254.148 101.002C251.906 97.6655 250.172 93.5329 248.984 88.5572L245.094 89.4857ZM250.837 103.246C253.407 107.006 256.575 109.904 260.347 111.886L262.208 108.345C259.065 106.694 256.375 104.26 254.14 100.989L250.837 103.246ZM260.347 111.886C264.129 113.873 268.411 114.84 273.143 114.84V110.84C268.968 110.84 265.34 109.99 262.208 108.345L260.347 111.886ZM273.143 114.84C277.874 114.84 282.156 113.873 285.938 111.886L284.078 108.345C280.945 109.99 277.317 110.84 273.143 110.84V114.84ZM285.938 111.886C289.715 109.901 292.859 106.997 295.373 103.227L292.045 101.008C289.871 104.269 287.215 106.696 284.078 108.345L285.938 111.886ZM295.381 103.214C297.878 99.4061 299.744 94.815 301.016 89.4857L297.125 88.5572C295.936 93.5405 294.227 97.6799 292.036 101.02L295.381 103.214ZM301.017 89.4808C302.291 84.0827 302.916 77.947 302.916 71.0918H298.916C298.916 77.7131 298.311 83.5306 297.124 88.5622L301.017 89.4808ZM420.711 89.5488V87.5488H418.843L418.716 89.4128L420.711 89.5488ZM446.99 89.5488L448.986 89.671L449.116 87.5488H446.99V89.5488ZM439.871 112.488L438.18 111.42L438.173 111.431L439.871 112.488ZM422.381 128.133L421.486 126.344L421.481 126.347L422.381 128.133ZM373.426 129.539L372.618 131.369L372.625 131.372L372.632 131.375L373.426 129.539ZM356.727 117.234L355.208 118.536L355.216 118.545L356.727 117.234ZM346.355 38.2207L344.457 37.5926L344.454 37.6015L346.355 38.2207ZM357.078 18.7969L355.576 17.4763L355.568 17.4858L357.078 18.7969ZM422.645 7.98633L421.711 9.75494L421.717 9.75799L422.645 7.98633ZM439.783 23.9824L438.064 25.0049L438.071 25.0158L439.783 23.9824ZM447.166 47.1855V49.1855H449.364L449.157 46.9972L447.166 47.1855ZM420.799 47.1855L418.802 47.299L418.909 49.1855H420.799V47.1855ZM417.723 34.0898L415.922 34.961L415.928 34.9725L417.723 34.0898ZM409.725 25.916L408.783 27.6807L408.801 27.69L408.819 27.699L409.725 25.916ZM370.877 45.6914L368.923 45.2647L368.921 45.2732L368.919 45.2817L370.877 45.6914ZM370.789 89.9883L368.827 90.3761L368.828 90.3805L370.789 89.9883ZM375.359 102.645L373.639 103.665L373.65 103.682L373.66 103.699L375.359 102.645ZM383.445 110.379L382.501 112.142L382.52 112.152L382.538 112.161L383.445 110.379ZM417.283 102.469L415.538 101.492L415.531 101.504L415.525 101.515L417.283 102.469ZM420.711 91.5488H446.99V87.5488H420.711V91.5488ZM444.994 89.4266C444.485 97.7357 442.203 105.051 438.18 111.42L441.562 113.556C445.977 106.566 448.441 98.5885 448.986 89.671L444.994 89.4266ZM438.173 111.431C434.221 117.777 428.679 122.748 421.486 126.344L423.275 129.922C431.083 126.018 437.201 120.559 441.569 113.546L438.173 111.431ZM421.481 126.347C414.381 129.924 405.741 131.758 395.486 131.758V135.758C406.208 135.758 415.498 133.841 423.281 129.919L421.481 126.347ZM395.486 131.758C387.514 131.758 380.436 130.392 374.22 127.703L372.632 131.375C379.423 134.311 387.053 135.758 395.486 135.758V131.758ZM374.233 127.709C367.997 124.956 362.671 121.031 358.237 115.923L355.216 118.545C360.04 124.102 365.847 128.379 372.618 131.369L374.233 127.709ZM358.245 115.933C353.87 110.829 350.505 104.629 348.174 97.2926L344.362 98.5042C346.835 106.285 350.442 112.976 355.208 118.536L358.245 115.933ZM348.174 97.2926C345.844 89.9618 344.664 81.7039 344.664 72.498H340.664C340.664 82.0422 341.887 90.7179 344.362 98.5042L348.174 97.2926ZM344.664 72.498V63.6211H340.664V72.498H344.664ZM344.664 63.6211C344.664 54.4197 345.872 46.1664 348.257 38.8399L344.454 37.6015C341.917 45.3922 340.664 54.0725 340.664 63.6211H344.664ZM348.254 38.8488C350.702 31.4487 354.155 25.2149 358.588 20.108L355.568 17.4858C350.743 23.0429 347.048 29.7584 344.457 37.5926L348.254 38.8488ZM358.58 20.1174C363.076 15.0038 368.434 11.0758 374.673 8.32184L373.058 4.66253C366.288 7.65074 360.456 11.9259 355.576 17.4764L358.58 20.1174ZM374.673 8.32184C380.891 5.57673 387.877 4.18555 395.662 4.18555V0.185547C387.393 0.185547 379.847 1.66546 373.058 4.66253L374.673 8.32184ZM395.662 4.18555C406.092 4.18555 414.745 6.07714 421.711 9.75494L423.578 6.21772C415.895 2.16114 406.561 0.185547 395.662 0.185547V4.18555ZM421.717 9.75799C428.79 13.4631 434.221 18.5436 438.064 25.0049L441.502 22.96C437.26 15.8275 431.265 10.2439 423.573 6.21467L421.717 9.75799ZM438.071 25.0158C442.003 31.5313 444.38 38.9716 445.175 47.3739L449.157 46.9972C448.311 38.0558 445.767 30.0273 441.496 22.9491L438.071 25.0158ZM447.166 45.1855H420.799V49.1855H447.166V45.1855ZM422.796 47.0721C422.492 41.7243 421.423 37.0815 419.517 33.2072L415.928 34.9725C417.538 38.2466 418.52 42.3343 418.802 47.299L422.796 47.0721ZM419.523 33.2187C417.576 29.1952 414.597 26.1489 410.631 24.133L408.819 27.699C412 29.3159 414.354 31.7189 415.922 34.961L419.523 33.2187ZM410.666 24.1513C406.756 22.0662 401.707 21.1035 395.662 21.1035V25.1035C401.336 25.1035 405.662 26.0159 408.783 27.6807L410.666 24.1513ZM395.662 21.1035C391.018 21.1035 386.863 21.9713 383.254 23.7756L385.043 27.3533C387.997 25.8764 391.517 25.1035 395.662 25.1035V21.1035ZM383.254 23.7756C379.633 25.5863 376.624 28.3243 374.223 31.9258L377.551 34.1446C379.603 31.0663 382.102 28.8239 385.043 27.3533L383.254 23.7756ZM374.223 31.9258C371.823 35.525 370.074 39.9929 368.923 45.2647L372.831 46.1181C373.906 41.1946 375.497 37.225 377.551 34.1446L374.223 31.9258ZM368.919 45.2817C367.829 50.4904 367.295 56.5517 367.295 63.4453H371.295C371.295 56.7452 371.815 50.9705 372.835 46.1011L368.919 45.2817ZM367.295 63.4453V72.498H371.295V63.4453H367.295ZM367.295 72.498C367.295 79.2141 367.8 85.1789 368.827 90.3761L372.751 89.6004C371.786 84.7195 371.295 79.0241 371.295 72.498H367.295ZM368.828 90.3805C369.857 95.5267 371.447 99.9701 373.639 103.665L377.079 101.624C375.17 98.4049 373.713 94.4108 372.75 89.596L368.828 90.3805ZM373.66 103.699C375.94 107.373 378.887 110.206 382.501 112.142L384.39 108.616C381.441 107.036 378.997 104.713 377.059 101.59L373.66 103.699ZM382.538 112.161C386.221 114.035 390.561 114.928 395.486 114.928V110.928C391.037 110.928 387.349 110.121 384.352 108.596L382.538 112.161ZM395.486 114.928C401.19 114.928 406.059 114.02 409.992 112.086L408.227 108.496C405.012 110.078 400.799 110.928 395.486 110.928V114.928ZM409.992 112.086C413.933 110.148 416.966 107.249 419.041 103.422L415.525 101.515C413.85 104.603 411.434 106.919 408.227 108.496L409.992 112.086ZM419.029 103.445C421.144 99.6637 422.341 95.0499 422.706 89.6849L418.716 89.4128C418.378 94.3602 417.29 98.3597 415.538 101.492L419.029 103.445Z" fill="#D9D9D9" mask="url(#path-1-outside-1_3001_120)"/>
</svg>
