<svg width="956" height="143" viewBox="0 0 956 143" fill="none" xmlns="http://www.w3.org/2000/svg">
<mask id="path-1-outside-1_799_1146" maskUnits="userSpaceOnUse" x="0" y="0" width="956" height="143" fill="black">
<rect fill="white" width="956" height="143"/>
<path d="M42.2754 118.697L67.7637 11.0312H82.002L85.2539 28.9609L58.0957 139H42.8027L42.2754 118.697ZM29.1797 11.0312L50.2734 118.697L48.5156 139H31.4648L3.07617 11.0312H29.1797ZM107.666 118.258L128.496 11.0312H154.6L126.299 139H109.248L107.666 118.258ZM90 11.0312L115.664 119.137L114.961 139H99.668L72.334 28.873L75.8496 11.0312H90ZM160.488 92.418V90.5723C160.488 83.5996 161.484 77.1836 163.477 71.3242C165.469 65.4062 168.369 60.2793 172.178 55.9434C175.986 51.6074 180.674 48.2383 186.24 45.8359C191.807 43.375 198.193 42.1445 205.4 42.1445C212.607 42.1445 219.023 43.375 224.648 45.8359C230.273 48.2383 234.99 51.6074 238.799 55.9434C242.666 60.2793 245.596 65.4062 247.588 71.3242C249.58 77.1836 250.576 83.5996 250.576 90.5723V92.418C250.576 99.332 249.58 105.748 247.588 111.666C245.596 117.525 242.666 122.652 238.799 127.047C234.99 131.383 230.303 134.752 224.736 137.154C219.17 139.557 212.783 140.758 205.576 140.758C198.369 140.758 191.953 139.557 186.328 137.154C180.762 134.752 176.045 131.383 172.178 127.047C168.369 122.652 165.469 117.525 163.477 111.666C161.484 105.748 160.488 99.332 160.488 92.418ZM185.801 90.5723V92.418C185.801 96.4023 186.152 100.123 186.855 103.58C187.559 107.037 188.672 110.084 190.195 112.721C191.777 115.299 193.828 117.32 196.348 118.785C198.867 120.25 201.943 120.982 205.576 120.982C209.092 120.982 212.109 120.25 214.629 118.785C217.148 117.32 219.17 115.299 220.693 112.721C222.217 110.084 223.33 107.037 224.033 103.58C224.795 100.123 225.176 96.4023 225.176 92.418V90.5723C225.176 86.7051 224.795 83.0723 224.033 79.6738C223.33 76.2168 222.188 73.1699 220.605 70.5332C219.082 67.8379 217.061 65.7285 214.541 64.2051C212.021 62.6816 208.975 61.9199 205.4 61.9199C201.826 61.9199 198.779 62.6816 196.26 64.2051C193.799 65.7285 191.777 67.8379 190.195 70.5332C188.672 73.1699 187.559 76.2168 186.855 79.6738C186.152 83.0723 185.801 86.7051 185.801 90.5723ZM291.445 64.6445V139H266.133V43.9023H289.951L291.445 64.6445ZM320.098 43.2871L319.658 66.7539C318.428 66.5781 316.934 66.4316 315.176 66.3145C313.477 66.1387 311.924 66.0508 310.518 66.0508C306.943 66.0508 303.838 66.5195 301.201 67.457C298.623 68.3359 296.455 69.6543 294.697 71.4121C292.998 73.1699 291.709 75.3086 290.83 77.8281C290.01 80.3477 289.541 83.2188 289.424 86.4414L284.326 84.8594C284.326 78.707 284.941 73.0527 286.172 67.8965C287.402 62.6816 289.189 58.1406 291.533 54.2734C293.936 50.4062 296.865 47.418 300.322 45.3086C303.779 43.1992 307.734 42.1445 312.188 42.1445C313.594 42.1445 315.029 42.2617 316.494 42.4961C317.959 42.6719 319.16 42.9355 320.098 43.2871ZM357.363 3.91211V139H332.051V3.91211H357.363ZM417.305 43.9023L375.996 91.0117L353.848 113.424L344.619 95.1426L362.197 72.8184L386.895 43.9023H417.305ZM391.025 139L362.9 95.0547L380.391 79.7617L420.205 139H391.025ZM460.459 139H434.971V35.4648C434.971 28.2578 436.377 22.1934 439.189 17.2715C442.061 12.291 446.074 8.54102 451.23 6.02148C456.445 3.44336 462.627 2.1543 469.775 2.1543C472.119 2.1543 474.375 2.33008 476.543 2.68164C478.711 2.97461 480.82 3.35547 482.871 3.82422L482.607 22.8965C481.494 22.6035 480.322 22.3984 479.092 22.2812C477.861 22.1641 476.426 22.1055 474.785 22.1055C471.738 22.1055 469.131 22.6328 466.963 23.6875C464.854 24.6836 463.242 26.1777 462.129 28.1699C461.016 30.1621 460.459 32.5937 460.459 35.4648V139ZM479.443 43.9023V61.832H420.82V43.9023H479.443ZM488.672 92.418V90.5723C488.672 83.5996 489.668 77.1836 491.66 71.3242C493.652 65.4062 496.553 60.2793 500.361 55.9434C504.17 51.6074 508.857 48.2383 514.424 45.8359C519.99 43.375 526.377 42.1445 533.584 42.1445C540.791 42.1445 547.207 43.375 552.832 45.8359C558.457 48.2383 563.174 51.6074 566.982 55.9434C570.85 60.2793 573.779 65.4062 575.771 71.3242C577.764 77.1836 578.76 83.5996 578.76 90.5723V92.418C578.76 99.332 577.764 105.748 575.771 111.666C573.779 117.525 570.85 122.652 566.982 127.047C563.174 131.383 558.486 134.752 552.92 137.154C547.354 139.557 540.967 140.758 533.76 140.758C526.553 140.758 520.137 139.557 514.512 137.154C508.945 134.752 504.229 131.383 500.361 127.047C496.553 122.652 493.652 117.525 491.66 111.666C489.668 105.748 488.672 99.332 488.672 92.418ZM513.984 90.5723V92.418C513.984 96.4023 514.336 100.123 515.039 103.58C515.742 107.037 516.855 110.084 518.379 112.721C519.961 115.299 522.012 117.32 524.531 118.785C527.051 120.25 530.127 120.982 533.76 120.982C537.275 120.982 540.293 120.25 542.812 118.785C545.332 117.32 547.354 115.299 548.877 112.721C550.4 110.084 551.514 107.037 552.217 103.58C552.979 100.123 553.359 96.4023 553.359 92.418V90.5723C553.359 86.7051 552.979 83.0723 552.217 79.6738C551.514 76.2168 550.371 73.1699 548.789 70.5332C547.266 67.8379 545.244 65.7285 542.725 64.2051C540.205 62.6816 537.158 61.9199 533.584 61.9199C530.01 61.9199 526.963 62.6816 524.443 64.2051C521.982 65.7285 519.961 67.8379 518.379 70.5332C516.855 73.1699 515.742 76.2168 515.039 79.6738C514.336 83.0723 513.984 86.7051 513.984 90.5723ZM619.629 64.6445V139H594.316V43.9023H618.135L619.629 64.6445ZM648.281 43.2871L647.842 66.7539C646.611 66.5781 645.117 66.4316 643.359 66.3145C641.66 66.1387 640.107 66.0508 638.701 66.0508C635.127 66.0508 632.021 66.5195 629.385 67.457C626.807 68.3359 624.639 69.6543 622.881 71.4121C621.182 73.1699 619.893 75.3086 619.014 77.8281C618.193 80.3477 617.725 83.2188 617.607 86.4414L612.51 84.8594C612.51 78.707 613.125 73.0527 614.355 67.8965C615.586 62.6816 617.373 58.1406 619.717 54.2734C622.119 50.4062 625.049 47.418 628.506 45.3086C631.963 43.1992 635.918 42.1445 640.371 42.1445C641.777 42.1445 643.213 42.2617 644.678 42.4961C646.143 42.6719 647.344 42.9355 648.281 43.2871ZM697.764 120.982C700.869 120.982 703.623 120.396 706.025 119.225C708.428 117.994 710.303 116.295 711.65 114.127C713.057 111.9 713.789 109.293 713.848 106.305H737.666C737.607 112.984 735.82 118.932 732.305 124.146C728.789 129.303 724.072 133.375 718.154 136.363C712.236 139.293 705.615 140.758 698.291 140.758C690.908 140.758 684.463 139.527 678.955 137.066C673.506 134.605 668.965 131.207 665.332 126.871C661.699 122.477 658.975 117.379 657.158 111.578C655.342 105.719 654.434 99.4492 654.434 92.7695V90.2207C654.434 83.4824 655.342 77.2129 657.158 71.4121C658.975 65.5527 661.699 60.4551 665.332 56.1191C668.965 51.7246 673.506 48.2969 678.955 45.8359C684.404 43.375 690.791 42.1445 698.115 42.1445C705.908 42.1445 712.734 43.6387 718.594 46.627C724.512 49.6152 729.141 53.8926 732.48 59.459C735.879 64.9668 737.607 71.5 737.666 79.0586H713.848C713.789 75.8945 713.115 73.0234 711.826 70.4453C710.596 67.8672 708.779 65.8164 706.377 64.293C704.033 62.7109 701.133 61.9199 697.676 61.9199C693.984 61.9199 690.967 62.7109 688.623 64.293C686.279 65.8164 684.463 67.9258 683.174 70.6211C681.885 73.2578 680.977 76.2754 680.449 79.6738C679.98 83.0137 679.746 86.5293 679.746 90.2207V92.7695C679.746 96.4609 679.98 100.006 680.449 103.404C680.918 106.803 681.797 109.82 683.086 112.457C684.434 115.094 686.279 117.174 688.623 118.697C690.967 120.221 694.014 120.982 697.764 120.982ZM796.113 140.758C788.73 140.758 782.109 139.586 776.25 137.242C770.391 134.84 765.41 131.529 761.309 127.311C757.266 123.092 754.16 118.199 751.992 112.633C749.824 107.008 748.74 101.031 748.74 94.7031V91.1875C748.74 83.9805 749.766 77.3887 751.816 71.4121C753.867 65.4355 756.797 60.25 760.605 55.8555C764.473 51.4609 769.16 48.0918 774.668 45.748C780.176 43.3457 786.387 42.1445 793.301 42.1445C800.039 42.1445 806.016 43.2578 811.23 45.4844C816.445 47.7109 820.811 50.875 824.326 54.9766C827.9 59.0781 830.596 64 832.412 69.7422C834.229 75.4258 835.137 81.7539 835.137 88.7266V99.2734H759.551V82.3984H810.264V80.4648C810.264 76.9492 809.619 73.8145 808.33 71.0605C807.1 68.248 805.225 66.0215 802.705 64.3809C800.186 62.7402 796.963 61.9199 793.037 61.9199C789.697 61.9199 786.826 62.6523 784.424 64.1172C782.021 65.582 780.059 67.6328 778.535 70.2695C777.07 72.9062 775.957 76.0117 775.195 79.5859C774.492 83.1016 774.141 86.9688 774.141 91.1875V94.7031C774.141 98.5117 774.668 102.027 775.723 105.25C776.836 108.473 778.389 111.256 780.381 113.6C782.432 115.943 784.893 117.76 787.764 119.049C790.693 120.338 794.004 120.982 797.695 120.982C802.266 120.982 806.514 120.104 810.439 118.346C814.424 116.529 817.852 113.805 820.723 110.172L833.027 123.531C831.035 126.402 828.311 129.156 824.854 131.793C821.455 134.43 817.354 136.598 812.549 138.297C807.744 139.938 802.266 140.758 796.113 140.758ZM872.842 11.0312L896.924 55.6797L921.006 11.0312H951.152L913.975 74.4883L952.119 139H921.709L896.924 93.4727L872.139 139H841.553L879.785 74.4883L842.52 11.0312H872.842Z"/>
</mask>
<path d="M42.2754 118.697L40.3292 118.237L40.2693 118.489L40.2761 118.749L42.2754 118.697ZM67.7637 11.0312V9.03125H66.1819L65.8175 10.5705L67.7637 11.0312ZM82.002 11.0312L83.9698 10.6743L83.6718 9.03125H82.002V11.0312ZM85.2539 28.9609L87.1956 29.4402L87.2981 29.0249L87.2218 28.604L85.2539 28.9609ZM58.0957 139V141H59.6621L60.0374 139.479L58.0957 139ZM42.8027 139L40.8034 139.052L40.854 141H42.8027V139ZM29.1797 11.0312L31.1424 10.6467L30.8259 9.03125H29.1797V11.0312ZM50.2734 118.697L52.266 118.87L52.2903 118.589L52.2361 118.313L50.2734 118.697ZM48.5156 139V141H50.3499L50.5082 139.173L48.5156 139ZM31.4648 139L29.5123 139.433L29.8599 141H31.4648V139ZM3.07617 11.0312V9.03125H0.583868L1.12364 11.4644L3.07617 11.0312ZM107.666 118.258L105.703 117.876L105.651 118.141L105.672 118.41L107.666 118.258ZM128.496 11.0312V9.03125H126.847L126.533 10.6499L128.496 11.0312ZM154.6 11.0312L156.552 11.4631L157.09 9.03125H154.6V11.0312ZM126.299 139V141H127.905L128.252 139.432L126.299 139ZM109.248 139L107.254 139.152L107.395 141H109.248V139ZM90 11.0312L91.9459 10.5693L91.5808 9.03125H90V11.0312ZM115.664 119.137L117.663 119.207L117.672 118.938L117.61 118.675L115.664 119.137ZM114.961 139V141H116.891L116.96 139.071L114.961 139ZM99.668 139L97.7269 139.482L98.1037 141H99.668V139ZM72.334 28.873L70.3717 28.4864L70.2857 28.923L70.3929 29.3548L72.334 28.873ZM75.8496 11.0312V9.03125H74.2052L73.8873 10.6446L75.8496 11.0312ZM44.2216 119.158L69.7099 11.492L65.8175 10.5705L40.3292 118.237L44.2216 119.158ZM67.7637 13.0312H82.002V9.03125H67.7637V13.0312ZM80.0341 11.3882L83.286 29.3179L87.2218 28.604L83.9698 10.6743L80.0341 11.3882ZM83.3122 28.4817L56.154 138.521L60.0374 139.479L87.1956 29.4402L83.3122 28.4817ZM58.0957 137H42.8027V141H58.0957V137ZM44.8021 138.948L44.2747 118.645L40.2761 118.749L40.8034 139.052L44.8021 138.948ZM27.217 11.4158L48.3107 119.082L52.2361 118.313L31.1424 10.6467L27.217 11.4158ZM48.2809 118.525L46.5231 138.827L50.5082 139.173L52.266 118.87L48.2809 118.525ZM48.5156 137H31.4648V141H48.5156V137ZM33.4174 138.567L5.0287 10.5981L1.12364 11.4644L29.5123 139.433L33.4174 138.567ZM3.07617 13.0312H29.1797V9.03125H3.07617V13.0312ZM109.629 118.639L130.459 11.4126L126.533 10.6499L105.703 117.876L109.629 118.639ZM128.496 13.0312H154.6V9.03125H128.496V13.0312ZM152.647 10.5994L124.346 138.568L128.252 139.432L156.552 11.4631L152.647 10.5994ZM126.299 137H109.248V141H126.299V137ZM111.242 138.848L109.66 118.106L105.672 118.41L107.254 139.152L111.242 138.848ZM88.0541 11.4932L113.718 119.599L117.61 118.675L91.9459 10.5693L88.0541 11.4932ZM113.665 119.066L112.962 138.929L116.96 139.071L117.663 119.207L113.665 119.066ZM114.961 137H99.668V141H114.961V137ZM101.609 138.518L74.2751 28.3913L70.3929 29.3548L97.7269 139.482L101.609 138.518ZM74.2962 29.2597L77.8119 11.4179L73.8873 10.6446L70.3717 28.4864L74.2962 29.2597ZM75.8496 13.0312H90V9.03125H75.8496V13.0312ZM163.477 71.3242L165.37 71.968L165.372 71.9623L163.477 71.3242ZM186.24 45.8359L187.033 47.6722L187.041 47.6687L187.049 47.6651L186.24 45.8359ZM224.648 45.8359L223.847 47.6683L223.855 47.6718L223.863 47.6752L224.648 45.8359ZM238.799 55.9434L237.296 57.2632L237.301 57.2689L237.306 57.2746L238.799 55.9434ZM247.588 71.3242L245.692 71.9623L245.694 71.968L247.588 71.3242ZM247.588 111.666L249.481 112.31L249.483 112.304L247.588 111.666ZM238.799 127.047L237.297 125.726L237.296 125.727L238.799 127.047ZM186.328 137.154L185.536 138.991L185.543 138.994L186.328 137.154ZM172.178 127.047L170.666 128.357L170.676 128.367L170.685 128.378L172.178 127.047ZM163.477 111.666L161.581 112.304L161.583 112.31L163.477 111.666ZM190.195 112.721L188.464 113.721L188.477 113.744L188.491 113.767L190.195 112.721ZM220.693 112.721L222.415 113.738L222.42 113.73L222.425 113.721L220.693 112.721ZM224.033 103.58L222.08 103.15L222.077 103.166L222.073 103.181L224.033 103.58ZM224.033 79.6738L222.073 80.0724L222.077 80.0919L222.082 80.1113L224.033 79.6738ZM220.605 70.5332L218.864 71.5173L218.877 71.5399L218.89 71.5622L220.605 70.5332ZM196.26 64.2051L195.225 62.4936L195.216 62.499L195.207 62.5045L196.26 64.2051ZM190.195 70.5332L188.47 69.5208L188.464 69.5326L190.195 70.5332ZM186.855 79.6738L188.814 80.079L188.815 80.0724L186.855 79.6738ZM162.488 92.418V90.5723H158.488V92.418H162.488ZM162.488 90.5723C162.488 83.7912 163.457 77.5956 165.37 71.968L161.583 70.6804C159.512 76.7716 158.488 83.408 158.488 90.5723H162.488ZM165.372 71.9623C167.287 66.2746 170.06 61.3843 173.68 57.2632L170.675 54.6235C166.678 59.1743 163.651 64.5379 161.581 70.6861L165.372 71.9623ZM173.68 57.2632C177.284 53.1612 181.724 49.9632 187.033 47.6722L185.448 43.9997C179.623 46.5133 174.689 50.0537 170.675 54.6235L173.68 57.2632ZM187.049 47.6651C192.318 45.3356 198.421 44.1445 205.4 44.1445V40.1445C197.965 40.1445 191.295 41.4144 185.432 44.0067L187.049 47.6651ZM205.4 44.1445C212.379 44.1445 218.515 45.3354 223.847 47.6683L225.45 44.0036C219.532 41.4146 212.836 40.1445 205.4 40.1445V44.1445ZM223.863 47.6752C229.23 49.9674 233.697 53.1652 237.296 57.2632L240.301 54.6235C236.284 50.0497 231.317 46.5092 225.434 43.9967L223.863 47.6752ZM237.306 57.2746C240.981 61.3943 243.78 66.2808 245.692 71.9623L249.483 70.6861C247.412 64.5317 244.351 59.1643 240.291 54.6121L237.306 57.2746ZM245.694 71.968C247.608 77.5956 248.576 83.7912 248.576 90.5723H252.576C252.576 83.408 251.552 76.7716 249.481 70.6804L245.694 71.968ZM248.576 90.5723V92.418H252.576V90.5723H248.576ZM248.576 92.418C248.576 99.1382 247.608 105.336 245.692 111.028L249.483 112.304C251.552 106.16 252.576 99.5259 252.576 92.418H248.576ZM245.694 111.022C243.782 116.647 240.981 121.54 237.297 125.726L240.3 128.368C244.351 123.765 247.409 118.404 249.481 112.31L245.694 111.022ZM237.296 125.727C233.693 129.829 229.252 133.027 223.944 135.318L225.529 138.991C231.353 136.477 236.287 132.937 240.301 128.367L237.296 125.727ZM223.944 135.318C218.67 137.594 212.561 138.758 205.576 138.758V142.758C213.005 142.758 219.67 141.519 225.529 138.991L223.944 135.318ZM205.576 138.758C198.592 138.758 192.45 137.594 187.114 135.315L185.543 138.994C191.456 141.519 198.147 142.758 205.576 142.758V138.758ZM187.121 135.318C181.81 133.026 177.335 129.825 173.67 125.716L170.685 128.378C174.755 132.941 179.714 136.478 185.536 138.991L187.121 135.318ZM173.689 125.737C170.06 121.55 167.285 116.653 165.37 111.022L161.583 112.31C163.653 118.398 166.678 123.755 170.666 128.357L173.689 125.737ZM165.372 111.028C163.456 105.336 162.488 99.1382 162.488 92.418H158.488C158.488 99.5259 159.513 106.16 161.581 112.304L165.372 111.028ZM183.801 90.5723V92.418H187.801V90.5723H183.801ZM183.801 92.418C183.801 96.5193 184.163 100.375 184.896 103.979L188.815 103.181C188.142 99.8712 187.801 96.2854 187.801 92.418H183.801ZM184.896 103.979C185.635 107.615 186.817 110.871 188.464 113.721L191.927 111.72C190.527 109.297 189.482 106.46 188.815 103.181L184.896 103.979ZM188.491 113.767C190.239 116.616 192.526 118.877 195.342 120.514L197.353 117.056C195.13 115.764 193.316 113.982 191.9 111.675L188.491 113.767ZM195.342 120.514C198.234 122.195 201.676 122.982 205.576 122.982V118.982C202.21 118.982 199.5 118.305 197.353 117.056L195.342 120.514ZM205.576 122.982C209.372 122.982 212.752 122.19 215.634 120.514L213.624 117.056C211.467 118.31 208.812 118.982 205.576 118.982V122.982ZM215.634 120.514C218.458 118.872 220.723 116.602 222.415 113.738L218.972 111.703C217.617 113.995 215.839 115.768 213.624 117.056L215.634 120.514ZM222.425 113.721C224.072 110.871 225.254 107.615 225.993 103.979L222.073 103.181C221.407 106.46 220.361 109.297 218.962 111.72L222.425 113.721ZM225.986 104.01C226.783 100.396 227.176 96.5293 227.176 92.418H223.176C223.176 96.2754 222.807 99.8504 222.08 103.15L225.986 104.01ZM227.176 92.418V90.5723H223.176V92.418H227.176ZM227.176 90.5723C227.176 86.5739 226.782 82.7932 225.985 79.2364L222.082 80.1113C222.808 83.3513 223.176 86.8363 223.176 90.5723H227.176ZM225.993 79.2752C225.251 75.6279 224.035 72.362 222.32 69.5042L218.89 71.5622C220.34 73.9779 221.409 76.8057 222.073 80.0724L225.993 79.2752ZM222.347 69.5491C220.663 66.5707 218.405 64.2041 215.576 62.4936L213.506 65.9165C215.716 67.2529 217.501 69.1051 218.864 71.5173L222.347 69.5491ZM215.576 62.4936C212.683 60.7447 209.261 59.9199 205.4 59.9199V63.9199C208.688 63.9199 211.36 64.6186 213.506 65.9165L215.576 62.4936ZM205.4 59.9199C201.54 59.9199 198.117 60.7447 195.225 62.4936L197.295 65.9165C199.441 64.6186 202.113 63.9199 205.4 63.9199V59.9199ZM195.207 62.5045C192.448 64.2128 190.204 66.5678 188.47 69.5208L191.92 71.5456C193.351 69.108 195.15 67.2443 197.312 65.9056L195.207 62.5045ZM188.464 69.5326C186.817 72.3834 185.635 75.6394 184.896 79.2752L188.815 80.0724C189.482 76.7942 190.527 73.9565 191.927 71.5338L188.464 69.5326ZM184.897 79.2686C184.163 82.8145 183.801 86.5842 183.801 90.5723H187.801C187.801 86.826 188.141 83.33 188.814 80.079L184.897 79.2686ZM291.445 64.6445H293.445V64.5726L293.44 64.5008L291.445 64.6445ZM291.445 139V141H293.445V139H291.445ZM266.133 139H264.133V141H266.133V139ZM266.133 43.9023V41.9023H264.133V43.9023H266.133ZM289.951 43.9023L291.946 43.7587L291.812 41.9023H289.951V43.9023ZM320.098 43.2871L322.097 43.3246L322.124 41.9109L320.8 41.4145L320.098 43.2871ZM319.658 66.7539L319.375 68.7338L321.615 69.0538L321.658 66.7914L319.658 66.7539ZM315.176 66.3145L314.97 68.3038L315.006 68.3076L315.043 68.31L315.176 66.3145ZM301.201 67.457L301.847 69.3501L301.859 69.3458L301.871 69.3415L301.201 67.457ZM294.697 71.4121L293.283 69.9979L293.271 70.0099L293.259 70.0221L294.697 71.4121ZM290.83 77.8281L288.942 77.1694L288.935 77.1891L288.928 77.209L290.83 77.8281ZM289.424 86.4414L288.831 88.3515L291.328 89.1263L291.423 86.5141L289.424 86.4414ZM284.326 84.8594H282.326V86.3328L283.733 86.7695L284.326 84.8594ZM286.172 67.8965L288.117 68.3607L288.118 68.3558L286.172 67.8965ZM291.533 54.2734L289.834 53.2181L289.829 53.2274L289.823 53.2368L291.533 54.2734ZM316.494 42.4961L316.178 44.471L316.217 44.4772L316.256 44.4818L316.494 42.4961ZM289.445 64.6445V139H293.445V64.6445H289.445ZM291.445 137H266.133V141H291.445V137ZM268.133 139V43.9023H264.133V139H268.133ZM266.133 45.9023H289.951V41.9023H266.133V45.9023ZM287.956 44.046L289.45 64.7882L293.44 64.5008L291.946 43.7587L287.956 44.046ZM318.098 43.2497L317.659 66.7165L321.658 66.7914L322.097 43.3246L318.098 43.2497ZM319.941 64.774C318.645 64.5889 317.098 64.4382 315.309 64.3189L315.043 68.31C316.769 68.4251 318.21 68.5674 319.375 68.7338L319.941 64.774ZM315.382 64.3251C313.628 64.1437 312.005 64.0508 310.518 64.0508V68.0508C311.842 68.0508 313.325 68.1337 314.97 68.3038L315.382 64.3251ZM310.518 64.0508C306.775 64.0508 303.433 64.5407 300.531 65.5726L301.871 69.3415C304.243 68.4983 307.111 68.0508 310.518 68.0508V64.0508ZM300.556 65.564C297.716 66.532 295.277 68.0037 293.283 69.9979L296.111 72.8263C297.633 71.3049 299.53 70.1398 301.847 69.3501L300.556 65.564ZM293.259 70.0221C291.341 72.0066 289.907 74.4017 288.942 77.1694L292.718 78.4869C293.511 76.2155 294.655 74.3332 296.135 72.8022L293.259 70.0221ZM288.928 77.209C288.04 79.9387 287.548 82.999 287.425 86.3687L291.423 86.5141C291.534 83.4385 291.98 80.7567 292.732 78.4473L288.928 77.209ZM290.017 84.5313L284.919 82.9492L283.733 86.7695L288.831 88.3515L290.017 84.5313ZM286.326 84.8594C286.326 78.839 286.928 73.3429 288.117 68.3607L284.227 67.4323C282.954 72.7626 282.326 78.575 282.326 84.8594H286.326ZM288.118 68.3558C289.309 63.308 291.026 58.9688 293.244 55.31L289.823 53.2368C287.353 57.3125 285.495 62.0553 284.225 67.4372L288.118 68.3558ZM293.232 55.3288C295.49 51.694 298.206 48.9431 301.364 47.0159L299.281 43.6013C295.525 45.8929 292.381 49.1185 289.834 53.2181L293.232 55.3288ZM301.364 47.0159C304.477 45.1167 308.064 44.1445 312.188 44.1445V40.1445C307.405 40.1445 303.082 41.2817 299.281 43.6013L301.364 47.0159ZM312.188 44.1445C313.482 44.1445 314.812 44.2524 316.178 44.471L316.81 40.5212C315.246 40.271 313.705 40.1445 312.188 40.1445V44.1445ZM316.256 44.4818C317.629 44.6467 318.66 44.8839 319.395 45.1598L320.8 41.4145C319.66 40.9872 318.289 40.6971 316.732 40.5103L316.256 44.4818ZM357.363 3.91211H359.363V1.91211H357.363V3.91211ZM357.363 139V141H359.363V139H357.363ZM332.051 139H330.051V141H332.051V139ZM332.051 3.91211V1.91211H330.051V3.91211H332.051ZM417.305 43.9023L418.808 45.2209L421.718 41.9023H417.305V43.9023ZM375.996 91.0117L377.419 92.4175L377.461 92.3751L377.5 92.3303L375.996 91.0117ZM353.848 113.424L352.062 114.325L353.315 116.808L355.27 114.83L353.848 113.424ZM344.619 95.1426L343.048 93.9053L342.26 94.9064L342.834 96.0439L344.619 95.1426ZM362.197 72.8184L360.676 71.5194L360.651 71.5498L360.626 71.5811L362.197 72.8184ZM386.895 43.9023V41.9023H385.973L385.374 42.6034L386.895 43.9023ZM391.025 139L389.341 140.078L389.931 141H391.025V139ZM362.9 95.0547L361.584 93.5491L360.288 94.6825L361.216 96.1328L362.9 95.0547ZM380.391 79.7617L382.051 78.6461L380.784 76.7613L379.074 78.2561L380.391 79.7617ZM420.205 139V141H423.959L421.865 137.884L420.205 139ZM355.363 3.91211V139H359.363V3.91211H355.363ZM357.363 137H332.051V141H357.363V137ZM334.051 139V3.91211H330.051V139H334.051ZM332.051 5.91211H357.363V1.91211H332.051V5.91211ZM415.801 42.5837L374.492 89.6931L377.5 92.3303L418.808 45.2209L415.801 42.5837ZM374.574 89.6059L352.425 112.018L355.27 114.83L377.419 92.4175L374.574 89.6059ZM355.633 112.523L346.405 94.2413L342.834 96.0439L352.062 114.325L355.633 112.523ZM346.19 96.3799L363.769 74.0556L360.626 71.5811L343.048 93.9053L346.19 96.3799ZM363.718 74.1173L388.415 45.2013L385.374 42.6034L360.676 71.5194L363.718 74.1173ZM386.895 45.9023H417.305V41.9023H386.895V45.9023ZM392.71 137.922L364.585 93.9766L361.216 96.1328L389.341 140.078L392.71 137.922ZM364.217 96.5603L381.707 81.2673L379.074 78.2561L361.584 93.5491L364.217 96.5603ZM378.731 80.8774L418.545 140.116L421.865 137.884L382.051 78.6461L378.731 80.8774ZM420.205 137H391.025V141H420.205V137ZM460.459 139V141H462.459V139H460.459ZM434.971 139H432.971V141H434.971V139ZM439.189 17.2715L437.457 16.2726L437.453 16.2792L439.189 17.2715ZM451.23 6.02148L452.109 7.81845L452.117 7.81435L451.23 6.02148ZM476.543 2.68164L476.223 4.65585L476.249 4.66008L476.275 4.66362L476.543 2.68164ZM482.871 3.82422L484.871 3.85187L484.893 2.23485L483.317 1.8745L482.871 3.82422ZM482.607 22.8965L482.098 24.8306L484.572 25.4815L484.607 22.9241L482.607 22.8965ZM466.963 23.6875L467.817 25.496L467.827 25.491L467.838 25.486L466.963 23.6875ZM479.443 43.9023H481.443V41.9023H479.443V43.9023ZM479.443 61.832V63.832H481.443V61.832H479.443ZM420.82 61.832H418.82V63.832H420.82V61.832ZM420.82 43.9023V41.9023H418.82V43.9023H420.82ZM460.459 137H434.971V141H460.459V137ZM436.971 139V35.4648H432.971V139H436.971ZM436.971 35.4648C436.971 28.5131 438.327 22.812 440.926 18.2638L437.453 16.2792C434.427 21.5747 432.971 28.0025 432.971 35.4648H436.971ZM440.922 18.2703C443.595 13.6345 447.311 10.1627 452.109 7.81843L450.352 4.22454C444.837 6.91933 440.526 10.9476 437.457 16.2726L440.922 18.2703ZM452.117 7.81435C457 5.40009 462.865 4.1543 469.775 4.1543V0.154297C462.389 0.154297 455.89 1.48663 450.344 4.22862L452.117 7.81435ZM469.775 4.1543C472.019 4.1543 474.168 4.32256 476.223 4.65585L476.863 0.70743C474.582 0.337601 472.219 0.154297 469.775 0.154297V4.1543ZM476.275 4.66362C478.386 4.94884 480.436 5.31914 482.425 5.77394L483.317 1.8745C481.205 1.3918 479.036 1.00038 476.811 0.699656L476.275 4.66362ZM480.871 3.79657L480.608 22.8688L484.607 22.9241L484.871 3.85187L480.871 3.79657ZM483.116 20.9623C481.891 20.6399 480.612 20.417 479.281 20.2903L478.902 24.2722C480.033 24.3799 481.097 24.5672 482.098 24.8306L483.116 20.9623ZM479.281 20.2903C477.971 20.1655 476.47 20.1055 474.785 20.1055V24.1055C476.382 24.1055 477.751 24.1626 478.902 24.2722L479.281 20.2903ZM474.785 20.1055C471.513 20.1055 468.591 20.6715 466.088 21.889L467.838 25.486C469.671 24.5941 471.964 24.1055 474.785 24.1055V20.1055ZM466.109 21.879C463.632 23.0488 461.704 24.8298 460.383 27.1943L463.875 29.1456C464.78 27.5257 466.075 26.3184 467.817 25.496L466.109 21.879ZM460.383 27.1943C459.065 29.5521 458.459 32.3388 458.459 35.4648H462.459C462.459 32.8487 462.966 30.7721 463.875 29.1456L460.383 27.1943ZM458.459 35.4648V139H462.459V35.4648H458.459ZM477.443 43.9023V61.832H481.443V43.9023H477.443ZM479.443 59.832H420.82V63.832H479.443V59.832ZM422.82 61.832V43.9023H418.82V61.832H422.82ZM420.82 45.9023H479.443V41.9023H420.82V45.9023ZM491.66 71.3242L493.554 71.968L493.556 71.9623L491.66 71.3242ZM514.424 45.8359L515.216 47.6722L515.224 47.6687L515.233 47.6651L514.424 45.8359ZM552.832 45.8359L552.03 47.6683L552.038 47.6718L552.047 47.6752L552.832 45.8359ZM566.982 55.9434L565.48 57.2632L565.485 57.2689L565.49 57.2746L566.982 55.9434ZM575.771 71.3242L573.876 71.9623L573.878 71.968L575.771 71.3242ZM575.771 111.666L577.665 112.31L577.667 112.304L575.771 111.666ZM566.982 127.047L565.481 125.726L565.48 125.727L566.982 127.047ZM514.512 137.154L513.719 138.991L513.726 138.994L514.512 137.154ZM500.361 127.047L498.85 128.357L498.859 128.367L498.869 128.378L500.361 127.047ZM491.66 111.666L489.765 112.304L489.767 112.31L491.66 111.666ZM518.379 112.721L516.647 113.721L516.66 113.744L516.674 113.767L518.379 112.721ZM548.877 112.721L550.599 113.738L550.604 113.73L550.609 113.721L548.877 112.721ZM552.217 103.58L550.264 103.15L550.26 103.166L550.257 103.181L552.217 103.58ZM552.217 79.6738L550.257 80.0724L550.261 80.0919L550.265 80.1113L552.217 79.6738ZM548.789 70.5332L547.048 71.5173L547.061 71.5399L547.074 71.5622L548.789 70.5332ZM524.443 64.2051L523.409 62.4936L523.4 62.499L523.391 62.5045L524.443 64.2051ZM518.379 70.5332L516.654 69.5208L516.647 69.5326L518.379 70.5332ZM515.039 79.6738L516.998 80.079L516.999 80.0724L515.039 79.6738ZM490.672 92.418V90.5723H486.672V92.418H490.672ZM490.672 90.5723C490.672 83.7912 491.64 77.5956 493.554 71.968L489.767 70.6804C487.696 76.7716 486.672 83.408 486.672 90.5723H490.672ZM493.556 71.9623C495.47 66.2746 498.244 61.3843 501.864 57.2632L498.859 54.6235C494.861 59.1743 491.834 64.5379 489.765 70.6861L493.556 71.9623ZM501.864 57.2632C505.467 53.1612 509.908 49.9632 515.216 47.6722L513.631 43.9997C507.807 46.5133 502.873 50.0537 498.859 54.6235L501.864 57.2632ZM515.233 47.6651C520.502 45.3356 526.605 44.1445 533.584 44.1445V40.1445C526.149 40.1445 519.479 41.4144 513.615 44.0067L515.233 47.6651ZM533.584 44.1445C540.562 44.1445 546.698 45.3354 552.03 47.6683L553.634 44.0036C547.716 41.4146 541.02 40.1445 533.584 40.1445V44.1445ZM552.047 47.6752C557.414 49.9674 561.88 53.1652 565.48 57.2632L568.485 54.6235C564.468 50.0497 559.501 46.5092 553.618 43.9967L552.047 47.6752ZM565.49 57.2746C569.164 61.3943 571.963 66.2808 573.876 71.9623L577.667 70.6861C575.595 64.5317 572.535 59.1643 568.475 54.6121L565.49 57.2746ZM573.878 71.968C575.791 77.5956 576.76 83.7912 576.76 90.5723H580.76C580.76 83.408 579.736 76.7716 577.665 70.6804L573.878 71.968ZM576.76 90.5723V92.418H580.76V90.5723H576.76ZM576.76 92.418C576.76 99.1382 575.792 105.336 573.876 111.028L577.667 112.304C579.735 106.16 580.76 99.5259 580.76 92.418H576.76ZM573.878 111.022C571.966 116.647 569.164 121.54 565.481 125.726L568.484 128.368C572.535 123.765 575.593 118.404 577.665 112.31L573.878 111.022ZM565.48 125.727C561.877 129.829 557.436 133.027 552.127 135.318L553.712 138.991C559.537 136.477 564.471 132.937 568.485 128.367L565.48 125.727ZM552.127 135.318C546.854 137.594 540.745 138.758 533.76 138.758V142.758C541.189 142.758 547.853 141.519 553.712 138.991L552.127 135.318ZM533.76 138.758C526.775 138.758 520.634 137.594 515.297 135.315L513.726 138.994C519.64 141.519 526.33 142.758 533.76 142.758V138.758ZM515.304 135.318C509.993 133.026 505.519 129.825 501.854 125.716L498.869 128.378C502.938 132.941 507.897 136.478 513.719 138.991L515.304 135.318ZM501.873 125.737C498.244 121.55 495.468 116.653 493.554 111.022L489.767 112.31C491.837 118.398 494.861 123.755 498.85 128.357L501.873 125.737ZM493.556 111.028C491.64 105.336 490.672 99.1382 490.672 92.418H486.672C486.672 99.5259 487.696 106.16 489.765 112.304L493.556 111.028ZM511.984 90.5723V92.418H515.984V90.5723H511.984ZM511.984 92.418C511.984 96.5193 512.346 100.375 513.079 103.979L516.999 103.181C516.326 99.8712 515.984 96.2854 515.984 92.418H511.984ZM513.079 103.979C513.819 107.615 515 110.871 516.647 113.721L520.111 111.72C518.711 109.297 517.666 106.46 516.999 103.181L513.079 103.979ZM516.674 113.767C518.423 116.616 520.709 118.877 523.526 120.514L525.536 117.056C523.314 115.764 521.499 113.982 520.084 111.675L516.674 113.767ZM523.526 120.514C526.418 122.195 529.86 122.982 533.76 122.982V118.982C530.394 118.982 527.684 118.305 525.536 117.056L523.526 120.514ZM533.76 122.982C537.556 122.982 540.936 122.19 543.818 120.514L541.807 117.056C539.65 118.31 536.995 118.982 533.76 118.982V122.982ZM543.818 120.514C546.641 118.872 548.906 116.602 550.599 113.738L547.155 111.703C545.801 113.995 544.023 115.768 541.807 117.056L543.818 120.514ZM550.609 113.721C552.256 110.871 553.437 107.615 554.177 103.979L550.257 103.181C549.59 106.46 548.545 109.297 547.145 111.72L550.609 113.721ZM554.17 104.01C554.966 100.396 555.359 96.5293 555.359 92.418H551.359C551.359 96.2754 550.991 99.8504 550.264 103.15L554.17 104.01ZM555.359 92.418V90.5723H551.359V92.418H555.359ZM555.359 90.5723C555.359 86.5739 554.966 82.7932 554.168 79.2364L550.265 80.1113C550.991 83.3513 551.359 86.8363 551.359 90.5723H555.359ZM554.177 79.2752C553.435 75.6279 552.219 72.362 550.504 69.5042L547.074 71.5622C548.523 73.9779 549.592 76.8057 550.257 80.0724L554.177 79.2752ZM550.53 69.5491C548.847 66.5707 546.588 64.2041 543.759 62.4936L541.69 65.9165C543.9 67.2529 545.685 69.1051 547.048 71.5173L550.53 69.5491ZM543.759 62.4936C540.867 60.7447 537.445 59.9199 533.584 59.9199V63.9199C536.872 63.9199 539.543 64.6186 541.69 65.9165L543.759 62.4936ZM533.584 59.9199C529.723 59.9199 526.301 60.7447 523.409 62.4936L525.478 65.9165C527.625 64.6186 530.296 63.9199 533.584 63.9199V59.9199ZM523.391 62.5045C520.631 64.2128 518.387 66.5678 516.654 69.5208L520.104 71.5456C521.535 69.108 523.334 67.2443 525.496 65.9056L523.391 62.5045ZM516.647 69.5326C515 72.3834 513.819 75.6394 513.079 79.2752L516.999 80.0724C517.666 76.7942 518.711 73.9565 520.111 71.5338L516.647 69.5326ZM513.081 79.2686C512.347 82.8145 511.984 86.5842 511.984 90.5723H515.984C515.984 86.826 516.325 83.33 516.998 80.079L513.081 79.2686ZM619.629 64.6445H621.629V64.5726L621.624 64.5008L619.629 64.6445ZM619.629 139V141H621.629V139H619.629ZM594.316 139H592.316V141H594.316V139ZM594.316 43.9023V41.9023H592.316V43.9023H594.316ZM618.135 43.9023L620.13 43.7587L619.996 41.9023H618.135V43.9023ZM648.281 43.2871L650.281 43.3246L650.307 41.9109L648.984 41.4145L648.281 43.2871ZM647.842 66.7539L647.559 68.7338L649.799 69.0538L649.841 66.7914L647.842 66.7539ZM643.359 66.3145L643.154 68.3038L643.19 68.3076L643.226 68.31L643.359 66.3145ZM629.385 67.457L630.03 69.3501L630.042 69.3458L630.055 69.3415L629.385 67.457ZM622.881 71.4121L621.467 69.9979L621.455 70.0099L621.443 70.0221L622.881 71.4121ZM619.014 77.8281L617.125 77.1694L617.118 77.1891L617.112 77.209L619.014 77.8281ZM617.607 86.4414L617.015 88.3515L619.511 89.1263L619.606 86.5141L617.607 86.4414ZM612.51 84.8594H610.51V86.3328L611.917 86.7695L612.51 84.8594ZM614.355 67.8965L616.301 68.3607L616.302 68.3558L614.355 67.8965ZM619.717 54.2734L618.018 53.2181L618.012 53.2274L618.006 53.2368L619.717 54.2734ZM644.678 42.4961L644.362 44.471L644.401 44.4772L644.439 44.4818L644.678 42.4961ZM617.629 64.6445V139H621.629V64.6445H617.629ZM619.629 137H594.316V141H619.629V137ZM596.316 139V43.9023H592.316V139H596.316ZM594.316 45.9023H618.135V41.9023H594.316V45.9023ZM616.14 44.046L617.634 64.7882L621.624 64.5008L620.13 43.7587L616.14 44.046ZM646.282 43.2497L645.842 66.7165L649.841 66.7914L650.281 43.3246L646.282 43.2497ZM648.125 64.774C646.829 64.5889 645.281 64.4382 643.492 64.3189L643.226 68.31C644.953 68.4251 646.394 68.5674 647.559 68.7338L648.125 64.774ZM643.565 64.3251C641.812 64.1437 640.189 64.0508 638.701 64.0508V68.0508C640.026 68.0508 641.509 68.1337 643.154 68.3038L643.565 64.3251ZM638.701 64.0508C634.959 64.0508 631.617 64.5407 628.715 65.5726L630.055 69.3415C632.426 68.4983 635.295 68.0508 638.701 68.0508V64.0508ZM628.739 65.564C625.9 66.532 623.461 68.0037 621.467 69.9979L624.295 72.8263C625.817 71.3049 627.713 70.1398 630.03 69.3501L628.739 65.564ZM621.443 70.0221C619.524 72.0066 618.091 74.4017 617.125 77.1694L620.902 78.4869C621.694 76.2155 622.839 74.3332 624.319 72.8022L621.443 70.0221ZM617.112 77.209C616.223 79.9387 615.731 82.999 615.609 86.3687L619.606 86.5141C619.718 83.4385 620.164 80.7567 620.915 78.4473L617.112 77.209ZM618.2 84.5313L613.103 82.9492L611.917 86.7695L617.015 88.3515L618.2 84.5313ZM614.51 84.8594C614.51 78.839 615.112 73.3429 616.301 68.3607L612.41 67.4323C611.138 72.7626 610.51 78.575 610.51 84.8594H614.51ZM616.302 68.3558C617.493 63.308 619.21 58.9688 621.427 55.31L618.006 53.2368C615.536 57.3125 613.679 62.0553 612.409 67.4372L616.302 68.3558ZM621.416 55.3288C623.674 51.694 626.389 48.9431 629.548 47.0159L627.464 43.6013C623.708 45.8929 620.565 49.1185 618.018 53.2181L621.416 55.3288ZM629.548 47.0159C632.66 45.1167 636.248 44.1445 640.371 44.1445V40.1445C635.588 40.1445 631.266 41.2817 627.464 43.6013L629.548 47.0159ZM640.371 44.1445C641.666 44.1445 642.996 44.2524 644.362 44.471L644.994 40.5212C643.43 40.271 641.889 40.1445 640.371 40.1445V44.1445ZM644.439 44.4818C645.813 44.6467 646.843 44.8839 647.579 45.1598L648.984 41.4145C647.844 40.9872 646.472 40.6971 644.916 40.5103L644.439 44.4818ZM706.025 119.225L706.902 121.022L706.92 121.014L706.937 121.005L706.025 119.225ZM711.65 114.127L709.959 113.059L709.956 113.065L709.952 113.071L711.65 114.127ZM713.848 106.305V104.305H711.886L711.848 106.265L713.848 106.305ZM737.666 106.305L739.666 106.322L739.684 104.305H737.666V106.305ZM732.305 124.146L733.957 125.273L733.963 125.264L732.305 124.146ZM718.154 136.363L719.042 138.156L719.049 138.152L719.056 138.149L718.154 136.363ZM678.955 137.066L678.132 138.889L678.139 138.892L678.955 137.066ZM665.332 126.871L663.791 128.145L663.799 128.156L665.332 126.871ZM657.158 111.578L655.248 112.17L655.25 112.176L657.158 111.578ZM657.158 71.4121L659.067 72.0098L659.069 72.0043L657.158 71.4121ZM665.332 56.1191L666.865 57.4036L666.874 57.3934L665.332 56.1191ZM718.594 46.627L717.685 48.4086L717.692 48.4123L718.594 46.627ZM732.48 59.459L730.766 60.488L730.772 60.4986L730.778 60.5092L732.48 59.459ZM737.666 79.0586V81.0586H739.682L739.666 79.0431L737.666 79.0586ZM713.848 79.0586L711.848 79.0956L711.884 81.0586H713.848V79.0586ZM711.826 70.4453L710.021 71.3068L710.029 71.3233L710.037 71.3397L711.826 70.4453ZM706.377 64.293L705.258 65.9507L705.282 65.9667L705.306 65.982L706.377 64.293ZM688.623 64.293L689.713 65.9699L689.728 65.9604L689.742 65.9507L688.623 64.293ZM683.174 70.6211L684.971 71.4995L684.974 71.4918L684.978 71.484L683.174 70.6211ZM680.449 79.6738L678.473 79.3672L678.471 79.3815L678.469 79.3959L680.449 79.6738ZM683.086 112.457L681.289 113.335L681.297 113.351L681.305 113.367L683.086 112.457ZM697.764 122.982C701.124 122.982 704.186 122.347 706.902 121.022L705.149 117.427C703.06 118.446 700.614 118.982 697.764 118.982V122.982ZM706.937 121.005C709.643 119.619 711.798 117.677 713.349 115.183L709.952 113.071C708.807 114.913 707.212 116.37 705.114 117.445L706.937 121.005ZM713.341 115.195C714.968 112.62 715.783 109.647 715.847 106.344L711.848 106.265C711.796 108.939 711.146 111.181 709.959 113.059L713.341 115.195ZM713.848 108.305H737.666V104.305H713.848V108.305ZM735.666 106.287C735.611 112.6 733.929 118.16 730.646 123.029L733.963 125.264C737.712 119.704 739.604 113.369 739.666 106.322L735.666 106.287ZM730.652 123.02C727.339 127.879 722.888 131.732 717.253 134.578L719.056 138.149C725.256 135.018 730.239 130.726 733.957 125.273L730.652 123.02ZM717.267 134.571C711.654 137.35 705.341 138.758 698.291 138.758V142.758C705.889 142.758 712.819 141.236 719.042 138.156L717.267 134.571ZM698.291 138.758C691.128 138.758 684.971 137.564 679.771 135.24L678.139 138.892C683.954 141.491 690.688 142.758 698.291 142.758V138.758ZM679.778 135.244C674.587 132.899 670.294 129.679 666.865 125.587L663.799 128.156C667.636 132.735 672.425 136.312 678.132 138.889L679.778 135.244ZM666.874 125.597C663.416 121.415 660.811 116.551 659.067 110.98L655.25 112.176C657.138 118.207 659.982 123.538 663.791 128.145L666.874 125.597ZM659.069 110.986C657.317 105.335 656.434 99.2662 656.434 92.7695H652.434C652.434 99.6323 653.367 106.103 655.248 112.17L659.069 110.986ZM656.434 92.7695V90.2207H652.434V92.7695H656.434ZM656.434 90.2207C656.434 83.6633 657.317 77.5974 659.067 72.0098L655.25 70.8145C653.366 76.8284 652.434 83.3015 652.434 90.2207H656.434ZM659.069 72.0043C660.813 66.3768 663.417 61.5194 666.865 57.4036L663.799 54.8347C659.982 59.3907 657.136 64.7286 655.248 70.8199L659.069 72.0043ZM666.874 57.3934C670.302 53.2456 674.593 50.0003 679.778 47.6587L678.132 44.0132C672.418 46.5935 667.627 50.2036 663.791 54.8448L666.874 57.3934ZM679.778 47.6587C684.917 45.3378 691.013 44.1445 698.115 44.1445V40.1445C690.57 40.1445 683.891 41.4122 678.132 44.0132L679.778 47.6587ZM698.115 44.1445C705.65 44.1445 712.155 45.5881 717.685 48.4086L719.502 44.8453C713.314 41.6892 706.166 40.1445 698.115 40.1445V44.1445ZM717.692 48.4123C723.281 51.2341 727.624 55.2526 730.766 60.488L734.195 58.43C730.657 52.5325 725.743 47.9963 719.495 44.8416L717.692 48.4123ZM730.778 60.5092C733.955 65.6568 735.61 71.8189 735.666 79.0741L739.666 79.0431C739.605 71.1811 737.803 64.2768 734.183 58.4088L730.778 60.5092ZM737.666 77.0586H713.848V81.0586H737.666V77.0586ZM715.847 79.0216C715.784 75.5891 715.05 72.4208 713.615 69.5509L710.037 71.3397C711.18 73.6261 711.794 76.2 711.848 79.0956L715.847 79.0216ZM713.631 69.5839C712.239 66.6679 710.169 64.3297 707.448 62.604L705.306 65.982C707.389 67.3031 708.952 69.0665 710.021 71.3068L713.631 69.5839ZM707.496 62.6353C704.754 60.7848 701.442 59.9199 697.676 59.9199V63.9199C700.824 63.9199 703.312 64.6371 705.258 65.9507L707.496 62.6353ZM697.676 59.9199C693.706 59.9199 690.266 60.7711 687.504 62.6353L689.742 65.9507C691.668 64.6507 694.263 63.9199 697.676 63.9199V59.9199ZM687.533 62.6161C684.86 64.3539 682.806 66.7548 681.37 69.7582L684.978 71.484C686.12 69.0968 687.699 67.2789 689.713 65.9699L687.533 62.6161ZM681.377 69.7427C679.986 72.5878 679.026 75.8034 678.473 79.3672L682.426 79.9805C682.927 76.7474 683.783 73.9279 684.971 71.4995L681.377 69.7427ZM678.469 79.3959C677.986 82.8359 677.746 86.4449 677.746 90.2207H681.746C681.746 86.6137 681.975 83.1914 682.43 79.9518L678.469 79.3959ZM677.746 90.2207V92.7695H681.746V90.2207H677.746ZM677.746 92.7695C677.746 96.5455 677.986 100.182 678.468 103.678L682.43 103.131C681.975 99.8297 681.746 96.3764 681.746 92.7695H677.746ZM678.468 103.678C678.961 107.252 679.893 110.479 681.289 113.335L684.883 111.579C683.701 109.162 682.875 106.354 682.43 103.131L678.468 103.678ZM681.305 113.367C682.802 116.296 684.878 118.649 687.533 120.374L689.713 117.02C687.68 115.699 686.065 113.891 684.867 111.547L681.305 113.367ZM687.533 120.374C690.295 122.169 693.756 122.982 697.764 122.982V118.982C694.272 118.982 691.639 118.272 689.713 117.02L687.533 120.374ZM776.25 137.242L775.491 139.093L775.499 139.096L775.507 139.099L776.25 137.242ZM761.309 127.311L759.865 128.694L759.87 128.7L759.875 128.705L761.309 127.311ZM751.992 112.633L750.126 113.352L750.129 113.359L751.992 112.633ZM760.605 55.8555L759.104 54.5342L759.099 54.5399L759.094 54.5456L760.605 55.8555ZM774.668 45.748L775.451 47.5884L775.459 47.5848L775.468 47.5813L774.668 45.748ZM824.326 54.9766L822.808 56.2781L822.813 56.2844L822.818 56.2905L824.326 54.9766ZM832.412 69.7422L830.505 70.3454L830.507 70.351L832.412 69.7422ZM835.137 99.2734V101.273H837.137V99.2734H835.137ZM759.551 99.2734H757.551V101.273H759.551V99.2734ZM759.551 82.3984V80.3984H757.551V82.3984H759.551ZM810.264 82.3984V84.3984H812.264V82.3984H810.264ZM808.33 71.0605L806.498 71.8622L806.508 71.8854L806.519 71.9084L808.33 71.0605ZM778.535 70.2695L776.803 69.269L776.795 69.2835L776.787 69.2982L778.535 70.2695ZM775.195 79.5859L773.239 79.1691L773.237 79.1814L773.234 79.1937L775.195 79.5859ZM775.723 105.25L773.822 105.872L773.827 105.888L773.832 105.903L775.723 105.25ZM780.381 113.6L778.857 114.895L778.866 114.906L778.876 114.917L780.381 113.6ZM787.764 119.049L786.945 120.873L786.951 120.876L786.958 120.879L787.764 119.049ZM810.439 118.346L811.257 120.171L811.269 120.166L810.439 118.346ZM820.723 110.172L822.194 108.817L820.606 107.093L819.154 108.932L820.723 110.172ZM833.027 123.531L834.671 124.671L835.584 123.355L834.498 122.176L833.027 123.531ZM824.854 131.793L823.641 130.203L823.634 130.208L823.628 130.213L824.854 131.793ZM812.549 138.297L813.195 140.19L813.205 140.186L813.216 140.182L812.549 138.297ZM796.113 138.758C788.942 138.758 782.579 137.62 776.993 135.385L775.507 139.099C781.639 141.552 788.519 142.758 796.113 142.758V138.758ZM777.009 135.392C771.384 133.085 766.638 129.924 762.743 125.916L759.875 128.705C764.182 133.135 769.398 136.594 775.491 139.093L777.009 135.392ZM762.753 125.927C758.895 121.902 755.931 117.234 753.856 111.907L750.129 113.359C752.39 119.164 755.636 124.282 759.865 128.694L762.753 125.927ZM753.858 111.914C751.783 106.529 750.74 100.798 750.74 94.7031H746.74C746.74 101.265 747.865 107.486 750.126 113.352L753.858 111.914ZM750.74 94.7031V91.1875H746.74V94.7031H750.74ZM750.74 91.1875C750.74 84.1707 751.738 77.8018 753.708 72.0612L749.925 70.763C747.793 76.9756 746.74 83.7902 746.74 91.1875H750.74ZM753.708 72.0612C755.683 66.3061 758.49 61.3499 762.117 57.1653L759.094 54.5456C755.104 59.1501 752.051 64.5649 749.925 70.763L753.708 72.0612ZM762.107 57.1767C765.772 53.0119 770.212 49.8177 775.451 47.5884L773.885 43.9077C768.108 46.3659 763.173 49.91 759.104 54.5342L762.107 57.1767ZM775.468 47.5813C780.688 45.3043 786.621 44.1445 793.301 44.1445V40.1445C786.153 40.1445 779.664 41.3871 773.868 43.9148L775.468 47.5813ZM793.301 44.1445C799.819 44.1445 805.521 45.2212 810.445 47.3237L812.016 43.645C806.511 41.2945 800.259 40.1445 793.301 40.1445V44.1445ZM810.445 47.3237C815.392 49.4359 819.502 52.4214 822.808 56.2781L825.845 53.675C822.119 49.3286 817.499 45.986 812.016 43.645L810.445 47.3237ZM822.818 56.2905C826.194 60.1639 828.763 64.8368 830.505 70.3454L834.319 69.139C832.429 63.1632 829.607 57.9923 825.834 53.6626L822.818 56.2905ZM830.507 70.351C832.251 75.8079 833.137 81.9266 833.137 88.7266H837.137C837.137 81.5813 836.206 75.0437 834.317 69.1333L830.507 70.351ZM833.137 88.7266V99.2734H837.137V88.7266H833.137ZM835.137 97.2734H759.551V101.273H835.137V97.2734ZM761.551 99.2734V82.3984H757.551V99.2734H761.551ZM759.551 84.3984H810.264V80.3984H759.551V84.3984ZM812.264 82.3984V80.4648H808.264V82.3984H812.264ZM812.264 80.4648C812.264 76.7018 811.573 73.2704 810.141 70.2127L806.519 71.9084C807.666 74.3585 808.264 77.1966 808.264 80.4648H812.264ZM810.162 70.2589C808.779 67.0969 806.65 64.5631 803.796 62.7049L801.614 66.0569C803.799 67.4798 805.42 69.3992 806.498 71.8622L810.162 70.2589ZM803.796 62.7049C800.867 60.7971 797.234 59.9199 793.037 59.9199V63.9199C796.692 63.9199 799.505 64.6834 801.614 66.0569L803.796 62.7049ZM793.037 59.9199C789.399 59.9199 786.153 60.7204 783.383 62.4096L785.465 65.8248C787.499 64.5843 789.995 63.9199 793.037 63.9199V59.9199ZM783.383 62.4096C780.671 64.0628 778.48 66.367 776.803 69.269L780.267 71.2701C781.637 68.8986 783.372 67.1013 785.465 65.8248L783.383 62.4096ZM776.787 69.2982C775.208 72.1406 774.034 75.4403 773.239 79.1691L777.151 80.0028C777.88 76.5831 778.933 73.6719 780.283 71.2408L776.787 69.2982ZM773.234 79.1937C772.501 82.8587 772.141 86.8595 772.141 91.1875H776.141C776.141 87.078 776.483 83.3444 777.156 79.9782L773.234 79.1937ZM772.141 91.1875V94.7031H776.141V91.1875H772.141ZM772.141 94.7031C772.141 98.6973 772.694 102.426 773.822 105.872L777.623 104.628C776.642 101.629 776.141 98.3261 776.141 94.7031H772.141ZM773.832 105.903C775.018 109.335 776.687 112.342 778.857 114.895L781.905 112.304C780.09 110.169 778.654 107.61 777.613 104.597L773.832 105.903ZM778.876 114.917C781.118 117.479 783.814 119.468 786.945 120.873L788.583 117.224C785.971 116.052 783.745 114.407 781.886 112.283L778.876 114.917ZM786.958 120.879C790.178 122.296 793.769 122.982 797.695 122.982V118.982C794.239 118.982 791.209 118.38 788.569 117.218L786.958 120.879ZM797.695 122.982C802.529 122.982 807.058 122.051 811.257 120.171L809.622 116.52C805.969 118.156 802.002 118.982 797.695 118.982V122.982ZM811.269 120.166C815.559 118.21 819.235 115.279 822.292 111.412L819.154 108.932C816.468 112.33 813.289 114.849 809.61 116.526L811.269 120.166ZM819.252 111.527L831.556 124.886L834.498 122.176L822.194 108.817L819.252 111.527ZM831.384 122.391C829.536 125.055 826.97 127.663 823.641 130.203L826.066 133.383C829.651 130.649 832.534 127.75 834.671 124.671L831.384 122.391ZM823.628 130.213C820.426 132.697 816.521 134.771 811.882 136.411L813.216 140.182C818.186 138.425 822.484 136.163 826.08 133.373L823.628 130.213ZM811.903 136.404C807.345 137.961 802.091 138.758 796.113 138.758V142.758C802.44 142.758 808.144 141.914 813.195 140.19L811.903 136.404ZM872.842 11.0312L874.602 10.0818L874.035 9.03125H872.842V11.0312ZM896.924 55.6797L895.164 56.6291L896.924 59.8927L898.684 56.6291L896.924 55.6797ZM921.006 11.0312V9.03125H919.812L919.246 10.0818L921.006 11.0312ZM951.152 11.0312L952.878 12.0423L954.642 9.03125H951.152V11.0312ZM913.975 74.4883L912.249 73.4773L911.654 74.4929L912.253 75.5062L913.975 74.4883ZM952.119 139V141H955.625L953.841 137.982L952.119 139ZM921.709 139L919.952 139.956L920.521 141H921.709V139ZM896.924 93.4727L898.68 92.5164L896.924 89.2898L895.167 92.5164L896.924 93.4727ZM872.139 139V141H873.327L873.895 139.956L872.139 139ZM841.553 139L839.832 137.98L838.043 141H841.553V139ZM879.785 74.4883L881.506 75.5079L882.107 74.4929L881.51 73.4755L879.785 74.4883ZM842.52 11.0312V9.03125H839.026L840.795 12.044L842.52 11.0312ZM871.082 11.9807L895.164 56.6291L898.684 54.7302L874.602 10.0818L871.082 11.9807ZM898.684 56.6291L922.766 11.9807L919.246 10.0818L895.164 54.7302L898.684 56.6291ZM921.006 13.0312H951.152V9.03125H921.006V13.0312ZM949.427 10.0202L912.249 73.4773L915.7 75.4993L952.878 12.0423L949.427 10.0202ZM912.253 75.5062L950.398 140.018L953.841 137.982L915.696 73.4704L912.253 75.5062ZM952.119 137H921.709V141H952.119V137ZM923.466 138.044L898.68 92.5164L895.167 94.4289L919.952 139.956L923.466 138.044ZM895.167 92.5164L870.382 138.044L873.895 139.956L898.68 94.4289L895.167 92.5164ZM872.139 137H841.553V141H872.139V137ZM843.273 140.02L881.506 75.5079L878.065 73.4686L839.832 137.98L843.273 140.02ZM881.51 73.4755L844.244 10.0185L840.795 12.044L878.061 75.5011L881.51 73.4755ZM842.52 13.0312H872.842V9.03125H842.52V13.0312Z" fill="#D9D9D9" mask="url(#path-1-outside-1_799_1146)"/>
</svg>
