<svg width="31" height="32" viewBox="0 0 31 32" fill="none" xmlns="http://www.w3.org/2000/svg">
<rect x="0.5" y="0.96582" width="30" height="30" rx="4.5" stroke="currentColor"/>
<g clip-path="url(#clip0_1596_1895)">
<path d="M15.9083 14.5259V14.1509H17.0308V19.4192H16.3892C16.2622 19.4194 16.1402 19.3693 16.0501 19.2798C15.96 19.1903 15.909 19.0687 15.9083 18.9417C15.4398 19.2847 14.874 19.47 14.2933 19.4692C13.5678 19.4692 12.872 19.1811 12.3588 18.6682C11.8456 18.1554 11.5571 17.4597 11.5567 16.7342C11.5571 16.0087 11.8456 15.313 12.3588 14.8001C12.872 14.2873 13.5678 13.9992 14.2933 13.9992C14.8737 13.9985 15.44 14.183 15.9083 14.5259ZM11.2658 12.4575V12.6284C11.2658 12.9467 11.2233 13.2067 11.0158 13.5117L10.9908 13.54C10.9217 13.6175 10.8545 13.6967 10.7892 13.7775L7.18667 18.2992H11.2658V18.9392C11.2658 19.0023 11.2534 19.0648 11.2292 19.1231C11.205 19.1814 11.1696 19.2343 11.1249 19.2789C11.0803 19.3235 11.0273 19.3588 10.9689 19.3829C10.9106 19.407 10.8481 19.4193 10.785 19.4192H5.5V19.1175C5.5 18.7484 5.59167 18.5834 5.70833 18.4117L9.5475 13.6575H5.66V12.4575H11.2658ZM18.3917 19.4192C18.2856 19.4192 18.1838 19.377 18.1088 19.302C18.0338 19.227 17.9917 19.1253 17.9917 19.0192V12.4575H19.1925V19.4192H18.3917ZM22.7442 13.9659C23.106 13.9657 23.4642 14.0369 23.7985 14.1752C24.1328 14.3136 24.4366 14.5164 24.6925 14.7722C24.9484 15.0279 25.1514 15.3316 25.29 15.6658C25.4285 16 25.4999 16.3582 25.5 16.72C25.5001 17.0818 25.429 17.4401 25.2906 17.7744C25.1523 18.1087 24.9494 18.4124 24.6937 18.6683C24.4379 18.9242 24.1343 19.1273 23.8001 19.2658C23.4659 19.4044 23.1076 19.4757 22.7458 19.4759C22.0152 19.4761 21.3143 19.186 20.7975 18.6695C20.2807 18.153 19.9902 17.4524 19.99 16.7217C19.9898 15.991 20.2798 15.2902 20.7963 14.7734C21.3128 14.2565 22.0135 13.9661 22.7442 13.9659ZM14.2942 18.3434C14.5086 18.3482 14.7219 18.3102 14.9214 18.2315C15.121 18.1528 15.3028 18.035 15.4562 17.8851C15.6096 17.7351 15.7315 17.5561 15.8147 17.3583C15.8979 17.1606 15.9408 16.9483 15.9408 16.7338C15.9408 16.5193 15.8979 16.3069 15.8147 16.1092C15.7315 15.9115 15.6096 15.7324 15.4562 15.5825C15.3028 15.4325 15.121 15.3147 14.9214 15.236C14.7219 15.1573 14.5086 15.1193 14.2942 15.1242C13.8736 15.1338 13.4735 15.3075 13.1795 15.6084C12.8854 15.9092 12.7208 16.3131 12.7208 16.7338C12.7208 17.1544 12.8854 17.5584 13.1795 17.8592C13.4735 18.16 13.8736 18.3338 14.2942 18.3434ZM22.7442 18.3409C23.174 18.3409 23.5863 18.1701 23.8903 17.8661C24.1942 17.5622 24.365 17.1499 24.365 16.72C24.365 16.2901 24.1942 15.8779 23.8903 15.5739C23.5863 15.27 23.174 15.0992 22.7442 15.0992C22.3143 15.0992 21.902 15.27 21.5981 15.5739C21.2941 15.8779 21.1233 16.2901 21.1233 16.72C21.1233 17.1499 21.2941 17.5622 21.5981 17.8661C21.902 18.1701 22.3143 18.3409 22.7442 18.3409Z" fill="currentColor"/>
</g>
<defs>
<clipPath id="clip0_1596_1895">
<rect width="20" height="20" fill="white" transform="translate(5.5 5.96582)"/>
</clipPath>
</defs>
</svg>
